Grandstander-Medium.ufo
<glyph name="exclam" format="2">
  <advance width="708.0"/>
  <unicode hex="0021"/>
  <outline>
    <contour>
      <point x="404.5" y="405.0" type="curve"/>
      <point x="410.0" y="668.0"/>
      <point x="446.0" y="1299.5"/>
      <point x="466.5" y="1460.5" type="curve"/>
      <point x="194.0" y="1472.5" type="line"/>
      <point x="183.0" y="1223.0"/>
      <point x="187.5" y="733.0"/>
      <point x="201.0" y="415.5" type="curve"/>
      <point x="247.0" y="409.5"/>
      <point x="361.0" y="405.0"/>
    </contour>
    <contour>
      <point x="313.0" y="-26.5" type="curve" smooth="yes"/>
      <point x="412.0" y="-26.5"/>
      <point x="488.0" y="40.0"/>
      <point x="488.0" y="142.5" type="curve" smooth="yes"/>
      <point x="488.0" y="234.0"/>
      <point x="408.5" y="300.5"/>
      <point x="310.0" y="300.5" type="curve" smooth="yes"/>
      <point x="214.5" y="300.5"/>
      <point x="130.0" y="242.0"/>
      <point x="130.0" y="143.0" type="curve" smooth="yes"/>
      <point x="130.0" y="44.5"/>
      <point x="204.5" y="-26.5"/>
    </contour>
  </outline>
</glyph>
<glyph name="quotedbl" format="2">
  <advance width="764.0"/>
  <unicode hex="0022"/>
  <outline>
    <contour>
      <point x="289.5" y="1031.5" type="curve"/>
      <point x="306.5" y="1121.0"/>
      <point x="316.5" y="1281.0"/>
      <point x="316.5" y="1397.5" type="curve" smooth="yes"/>
      <point x="316.5" y="1422.5"/>
      <point x="315.5" y="1442.5"/>
      <point x="313.5" y="1456.0" type="curve"/>
      <point x="292.0" y="1459.0"/>
      <point x="268.5" y="1460.0"/>
      <point x="244.5" y="1460.0" type="curve" smooth="yes"/>
      <point x="196.5" y="1460.0"/>
      <point x="158.0" y="1454.0"/>
      <point x="117.5" y="1445.0" type="curve"/>
      <point x="117.5" y="1368.5"/>
      <point x="137.0" y="1153.0"/>
      <point x="160.5" y="1043.5" type="curve"/>
      <point x="197.0" y="1036.5"/>
      <point x="245.0" y="1031.5"/>
    </contour>
    <contour>
      <point x="423.5" y="1037.5" type="curve"/>
      <point x="447.5" y="1037.0"/>
      <point x="495.5" y="1039.0"/>
      <point x="561.0" y="1046.5" type="curve"/>
      <point x="582.5" y="1147.0"/>
      <point x="609.0" y="1324.5"/>
      <point x="609.0" y="1408.0" type="curve" smooth="yes"/>
      <point x="609.0" y="1426.0"/>
      <point x="608.5" y="1441.0"/>
      <point x="607.5" y="1448.5" type="curve"/>
      <point x="554.0" y="1454.5"/>
      <point x="478.5" y="1455.0"/>
      <point x="414.5" y="1454.0" type="curve"/>
      <point x="412.0" y="1423.0"/>
      <point x="411.0" y="1347.0"/>
      <point x="411.0" y="1285.5" type="curve" smooth="yes"/>
      <point x="411.0" y="1218.5"/>
      <point x="418.0" y="1088.5"/>
    </contour>
  </outline>
</glyph>
<glyph name="numbersign" format="2">
  <advance width="1511.0"/>
  <unicode hex="0023"/>
  <outline>
    <contour>
      <point x="54.0" y="845.0" type="curve"/>
      <point x="252.0" y="848.0"/>
      <point x="530.5" y="858.5"/>
      <point x="810.5" y="870.5" type="curve" smooth="yes"/>
      <point x="1037.5" y="880.5"/>
      <point x="1272.0" y="891.0"/>
      <point x="1469.0" y="896.0" type="curve"/>
      <point x="1477.0" y="933.5"/>
      <point x="1485.0" y="1067.5"/>
      <point x="1485.0" y="1107.0" type="curve"/>
      <point x="1266.0" y="1104.5"/>
      <point x="1011.5" y="1090.5"/>
      <point x="753.0" y="1075.0" type="curve" smooth="yes"/>
      <point x="521.0" y="1061.0"/>
      <point x="256.0" y="1045.0"/>
      <point x="64.0" y="1040.5" type="curve"/>
      <point x="61.0" y="1019.5"/>
      <point x="54.0" y="896.5"/>
    </contour>
    <contour>
      <point x="1407.0" y="410.5" type="curve"/>
      <point x="1415.0" y="442.5"/>
      <point x="1433.0" y="576.5"/>
      <point x="1433.0" y="622.5" type="curve"/>
      <point x="1263.5" y="630.0"/>
      <point x="1087.5" y="634.0"/>
      <point x="911.5" y="635.5" type="curve" smooth="yes"/>
      <point x="761.0" y="637.0"/>
      <point x="610.5" y="637.0"/>
      <point x="462.0" y="634.5" type="curve" smooth="yes"/>
      <point x="315.0" y="631.5"/>
      <point x="171.5" y="627.5"/>
      <point x="35.0" y="621.5" type="curve"/>
      <point x="30.0" y="592.0"/>
      <point x="20.0" y="472.5"/>
      <point x="20.0" y="437.0" type="curve"/>
      <point x="104.0" y="442.0"/>
      <point x="199.0" y="444.0"/>
      <point x="301.5" y="444.0" type="curve" smooth="yes"/>
      <point x="454.0" y="444.0"/>
      <point x="624.5" y="442.5"/>
      <point x="795.5" y="435.5" type="curve" smooth="yes"/>
      <point x="1006.5" y="427.0"/>
      <point x="1219.0" y="417.0"/>
    </contour>
    <contour>
      <point x="381.5" y="8.0" type="curve"/>
      <point x="428.0" y="8.0"/>
      <point x="570.5" y="18.0"/>
      <point x="606.5" y="25.0" type="curve"/>
      <point x="606.5" y="491.5"/>
      <point x="627.0" y="1133.0"/>
      <point x="647.5" y="1476.0" type="curve"/>
      <point x="576.0" y="1476.0"/>
      <point x="474.0" y="1474.0"/>
      <point x="442.5" y="1467.5" type="curve"/>
      <point x="406.5" y="1077.5"/>
      <point x="381.5" y="499.0"/>
    </contour>
    <contour>
      <point x="922.0" y="67.5" type="curve"/>
      <point x="962.5" y="67.5"/>
      <point x="1109.0" y="89.5"/>
      <point x="1144.5" y="96.5" type="curve"/>
      <point x="1116.5" y="392.5"/>
      <point x="1102.0" y="745.5"/>
      <point x="1102.0" y="1059.0" type="curve" smooth="yes"/>
      <point x="1102.0" y="1214.0"/>
      <point x="1104.5" y="1359.5"/>
      <point x="1110.5" y="1483.0" type="curve"/>
      <point x="1069.5" y="1483.0"/>
      <point x="944.5" y="1474.5"/>
      <point x="915.5" y="1469.5" type="curve"/>
      <point x="901.5" y="1269.5"/>
      <point x="895.0" y="1055.0"/>
      <point x="895.0" y="835.5" type="curve" smooth="yes"/>
      <point x="895.0" y="581.5"/>
      <point x="903.5" y="318.0"/>
    </contour>
  </outline>
</glyph>
<glyph name="dollar" format="2">
  <advance width="1027.0"/>
  <unicode hex="0024"/>
  <anchor x="526.0" y="79.0" name="bottom"/>
  <anchor x="536.0" y="1252.5" name="top"/>
  <outline>
    <contour>
      <point x="607.0" y="-82.0" type="line"/>
      <point x="608.5" y="-21.5"/>
      <point x="612.0" y="100.5"/>
      <point x="614.0" y="144.5" type="curve"/>
      <point x="410.0" y="156.5" type="line"/>
      <point x="403.5" y="122.5"/>
      <point x="385.0" y="-51.5"/>
      <point x="384.0" y="-81.5" type="curve"/>
    </contour>
    <contour>
      <point x="425.5" y="1210.0" type="curve"/>
      <point x="613.5" y="1211.0" type="line"/>
      <point x="615.0" y="1258.0"/>
      <point x="615.5" y="1370.0"/>
      <point x="614.5" y="1416.0" type="curve"/>
      <point x="434.0" y="1408.5" type="line"/>
      <point x="432.0" y="1374.0"/>
      <point x="427.5" y="1247.0"/>
    </contour>
    <component base="s" xOffset="25.0" yOffset="144.0"/>
  </outline>
</glyph>
<glyph name="percent" format="2">
  <advance width="1385.0"/>
  <unicode hex="0025"/>
  <outline>
    <contour>
      <point x="188.0" y="-26.5" type="curve"/>
      <point x="413.5" y="214.0"/>
      <point x="1002.5" y="971.5"/>
      <point x="1226.5" y="1317.0" type="curve"/>
      <point x="1199.0" y="1353.5"/>
      <point x="1141.5" y="1409.5"/>
      <point x="1089.5" y="1432.5" type="curve"/>
      <point x="878.0" y="1089.5"/>
      <point x="339.5" y="391.0"/>
      <point x="57.0" y="68.5" type="curve"/>
      <point x="86.0" y="42.5"/>
      <point x="157.5" y="-6.5"/>
    </contour>
    <contour>
      <point x="1001.0" y="247.5" type="curve" smooth="yes"/>
      <point x="917.5" y="247.5"/>
      <point x="877.0" y="303.0"/>
      <point x="877.0" y="382.0" type="curve" smooth="yes"/>
      <point x="877.0" y="451.0"/>
      <point x="935.5" y="499.5"/>
      <point x="1001.0" y="499.5" type="curve" smooth="yes"/>
      <point x="1074.0" y="499.5"/>
      <point x="1124.0" y="456.5"/>
      <point x="1124.0" y="378.0" type="curve" smooth="yes"/>
      <point x="1124.0" y="292.5"/>
      <point x="1069.5" y="247.5"/>
    </contour>
    <contour>
      <point x="990.0" y="111.0" type="curve" smooth="yes"/>
      <point x="1151.0" y="111.0"/>
      <point x="1264.5" y="206.0"/>
      <point x="1264.5" y="373.5" type="curve" smooth="yes"/>
      <point x="1264.5" y="526.0"/>
      <point x="1168.5" y="634.0"/>
      <point x="1003.0" y="634.0" type="curve" smooth="yes"/>
      <point x="847.0" y="634.0"/>
      <point x="734.0" y="512.0"/>
      <point x="734.0" y="356.5" type="curve" smooth="yes"/>
      <point x="734.0" y="191.5"/>
      <point x="845.5" y="111.0"/>
    </contour>
    <contour>
      <point x="359.0" y="773.5" type="curve" smooth="yes"/>
      <point x="501.0" y="773.5"/>
      <point x="637.5" y="872.5"/>
      <point x="637.5" y="1041.0" type="curve" smooth="yes"/>
      <point x="637.5" y="1205.0"/>
      <point x="535.0" y="1305.0"/>
      <point x="374.5" y="1305.0" type="curve" smooth="yes"/>
      <point x="215.0" y="1305.0"/>
      <point x="89.0" y="1200.0"/>
      <point x="89.0" y="1031.5" type="curve" smooth="yes"/>
      <point x="89.0" y="881.5"/>
      <point x="201.0" y="773.5"/>
    </contour>
    <contour>
      <point x="368.0" y="925.5" type="curve" smooth="yes"/>
      <point x="294.0" y="925.5"/>
      <point x="244.0" y="965.0"/>
      <point x="244.0" y="1046.5" type="curve" smooth="yes"/>
      <point x="244.0" y="1125.5"/>
      <point x="297.0" y="1170.5"/>
      <point x="376.5" y="1170.5" type="curve" smooth="yes"/>
      <point x="445.0" y="1170.5"/>
      <point x="488.5" y="1121.0"/>
      <point x="488.5" y="1046.0" type="curve" smooth="yes"/>
      <point x="488.5" y="964.0"/>
      <point x="440.5" y="925.5"/>
    </contour>
  </outline>
</glyph>
<glyph name="ampersand" format="2">
  <advance width="1395.0"/>
  <unicode hex="0026"/>
  <outline>
    <contour>
      <point x="538.5" y="-95.0" type="curve" smooth="yes"/>
      <point x="813.5" y="-95.0"/>
      <point x="979.5" y="64.5"/>
      <point x="1029.0" y="126.5" type="curve"/>
      <point x="1063.5" y="83.0"/>
      <point x="1137.5" y="-8.5"/>
      <point x="1177.0" y="-55.0" type="curve"/>
      <point x="1221.0" y="-29.0"/>
      <point x="1289.0" y="42.0"/>
      <point x="1321.5" y="88.0" type="curve"/>
      <point x="1272.5" y="142.5"/>
      <point x="1199.5" y="220.5"/>
      <point x="1147.5" y="274.0" type="curve"/>
      <point x="1201.0" y="343.5"/>
      <point x="1281.0" y="460.0"/>
      <point x="1296.5" y="499.0" type="curve"/>
      <point x="1257.5" y="539.0"/>
      <point x="1186.0" y="594.5"/>
      <point x="1144.0" y="615.5" type="curve"/>
      <point x="1130.5" y="587.5"/>
      <point x="1053.0" y="455.5"/>
      <point x="1018.0" y="413.0" type="curve"/>
      <point x="912.0" y="532.5"/>
      <point x="746.0" y="719.5"/>
      <point x="667.0" y="807.0" type="curve"/>
      <point x="792.5" y="916.0"/>
      <point x="873.0" y="998.5"/>
      <point x="873.0" y="1153.0" type="curve" smooth="yes"/>
      <point x="873.0" y="1301.0"/>
      <point x="755.5" y="1422.0"/>
      <point x="568.0" y="1422.0" type="curve" smooth="yes"/>
      <point x="389.0" y="1422.0"/>
      <point x="228.5" y="1341.0"/>
      <point x="228.5" y="1139.5" type="curve" smooth="yes"/>
      <point x="228.5" y="1000.0"/>
      <point x="336.5" y="878.5"/>
      <point x="383.0" y="834.5" type="curve"/>
      <point x="236.0" y="741.0"/>
      <point x="46.0" y="585.0"/>
      <point x="46.0" y="335.0" type="curve" smooth="yes"/>
      <point x="46.0" y="61.5"/>
      <point x="238.0" y="-95.0"/>
    </contour>
    <contour>
      <point x="555.5" y="87.5" type="curve" smooth="yes"/>
      <point x="391.5" y="87.5"/>
      <point x="264.0" y="181.0"/>
      <point x="264.0" y="336.0" type="curve" smooth="yes"/>
      <point x="264.0" y="518.0"/>
      <point x="392.5" y="632.5"/>
      <point x="509.0" y="713.0" type="curve"/>
      <point x="598.0" y="607.0"/>
      <point x="794.0" y="382.0"/>
      <point x="902.0" y="268.5" type="curve"/>
      <point x="862.0" y="217.0"/>
      <point x="734.0" y="87.5"/>
    </contour>
    <contour>
      <point x="538.5" y="922.0" type="curve"/>
      <point x="486.5" y="976.0"/>
      <point x="426.5" y="1061.0"/>
      <point x="426.5" y="1144.0" type="curve" smooth="yes"/>
      <point x="426.5" y="1220.5"/>
      <point x="486.0" y="1268.0"/>
      <point x="557.5" y="1268.0" type="curve" smooth="yes"/>
      <point x="643.5" y="1268.0"/>
      <point x="681.0" y="1217.5"/>
      <point x="681.0" y="1153.5" type="curve" smooth="yes"/>
      <point x="681.0" y="1059.5"/>
      <point x="615.0" y="974.5"/>
    </contour>
  </outline>
</glyph>
<glyph name="quotesingle" format="2">
  <advance width="462.0"/>
  <unicode hex="0027"/>
  <outline>
    <contour>
      <point x="329.0" y="1382.0" type="curve" smooth="yes"/>
      <point x="329.0" y="1411.5"/>
      <point x="328.5" y="1437.0"/>
      <point x="326.5" y="1455.5" type="curve"/>
      <point x="302.5" y="1458.5"/>
      <point x="276.0" y="1460.0"/>
      <point x="248.5" y="1460.0" type="curve" smooth="yes"/>
      <point x="204.0" y="1460.0"/>
      <point x="157.5" y="1456.0"/>
      <point x="113.5" y="1448.0" type="curve"/>
      <point x="113.5" y="1362.0"/>
      <point x="146.0" y="1115.5"/>
      <point x="165.0" y="1008.5" type="curve"/>
      <point x="189.0" y="1006.0"/>
      <point x="213.0" y="1003.5"/>
      <point x="237.0" y="1003.5" type="curve" smooth="yes"/>
      <point x="256.0" y="1003.5"/>
      <point x="275.5" y="1004.5"/>
      <point x="299.0" y="1007.0" type="curve"/>
      <point x="318.0" y="1113.0"/>
      <point x="329.0" y="1273.0"/>
    </contour>
  </outline>
</glyph>
<glyph name="parenleft" format="2">
  <advance width="677.0"/>
  <unicode hex="0028"/>
  <outline>
    <contour>
      <point x="351.5" y="-509.0" type="curve"/>
      <point x="395.0" y="-489.0"/>
      <point x="502.5" y="-417.5"/>
      <point x="542.5" y="-386.0" type="curve"/>
      <point x="400.0" y="-208.5"/>
      <point x="303.5" y="137.5"/>
      <point x="303.5" y="509.0" type="curve" smooth="yes"/>
      <point x="303.5" y="846.5"/>
      <point x="396.5" y="1202.5"/>
      <point x="535.5" y="1475.0" type="curve"/>
      <point x="486.5" y="1500.5"/>
      <point x="389.5" y="1532.5"/>
      <point x="309.5" y="1544.5" type="curve"/>
      <point x="162.5" y="1296.5"/>
      <point x="69.0" y="904.5"/>
      <point x="69.0" y="523.5" type="curve" smooth="yes"/>
      <point x="69.0" y="107.5"/>
      <point x="176.0" y="-295.5"/>
    </contour>
  </outline>
</glyph>
<glyph name="parenright" format="2">
  <advance width="651.0"/>
  <unicode hex="0029"/>
  <outline>
    <contour>
      <point x="292.5" y="614.5" type="curve" smooth="yes"/>
      <point x="292.5" y="184.0"/>
      <point x="206.5" y="-140.5"/>
      <point x="60.5" y="-359.5" type="curve"/>
      <point x="94.0" y="-389.5"/>
      <point x="202.0" y="-448.0"/>
      <point x="250.5" y="-463.5" type="curve"/>
      <point x="427.5" y="-221.0"/>
      <point x="534.5" y="254.5"/>
      <point x="534.5" y="587.0" type="curve" smooth="yes"/>
      <point x="534.5" y="921.0"/>
      <point x="441.5" y="1309.5"/>
      <point x="259.0" y="1548.5" type="curve"/>
      <point x="189.0" y="1533.0"/>
      <point x="99.0" y="1504.0"/>
      <point x="42.0" y="1471.5" type="curve"/>
      <point x="181.5" y="1298.5"/>
      <point x="292.5" y="948.5"/>
    </contour>
  </outline>
</glyph>
<glyph name="asterisk" format="2">
  <advance width="946.5"/>
  <unicode hex="002A"/>
  <outline>
    <contour>
      <point x="764.5" y="973.0" type="curve"/>
      <point x="787.0" y="1005.0"/>
      <point x="846.0" y="1096.0"/>
      <point x="858.5" y="1131.0" type="curve"/>
      <point x="762.5" y="1184.0"/>
      <point x="598.5" y="1255.5"/>
      <point x="504.5" y="1293.5" type="curve"/>
      <point x="412.5" y="1356.5"/>
      <point x="233.5" y="1463.0"/>
      <point x="148.5" y="1512.0" type="curve"/>
      <point x="125.0" y="1478.5"/>
      <point x="73.0" y="1392.0"/>
      <point x="56.0" y="1352.5" type="curve"/>
      <point x="153.5" y="1300.0"/>
      <point x="329.0" y="1224.5"/>
      <point x="428.5" y="1184.5" type="curve"/>
      <point x="517.0" y="1120.5"/>
      <point x="672.5" y="1023.0"/>
    </contour>
    <contour>
      <point x="471.5" y="863.0" type="curve" smooth="yes"/>
      <point x="511.0" y="863.0"/>
      <point x="549.5" y="866.5"/>
      <point x="566.0" y="869.5" type="curve"/>
      <point x="564.5" y="957.5"/>
      <point x="551.5" y="1145.5"/>
      <point x="544.0" y="1249.0" type="curve"/>
      <point x="553.5" y="1339.5"/>
      <point x="561.0" y="1467.5"/>
      <point x="561.0" y="1579.0" type="curve"/>
      <point x="544.0" y="1582.5"/>
      <point x="507.0" y="1585.0"/>
      <point x="469.5" y="1585.0" type="curve" smooth="yes"/>
      <point x="432.0" y="1585.0"/>
      <point x="394.0" y="1582.5"/>
      <point x="375.5" y="1579.0" type="curve"/>
      <point x="378.5" y="1488.0"/>
      <point x="386.5" y="1359.0"/>
      <point x="398.5" y="1249.0" type="curve"/>
      <point x="389.0" y="1124.0"/>
      <point x="377.0" y="971.0"/>
      <point x="374.5" y="869.5" type="curve"/>
      <point x="391.5" y="866.0"/>
      <point x="432.0" y="863.0"/>
    </contour>
    <contour>
      <point x="160.0" y="959.0" type="curve"/>
      <point x="264.0" y="1017.0"/>
      <point x="402.0" y="1100.0"/>
      <point x="501.0" y="1162.5" type="curve"/>
      <point x="599.0" y="1207.0"/>
      <point x="777.0" y="1297.5"/>
      <point x="869.5" y="1348.5" type="curve"/>
      <point x="854.0" y="1387.5"/>
      <point x="801.0" y="1479.5"/>
      <point x="777.0" y="1510.5" type="curve"/>
      <point x="691.5" y="1460.5"/>
      <point x="535.5" y="1358.5"/>
      <point x="448.0" y="1295.0" type="curve"/>
      <point x="346.5" y="1251.0"/>
      <point x="163.5" y="1172.5"/>
      <point x="67.5" y="1119.5" type="curve"/>
      <point x="80.5" y="1087.5"/>
      <point x="142.0" y="985.0"/>
    </contour>
  </outline>
</glyph>
<glyph name="plus" format="2">
  <advance width="1050.0"/>
  <unicode hex="002B"/>
  <outline>
    <contour>
      <point x="964.5" y="633.5" type="curve"/>
      <point x="967.0" y="657.0"/>
      <point x="975.5" y="768.0"/>
      <point x="974.5" y="843.5" type="curve"/>
      <point x="865.0" y="825.0"/>
      <point x="633.5" y="813.0"/>
      <point x="400.5" y="813.0" type="curve" smooth="yes"/>
      <point x="255.5" y="813.0"/>
      <point x="120.0" y="817.5"/>
      <point x="58.5" y="824.5" type="curve"/>
      <point x="58.5" y="797.0"/>
      <point x="66.0" y="662.5"/>
      <point x="74.0" y="628.0" type="curve"/>
      <point x="184.0" y="613.5"/>
      <point x="377.5" y="603.5"/>
      <point x="543.0" y="603.5" type="curve" smooth="yes"/>
      <point x="734.5" y="603.5"/>
      <point x="882.5" y="615.5"/>
    </contour>
    <contour>
      <point x="601.5" y="1180.5" type="curve"/>
      <point x="580.5" y="1181.0"/>
      <point x="404.5" y="1175.0"/>
      <point x="378.0" y="1173.5" type="curve"/>
      <point x="401.0" y="1034.5"/>
      <point x="426.0" y="766.0"/>
      <point x="426.0" y="546.5" type="curve" smooth="yes"/>
      <point x="426.0" y="444.0"/>
      <point x="421.5" y="347.0"/>
      <point x="412.5" y="269.5" type="curve"/>
      <point x="444.0" y="267.0"/>
      <point x="585.5" y="262.5"/>
      <point x="614.0" y="264.0" type="curve"/>
      <point x="633.5" y="388.0"/>
      <point x="642.0" y="539.5"/>
      <point x="642.0" y="682.0" type="curve" smooth="yes"/>
      <point x="642.0" y="877.0"/>
      <point x="626.5" y="1066.0"/>
    </contour>
  </outline>
</glyph>
<glyph name="comma" format="2">
  <advance width="667.0"/>
  <unicode hex="002C"/>
  <outline>
    <contour>
      <point x="317.5" y="-272.0" type="curve"/>
      <point x="432.0" y="-183.5"/>
      <point x="514.0" y="-45.0"/>
      <point x="514.0" y="112.5" type="curve" smooth="yes"/>
      <point x="514.0" y="253.0"/>
      <point x="413.5" y="313.5"/>
      <point x="299.5" y="313.5" type="curve" smooth="yes"/>
      <point x="192.0" y="313.5"/>
      <point x="100.0" y="253.0"/>
      <point x="100.0" y="152.0" type="curve" smooth="yes"/>
      <point x="100.0" y="78.5"/>
      <point x="140.5" y="0.0"/>
      <point x="237.0" y="0.0" type="curve" smooth="yes"/>
      <point x="301.5" y="0.0"/>
      <point x="325.0" y="27.0"/>
      <point x="338.0" y="54.0" type="curve"/>
      <point x="340.0" y="50.5"/>
      <point x="342.0" y="44.0"/>
      <point x="342.0" y="36.0" type="curve" smooth="yes"/>
      <point x="341.5" y="-19.0"/>
      <point x="263.0" y="-124.0"/>
      <point x="212.5" y="-161.5" type="curve"/>
      <point x="236.5" y="-200.5"/>
      <point x="300.0" y="-266.5"/>
    </contour>
  </outline>
</glyph>
<glyph name="hyphen" format="2">
  <advance width="898.5"/>
  <unicode hex="002D"/>
  <outline>
    <contour>
      <point x="849.0" y="787.0" type="curve"/>
      <point x="770.5" y="795.0"/>
      <point x="655.5" y="797.5"/>
      <point x="513.0" y="797.5" type="curve" smooth="yes"/>
      <point x="345.0" y="797.5"/>
      <point x="180.0" y="785.5"/>
      <point x="54.5" y="772.0" type="curve"/>
      <point x="48.5" y="737.0"/>
      <point x="41.0" y="619.5"/>
      <point x="42.5" y="564.5" type="curve"/>
      <point x="223.5" y="576.0"/>
      <point x="683.0" y="588.5"/>
      <point x="857.5" y="588.5" type="curve"/>
      <point x="858.5" y="642.0"/>
      <point x="858.0" y="725.5"/>
    </contour>
  </outline>
</glyph>
<glyph name="period" format="2">
  <advance width="632.0"/>
  <unicode hex="002E"/>
  <outline>
    <contour>
      <point x="247.0" y="300.0" type="curve" smooth="yes"/>
      <point x="149.5" y="300.0"/>
      <point x="66.0" y="225.0"/>
      <point x="66.0" y="132.0" type="curve" smooth="yes"/>
      <point x="66.0" y="32.5"/>
      <point x="159.0" y="-38.0"/>
      <point x="256.0" y="-38.0" type="curve" smooth="yes"/>
      <point x="343.0" y="-38.0"/>
      <point x="416.0" y="25.5"/>
      <point x="416.0" y="119.0" type="curve" smooth="yes"/>
      <point x="416.0" y="221.5"/>
      <point x="347.0" y="300.0"/>
    </contour>
  </outline>
</glyph>
<glyph name="slash" format="2">
  <advance width="969.0"/>
  <unicode hex="002F"/>
  <outline>
    <contour>
      <point x="762.5" y="1508.0" type="curve"/>
      <point x="589.5" y="1061.5"/>
      <point x="243.0" y="318.0"/>
      <point x="-7.0" y="-73.5" type="curve"/>
      <point x="32.5" y="-109.5"/>
      <point x="109.0" y="-152.5"/>
      <point x="174.5" y="-168.0" type="curve"/>
      <point x="399.5" y="155.5"/>
      <point x="720.5" y="782.0"/>
      <point x="949.5" y="1426.5" type="curve"/>
      <point x="918.5" y="1460.5"/>
      <point x="861.5" y="1487.5"/>
    </contour>
  </outline>
</glyph>
<glyph name="zero" format="2">
  <advance width="1087.0"/>
  <unicode hex="0030"/>
  <outline>
    <contour>
      <point x="521.5" y="-32.0" type="curve" smooth="yes"/>
      <point x="815.5" y="-32.0"/>
      <point x="927.5" y="278.5"/>
      <point x="927.5" y="636.0" type="curve" smooth="yes"/>
      <point x="927.5" y="1028.5"/>
      <point x="828.0" y="1338.0"/>
      <point x="521.5" y="1338.0" type="curve" smooth="yes"/>
      <point x="208.5" y="1338.0"/>
      <point x="100.0" y="1042.0"/>
      <point x="100.0" y="673.0" type="curve" smooth="yes"/>
      <point x="100.0" y="313.0"/>
      <point x="217.5" y="-32.0"/>
    </contour>
    <contour>
      <point x="520.5" y="193.5" type="curve" smooth="yes"/>
      <point x="387.5" y="193.5"/>
      <point x="319.0" y="353.0"/>
      <point x="319.0" y="689.5" type="curve" smooth="yes"/>
      <point x="319.0" y="885.0"/>
      <point x="375.0" y="1134.0"/>
      <point x="519.0" y="1134.0" type="curve" smooth="yes"/>
      <point x="664.0" y="1134.0"/>
      <point x="718.0" y="905.5"/>
      <point x="718.0" y="684.5" type="curve" smooth="yes"/>
      <point x="718.0" y="427.5"/>
      <point x="681.0" y="193.5"/>
    </contour>
  </outline>
</glyph>
<glyph name="one" format="2">
  <advance width="809.0"/>
  <unicode hex="0031"/>
  <outline>
    <contour>
      <point x="492.5" y="204.5" type="curve"/>
      <point x="498.5" y="324.0"/>
      <point x="500.5" y="444.5"/>
      <point x="500.5" y="558.0" type="curve" smooth="yes"/>
      <point x="500.5" y="930.5"/>
      <point x="486.5" y="1268.0"/>
      <point x="482.0" y="1304.5" type="curve"/>
      <point x="444.5" y="1310.5"/>
      <point x="360.5" y="1314.5"/>
      <point x="314.0" y="1314.5" type="curve"/>
      <point x="233.0" y="1246.0"/>
      <point x="53.0" y="1066.5"/>
      <point x="16.0" y="1028.5" type="curve"/>
      <point x="42.5" y="975.0"/>
      <point x="92.0" y="893.5"/>
      <point x="120.0" y="860.5" type="curve"/>
      <point x="140.0" y="884.0"/>
      <point x="270.0" y="1025.0"/>
      <point x="299.0" y="1050.5" type="curve"/>
      <point x="294.0" y="929.5"/>
      <point x="291.5" y="285.5"/>
      <point x="292.0" y="197.0" type="curve"/>
      <point x="256.5" y="194.5"/>
      <point x="127.0" y="182.0"/>
      <point x="84.5" y="173.5" type="curve"/>
      <point x="82.5" y="131.0"/>
      <point x="84.0" y="30.5"/>
      <point x="85.5" y="-12.0" type="curve"/>
      <point x="158.5" y="-5.0"/>
      <point x="605.0" y="9.0"/>
      <point x="685.5" y="9.0" type="curve"/>
      <point x="692.5" y="47.0"/>
      <point x="699.0" y="162.5"/>
      <point x="699.5" y="194.0" type="curve"/>
      <point x="662.0" y="199.0"/>
      <point x="558.5" y="204.5"/>
    </contour>
  </outline>
</glyph>
<glyph name="two" format="2">
  <advance width="995.0"/>
  <unicode hex="0032"/>
  <outline>
    <contour>
      <point x="873.0" y="260.0" type="curve"/>
      <point x="740.0" y="253.0"/>
      <point x="447.0" y="228.5"/>
      <point x="361.5" y="218.0" type="curve"/>
      <point x="396.0" y="254.0"/>
      <point x="527.0" y="416.0"/>
      <point x="649.5" y="577.0" type="curve" smooth="yes"/>
      <point x="776.5" y="745.5"/>
      <point x="855.0" y="914.0"/>
      <point x="855.0" y="1061.5" type="curve" smooth="yes"/>
      <point x="855.0" y="1246.0"/>
      <point x="727.0" y="1364.0"/>
      <point x="535.0" y="1364.0" type="curve" smooth="yes"/>
      <point x="316.5" y="1364.0"/>
      <point x="123.0" y="1221.0"/>
      <point x="33.0" y="1022.5" type="curve"/>
      <point x="68.5" y="987.5"/>
      <point x="160.5" y="923.0"/>
      <point x="206.5" y="901.0" type="curve"/>
      <point x="264.0" y="1038.5"/>
      <point x="369.5" y="1148.0"/>
      <point x="509.0" y="1148.0" type="curve" smooth="yes"/>
      <point x="579.0" y="1148.0"/>
      <point x="641.5" y="1114.5"/>
      <point x="641.5" y="1030.5" type="curve" smooth="yes"/>
      <point x="641.5" y="909.0"/>
      <point x="508.0" y="720.0"/>
      <point x="377.5" y="557.0" type="curve" smooth="yes"/>
      <point x="252.0" y="399.5"/>
      <point x="129.0" y="258.5"/>
      <point x="61.5" y="190.5" type="curve"/>
      <point x="65.0" y="119.0"/>
      <point x="90.5" y="5.0"/>
      <point x="95.5" y="-17.0" type="curve"/>
      <point x="886.0" y="27.0" type="line"/>
      <point x="889.0" y="58.0"/>
      <point x="888.0" y="213.5"/>
    </contour>
  </outline>
</glyph>
<glyph name="three" format="2">
  <advance width="1032.0"/>
  <unicode hex="0033"/>
  <outline>
    <contour>
      <point x="477.0" y="-3.0" type="curve" smooth="yes"/>
      <point x="726.0" y="-3.0"/>
      <point x="923.5" y="147.0"/>
      <point x="923.5" y="398.0" type="curve" smooth="yes"/>
      <point x="923.5" y="601.5"/>
      <point x="772.0" y="704.5"/>
      <point x="600.0" y="727.5" type="curve"/>
      <point x="722.5" y="758.0"/>
      <point x="855.5" y="867.5"/>
      <point x="855.5" y="1016.0" type="curve" smooth="yes"/>
      <point x="855.5" y="1220.0"/>
      <point x="694.0" y="1335.0"/>
      <point x="494.0" y="1335.0" type="curve" smooth="yes"/>
      <point x="249.5" y="1335.0"/>
      <point x="89.5" y="1199.5"/>
      <point x="26.0" y="1128.5" type="curve"/>
      <point x="40.0" y="1111.5"/>
      <point x="111.0" y="1041.5"/>
      <point x="173.5" y="993.5" type="curve"/>
      <point x="229.5" y="1064.0"/>
      <point x="348.0" y="1140.0"/>
      <point x="472.0" y="1140.0" type="curve" smooth="yes"/>
      <point x="581.0" y="1140.0"/>
      <point x="633.5" y="1076.0"/>
      <point x="633.5" y="991.0" type="curve" smooth="yes"/>
      <point x="633.5" y="853.0"/>
      <point x="439.5" y="772.0"/>
      <point x="254.0" y="772.0" type="curve"/>
      <point x="254.0" y="706.0"/>
      <point x="264.5" y="631.0"/>
      <point x="273.5" y="602.0" type="curve"/>
      <point x="544.5" y="602.0"/>
      <point x="711.0" y="565.0"/>
      <point x="711.0" y="381.5" type="curve" smooth="yes"/>
      <point x="711.0" y="254.5"/>
      <point x="615.0" y="183.0"/>
      <point x="477.5" y="183.0" type="curve" smooth="yes"/>
      <point x="352.0" y="183.0"/>
      <point x="270.0" y="249.0"/>
      <point x="240.5" y="346.0" type="curve"/>
      <point x="180.5" y="324.0"/>
      <point x="92.0" y="279.5"/>
      <point x="44.0" y="243.0" type="curve"/>
      <point x="96.5" y="89.0"/>
      <point x="265.5" y="-3.0"/>
    </contour>
  </outline>
</glyph>
<glyph name="four" format="2">
  <advance width="1104.0"/>
  <unicode hex="0034"/>
  <outline>
    <contour>
      <point x="988.0" y="360.5" type="curve"/>
      <point x="988.0" y="428.5"/>
      <point x="978.0" y="538.0"/>
      <point x="973.5" y="556.5" type="curve"/>
      <point x="956.5" y="557.0"/>
      <point x="836.0" y="554.5"/>
      <point x="768.5" y="552.0" type="curve"/>
      <point x="768.5" y="840.0"/>
      <point x="789.0" y="1262.5"/>
      <point x="795.0" y="1341.5" type="curve"/>
      <point x="746.0" y="1342.0"/>
      <point x="632.0" y="1335.5"/>
      <point x="598.5" y="1331.5" type="curve"/>
      <point x="535.5" y="1256.0"/>
      <point x="183.0" y="692.0"/>
      <point x="79.5" y="494.5" type="curve"/>
      <point x="86.5" y="432.0"/>
      <point x="98.5" y="358.5"/>
      <point x="112.0" y="297.0" type="curve"/>
      <point x="163.0" y="303.5"/>
      <point x="398.0" y="331.0"/>
      <point x="561.5" y="343.0" type="curve"/>
      <point x="554.0" y="244.0"/>
      <point x="548.0" y="115.0"/>
      <point x="548.0" y="-11.0" type="curve"/>
      <point x="584.0" y="-10.5"/>
      <point x="718.5" y="-1.0"/>
      <point x="774.0" y="8.5" type="curve"/>
      <point x="771.5" y="52.5"/>
      <point x="768.0" y="174.0"/>
      <point x="768.0" y="356.5" type="curve"/>
      <point x="835.5" y="359.0"/>
      <point x="926.0" y="360.5"/>
    </contour>
    <contour>
      <point x="621.0" y="1076.0" type="curve"/>
      <point x="606.0" y="983.0"/>
      <point x="584.5" y="624.0"/>
      <point x="583.5" y="541.5" type="curve"/>
      <point x="516.5" y="539.5"/>
      <point x="316.5" y="517.5"/>
      <point x="288.0" y="513.0" type="curve"/>
      <point x="312.0" y="576.0"/>
      <point x="537.5" y="948.5"/>
    </contour>
  </outline>
</glyph>
<glyph name="five" format="2">
  <advance width="1137.0"/>
  <unicode hex="0035"/>
  <outline>
    <contour>
      <point x="56.0" y="203.5" type="curve"/>
      <point x="170.0" y="61.5"/>
      <point x="354.0" y="6.5"/>
      <point x="533.0" y="6.5" type="curve" smooth="yes"/>
      <point x="831.5" y="6.5"/>
      <point x="1030.5" y="203.0"/>
      <point x="1030.5" y="503.0" type="curve" smooth="yes"/>
      <point x="1030.5" y="739.0"/>
      <point x="893.0" y="949.5"/>
      <point x="658.0" y="949.5" type="curve" smooth="yes"/>
      <point x="513.0" y="949.5"/>
      <point x="410.5" y="847.5"/>
      <point x="388.5" y="788.5" type="curve"/>
      <point x="388.5" y="832.5"/>
      <point x="377.5" y="994.5"/>
      <point x="368.5" y="1079.0" type="curve"/>
      <point x="445.5" y="1094.0"/>
      <point x="682.0" y="1121.5"/>
      <point x="910.0" y="1135.0" type="curve"/>
      <point x="910.0" y="1212.0"/>
      <point x="880.0" y="1308.0"/>
      <point x="873.5" y="1326.5" type="curve"/>
      <point x="714.0" y="1313.5"/>
      <point x="282.5" y="1252.5"/>
      <point x="126.0" y="1217.5" type="curve"/>
      <point x="155.0" y="1001.5"/>
      <point x="171.5" y="789.0"/>
      <point x="171.5" y="573.5" type="curve"/>
      <point x="192.5" y="572.0"/>
      <point x="240.5" y="571.5"/>
      <point x="275.0" y="571.5" type="curve" smooth="yes"/>
      <point x="312.5" y="571.5"/>
      <point x="356.5" y="574.5"/>
      <point x="382.0" y="578.5" type="curve"/>
      <point x="387.0" y="640.5"/>
      <point x="466.0" y="773.5"/>
      <point x="616.5" y="773.5" type="curve" smooth="yes"/>
      <point x="758.0" y="773.5"/>
      <point x="824.0" y="646.5"/>
      <point x="824.0" y="512.0" type="curve" smooth="yes"/>
      <point x="824.0" y="330.5"/>
      <point x="713.5" y="209.0"/>
      <point x="537.0" y="209.0" type="curve" smooth="yes"/>
      <point x="365.0" y="209.0"/>
      <point x="264.0" y="291.5"/>
      <point x="217.5" y="360.0" type="curve"/>
      <point x="185.0" y="338.5"/>
      <point x="86.5" y="253.5"/>
    </contour>
  </outline>
</glyph>
<glyph name="six" format="2">
  <advance width="1154.0"/>
  <unicode hex="0036"/>
  <outline>
    <contour>
      <point x="825.5" y="1193.5" type="curve"/>
      <point x="812.5" y="1254.0"/>
      <point x="757.5" y="1339.5"/>
      <point x="723.0" y="1368.5" type="curve"/>
      <point x="293.0" y="1192.5"/>
      <point x="97.5" y="842.0"/>
      <point x="97.5" y="487.5" type="curve" smooth="yes"/>
      <point x="97.5" y="193.0"/>
      <point x="249.5" y="-9.0"/>
      <point x="537.0" y="-9.0" type="curve" smooth="yes"/>
      <point x="812.5" y="-9.0"/>
      <point x="1012.5" y="190.0"/>
      <point x="1012.5" y="479.0" type="curve" smooth="yes"/>
      <point x="1012.5" y="724.0"/>
      <point x="870.5" y="835.5"/>
      <point x="672.5" y="835.5" type="curve" smooth="yes"/>
      <point x="542.0" y="835.5"/>
      <point x="391.0" y="775.5"/>
      <point x="321.0" y="681.0" type="curve"/>
      <point x="373.5" y="847.0"/>
      <point x="562.5" y="1096.5"/>
    </contour>
    <contour>
      <point x="374.5" y="541.0" type="curve" smooth="yes"/>
      <point x="430.5" y="606.0"/>
      <point x="526.5" y="652.0"/>
      <point x="629.0" y="652.0" type="curve" smooth="yes"/>
      <point x="744.0" y="652.0"/>
      <point x="807.0" y="582.0"/>
      <point x="807.0" y="461.0" type="curve" smooth="yes"/>
      <point x="807.0" y="322.5"/>
      <point x="707.0" y="194.0"/>
      <point x="553.0" y="194.0" type="curve" smooth="yes"/>
      <point x="412.0" y="194.0"/>
      <point x="326.5" y="280.5"/>
      <point x="326.5" y="415.5" type="curve" smooth="yes"/>
      <point x="326.5" y="462.0"/>
      <point x="343.5" y="505.0"/>
    </contour>
  </outline>
</glyph>
<glyph name="seven" format="2">
  <advance width="1012.0"/>
  <unicode hex="0037"/>
  <outline>
    <contour>
      <point x="346.0" y="-25.0" type="curve"/>
      <point x="469.0" y="347.5"/>
      <point x="597.0" y="652.5"/>
      <point x="951.5" y="1182.0" type="curve"/>
      <point x="948.5" y="1207.0"/>
      <point x="925.0" y="1343.0"/>
      <point x="917.5" y="1370.0" type="curve"/>
      <point x="745.0" y="1370.0"/>
      <point x="342.5" y="1303.5"/>
      <point x="65.5" y="1240.5" type="curve"/>
      <point x="65.5" y="1196.0"/>
      <point x="80.0" y="1047.0"/>
      <point x="88.5" y="1011.0" type="curve"/>
      <point x="128.0" y="1023.5"/>
      <point x="423.5" y="1096.0"/>
      <point x="690.0" y="1135.0" type="curve"/>
      <point x="469.5" y="880.0"/>
      <point x="213.5" y="381.5"/>
      <point x="97.0" y="52.5" type="curve"/>
      <point x="114.0" y="45.0"/>
      <point x="280.5" y="-7.5"/>
    </contour>
  </outline>
</glyph>
<glyph name="eight" format="2">
  <advance width="1243.0"/>
  <unicode hex="0038"/>
  <outline>
    <contour>
      <point x="605.5" y="-10.0" type="curve" smooth="yes"/>
      <point x="886.0" y="-10.0"/>
      <point x="1076.0" y="145.5"/>
      <point x="1076.0" y="389.0" type="curve" smooth="yes"/>
      <point x="1076.0" y="586.5"/>
      <point x="947.5" y="684.0"/>
      <point x="829.0" y="702.5" type="curve"/>
      <point x="954.5" y="747.5"/>
      <point x="1030.0" y="866.0"/>
      <point x="1030.0" y="1030.5" type="curve" smooth="yes"/>
      <point x="1030.0" y="1261.5"/>
      <point x="848.5" y="1373.5"/>
      <point x="608.0" y="1373.5" type="curve" smooth="yes"/>
      <point x="334.5" y="1373.5"/>
      <point x="125.5" y="1252.0"/>
      <point x="125.5" y="1004.0" type="curve" smooth="yes"/>
      <point x="125.5" y="852.5"/>
      <point x="205.5" y="755.0"/>
      <point x="305.0" y="710.5" type="curve"/>
      <point x="177.5" y="657.0"/>
      <point x="78.0" y="534.5"/>
      <point x="78.0" y="377.0" type="curve" smooth="yes"/>
      <point x="78.0" y="123.5"/>
      <point x="275.5" y="-10.0"/>
    </contour>
    <contour>
      <point x="585.5" y="185.0" type="curve" smooth="yes"/>
      <point x="450.5" y="185.0"/>
      <point x="310.5" y="232.5"/>
      <point x="310.5" y="395.5" type="curve" smooth="yes"/>
      <point x="310.5" y="564.0"/>
      <point x="469.0" y="604.5"/>
      <point x="587.0" y="604.5" type="curve" smooth="yes"/>
      <point x="743.5" y="604.5"/>
      <point x="858.0" y="555.0"/>
      <point x="858.0" y="398.5" type="curve" smooth="yes"/>
      <point x="858.0" y="250.5"/>
      <point x="729.5" y="185.0"/>
    </contour>
    <contour>
      <point x="587.5" y="808.5" type="curve" smooth="yes"/>
      <point x="448.0" y="808.5"/>
      <point x="349.5" y="849.0"/>
      <point x="349.5" y="986.5" type="curve" smooth="yes"/>
      <point x="349.5" y="1104.5"/>
      <point x="430.0" y="1194.5"/>
      <point x="579.5" y="1194.5" type="curve" smooth="yes"/>
      <point x="718.5" y="1194.5"/>
      <point x="813.5" y="1143.5"/>
      <point x="813.5" y="1011.5" type="curve" smooth="yes"/>
      <point x="813.5" y="890.5"/>
      <point x="719.0" y="808.5"/>
    </contour>
  </outline>
</glyph>
<glyph name="nine" format="2">
  <advance width="1067.0"/>
  <unicode hex="0039"/>
  <outline>
    <contour>
      <point x="840.5" y="16.5" type="curve"/>
      <point x="910.5" y="233.0"/>
      <point x="970.0" y="529.5"/>
      <point x="970.0" y="843.5" type="curve" smooth="yes"/>
      <point x="970.0" y="1168.5"/>
      <point x="838.5" y="1364.0"/>
      <point x="536.5" y="1364.0" type="curve" smooth="yes"/>
      <point x="278.5" y="1364.0"/>
      <point x="68.5" y="1181.5"/>
      <point x="68.5" y="896.5" type="curve" smooth="yes"/>
      <point x="68.5" y="654.0"/>
      <point x="205.5" y="480.5"/>
      <point x="456.0" y="480.5" type="curve" smooth="yes"/>
      <point x="609.5" y="480.5"/>
      <point x="709.0" y="548.5"/>
      <point x="739.0" y="597.5" type="curve"/>
      <point x="730.5" y="358.5"/>
      <point x="609.0" y="73.0"/>
      <point x="574.5" y="-1.0" type="curve"/>
      <point x="675.0" y="-1.0"/>
      <point x="789.5" y="6.0"/>
    </contour>
    <contour>
      <point x="542.5" y="1189.5" type="curve" smooth="yes"/>
      <point x="676.0" y="1189.5"/>
      <point x="745.0" y="1098.0"/>
      <point x="745.0" y="948.5" type="curve" smooth="yes"/>
      <point x="745.0" y="792.0"/>
      <point x="650.5" y="680.5"/>
      <point x="488.0" y="680.5" type="curve" smooth="yes"/>
      <point x="354.5" y="680.5"/>
      <point x="284.5" y="775.5"/>
      <point x="284.5" y="918.5" type="curve" smooth="yes"/>
      <point x="284.5" y="1081.5"/>
      <point x="383.0" y="1189.5"/>
    </contour>
  </outline>
</glyph>
<glyph name="colon" format="2">
  <advance width="564.0"/>
  <unicode hex="003A"/>
  <outline>
    <contour>
      <point x="251.5" y="-9.5" type="curve" smooth="yes"/>
      <point x="344.5" y="-9.5"/>
      <point x="420.5" y="54.5"/>
      <point x="420.5" y="145.5" type="curve" smooth="yes"/>
      <point x="420.5" y="241.0"/>
      <point x="351.5" y="319.5"/>
      <point x="249.5" y="319.5" type="curve" smooth="yes"/>
      <point x="153.5" y="319.5"/>
      <point x="74.0" y="237.0"/>
      <point x="74.0" y="145.0" type="curve" smooth="yes"/>
      <point x="74.0" y="59.0"/>
      <point x="156.0" y="-9.5"/>
    </contour>
    <component base="period" xOffset="8.5" yOffset="708.5"/>
  </outline>
</glyph>
<glyph name="semicolon" format="2">
  <advance width="593.0"/>
  <unicode hex="003B"/>
  <outline>
    <contour>
      <point x="259.5" y="984.0" type="curve" smooth="yes"/>
      <point x="162.0" y="984.0"/>
      <point x="78.5" y="909.0"/>
      <point x="78.5" y="816.0" type="curve" smooth="yes"/>
      <point x="78.5" y="716.5"/>
      <point x="171.5" y="646.0"/>
      <point x="268.5" y="646.0" type="curve" smooth="yes"/>
      <point x="355.5" y="646.0"/>
      <point x="428.5" y="709.5"/>
      <point x="428.5" y="803.0" type="curve" smooth="yes"/>
      <point x="428.5" y="905.5"/>
      <point x="359.5" y="984.0"/>
    </contour>
    <contour>
      <point x="283.0" y="-312.0" type="curve"/>
      <point x="392.5" y="-226.5"/>
      <point x="471.5" y="-92.5"/>
      <point x="471.5" y="58.5" type="curve" smooth="yes"/>
      <point x="471.5" y="193.0"/>
      <point x="375.5" y="251.5"/>
      <point x="265.5" y="251.5" type="curve" smooth="yes"/>
      <point x="161.5" y="251.5"/>
      <point x="74.5" y="193.0"/>
      <point x="74.5" y="96.5" type="curve" smooth="yes"/>
      <point x="74.5" y="26.0"/>
      <point x="112.5" y="-49.5"/>
      <point x="206.0" y="-49.5" type="curve" smooth="yes"/>
      <point x="269.0" y="-49.5"/>
      <point x="292.0" y="-22.5"/>
      <point x="304.0" y="4.0" type="curve"/>
      <point x="306.0" y="0.5"/>
      <point x="308.0" y="-6.0"/>
      <point x="308.0" y="-13.5" type="curve" smooth="yes"/>
      <point x="307.5" y="-67.5"/>
      <point x="232.0" y="-170.5"/>
      <point x="183.0" y="-207.5" type="curve"/>
      <point x="205.5" y="-244.0"/>
      <point x="266.0" y="-306.5"/>
    </contour>
  </outline>
</glyph>
<glyph name="less" format="2">
  <advance width="807.0"/>
  <unicode hex="003C"/>
  <outline>
    <contour>
      <point x="645.5" y="1120.5" type="curve"/>
      <point x="560.5" y="1068.5"/>
      <point x="239.5" y="806.0"/>
      <point x="21.0" y="621.0" type="curve"/>
      <point x="17.0" y="450.5" type="line"/>
      <point x="235.5" y="382.0"/>
      <point x="456.5" y="294.0"/>
      <point x="655.0" y="210.0" type="curve"/>
      <point x="669.5" y="257.5"/>
      <point x="688.0" y="340.0"/>
      <point x="689.0" y="386.5" type="curve"/>
      <point x="619.5" y="436.5"/>
      <point x="317.0" y="550.5"/>
      <point x="177.0" y="595.5" type="curve"/>
      <point x="175.0" y="531.5" type="line"/>
      <point x="373.0" y="695.5"/>
      <point x="545.0" y="829.0"/>
      <point x="748.0" y="978.0" type="curve"/>
      <point x="733.0" y="1021.0"/>
      <point x="693.5" y="1090.5"/>
    </contour>
  </outline>
</glyph>
<glyph name="equal" format="2">
  <advance width="1050.0"/>
  <unicode hex="003D"/>
  <outline>
    <contour>
      <point x="67.5" y="1051.5" type="curve"/>
      <point x="55.0" y="1023.0"/>
      <point x="46.5" y="911.5"/>
      <point x="46.5" y="868.0" type="curve"/>
      <point x="211.0" y="878.5"/>
      <point x="829.5" y="896.0"/>
      <point x="1011.5" y="896.0" type="curve"/>
      <point x="1011.5" y="926.0"/>
      <point x="999.5" y="1078.5"/>
      <point x="994.0" y="1112.0" type="curve"/>
      <point x="759.0" y="1112.0"/>
      <point x="211.0" y="1080.5"/>
    </contour>
    <contour>
      <point x="30.0" y="615.0" type="curve"/>
      <point x="28.0" y="571.0"/>
      <point x="31.0" y="457.0"/>
      <point x="35.5" y="429.5" type="curve"/>
      <point x="248.0" y="437.5"/>
      <point x="850.0" y="436.5"/>
      <point x="1017.5" y="436.5" type="curve"/>
      <point x="1017.5" y="466.5"/>
      <point x="1006.5" y="604.5"/>
      <point x="1000.0" y="638.5" type="curve"/>
      <point x="925.0" y="643.0"/>
      <point x="817.0" y="646.0"/>
      <point x="699.0" y="646.0" type="curve" smooth="yes"/>
      <point x="482.0" y="646.0"/>
      <point x="223.5" y="635.5"/>
    </contour>
  </outline>
</glyph>
<glyph name="greater" format="2">
  <advance width="790.0"/>
  <unicode hex="003E"/>
  <outline>
    <contour>
      <point x="74.5" y="989.0" type="curve"/>
      <point x="184.5" y="915.5"/>
      <point x="466.5" y="731.5"/>
      <point x="581.0" y="656.0" type="curve"/>
      <point x="604.0" y="732.5" type="line"/>
      <point x="410.5" y="615.0"/>
      <point x="68.0" y="411.5"/>
      <point x="23.0" y="393.0" type="curve"/>
      <point x="23.0" y="364.0"/>
      <point x="56.5" y="254.5"/>
      <point x="78.0" y="231.5" type="curve"/>
      <point x="117.5" y="241.5"/>
      <point x="492.5" y="425.0"/>
      <point x="761.0" y="564.0" type="curve"/>
      <point x="757.0" y="763.0" type="line"/>
      <point x="550.0" y="907.0"/>
      <point x="257.0" y="1098.0"/>
      <point x="204.0" y="1112.0" type="curve"/>
      <point x="164.0" y="1090.5"/>
      <point x="106.5" y="1029.5"/>
    </contour>
  </outline>
</glyph>
<glyph name="question" format="2">
  <advance width="1036.0"/>
  <unicode hex="003F"/>
  <outline>
    <contour>
      <point x="604.0" y="412.5" type="curve"/>
      <point x="607.0" y="597.5"/>
      <point x="686.5" y="709.0"/>
      <point x="768.5" y="780.0" type="curve" smooth="yes"/>
      <point x="850.0" y="851.0"/>
      <point x="934.0" y="946.5"/>
      <point x="934.0" y="1119.5" type="curve" smooth="yes"/>
      <point x="934.0" y="1353.5"/>
      <point x="757.5" y="1472.0"/>
      <point x="502.5" y="1472.0" type="curve" smooth="yes"/>
      <point x="267.0" y="1472.0"/>
      <point x="54.5" y="1354.5"/>
      <point x="9.5" y="1129.5" type="curve"/>
      <point x="201.0" y="1025.0" type="line"/>
      <point x="238.0" y="1147.5"/>
      <point x="312.5" y="1263.5"/>
      <point x="500.5" y="1263.5" type="curve" smooth="yes"/>
      <point x="623.5" y="1263.5"/>
      <point x="691.0" y="1201.5"/>
      <point x="691.0" y="1093.0" type="curve" smooth="yes"/>
      <point x="691.0" y="1017.0"/>
      <point x="644.0" y="944.5"/>
      <point x="560.0" y="872.5" type="curve" smooth="yes"/>
      <point x="422.5" y="753.5"/>
      <point x="356.0" y="599.0"/>
      <point x="356.0" y="425.0" type="curve"/>
      <point x="438.0" y="415.5"/>
      <point x="506.0" y="412.5"/>
    </contour>
    <contour>
      <point x="500.0" y="-10.0" type="curve" smooth="yes"/>
      <point x="590.0" y="-10.0"/>
      <point x="669.5" y="64.5"/>
      <point x="669.5" y="156.5" type="curve" smooth="yes"/>
      <point x="669.5" y="242.0"/>
      <point x="595.5" y="300.0"/>
      <point x="494.0" y="300.0" type="curve" smooth="yes"/>
      <point x="410.0" y="300.0"/>
      <point x="329.5" y="229.0"/>
      <point x="329.5" y="146.0" type="curve" smooth="yes"/>
      <point x="329.5" y="49.0"/>
      <point x="407.5" y="-10.0"/>
    </contour>
  </outline>
</glyph>
<glyph name="at" format="2">
  <advance width="1920.0"/>
  <unicode hex="0040"/>
  <outline>
    <contour>
      <point x="834.0" y="-41.0" type="curve" smooth="yes"/>
      <point x="1133.0" y="-41.0"/>
      <point x="1342.0" y="52.0"/>
      <point x="1418.0" y="178.0" type="curve"/>
      <point x="1266.0" y="301.0" type="line"/>
      <point x="1206.0" y="213.0"/>
      <point x="1072.5" y="134.0"/>
      <point x="846.5" y="134.0" type="curve" smooth="yes"/>
      <point x="496.0" y="134.0"/>
      <point x="251.0" y="322.5"/>
      <point x="251.0" y="636.0" type="curve" smooth="yes"/>
      <point x="251.0" y="1041.0"/>
      <point x="585.5" y="1316.0"/>
      <point x="992.5" y="1316.0" type="curve" smooth="yes"/>
      <point x="1354.0" y="1316.0"/>
      <point x="1591.0" y="1113.5"/>
      <point x="1591.0" y="761.0" type="curve" smooth="yes"/>
      <point x="1591.0" y="648.0"/>
      <point x="1553.0" y="527.5"/>
      <point x="1454.0" y="527.5" type="curve" smooth="yes"/>
      <point x="1388.0" y="527.5"/>
      <point x="1357.5" y="556.0"/>
      <point x="1339.0" y="634.0" type="curve" smooth="yes"/>
      <point x="1331.0" y="667.5"/>
      <point x="1278.5" y="916.0"/>
      <point x="1241.0" y="1119.5" type="curve"/>
      <point x="1203.0" y="1118.0"/>
      <point x="1115.5" y="1113.5"/>
      <point x="1080.5" y="1112.0" type="curve"/>
      <point x="1082.5" y="1093.0"/>
      <point x="1086.5" y="1055.5"/>
      <point x="1090.5" y="1030.0" type="curve"/>
      <point x="1050.5" y="1066.0"/>
      <point x="985.0" y="1089.5"/>
      <point x="884.5" y="1089.5" type="curve" smooth="yes"/>
      <point x="670.5" y="1089.5"/>
      <point x="506.0" y="911.0"/>
      <point x="506.0" y="695.0" type="curve" smooth="yes"/>
      <point x="506.0" y="486.5"/>
      <point x="642.0" y="353.0"/>
      <point x="861.5" y="353.0" type="curve" smooth="yes"/>
      <point x="1013.5" y="353.0"/>
      <point x="1162.5" y="415.5"/>
      <point x="1204.0" y="523.0" type="curve"/>
      <point x="1235.0" y="414.5"/>
      <point x="1339.0" y="353.0"/>
      <point x="1460.0" y="353.0" type="curve" smooth="yes"/>
      <point x="1679.0" y="353.0"/>
      <point x="1787.5" y="529.5"/>
      <point x="1787.5" y="747.0" type="curve" smooth="yes"/>
      <point x="1787.5" y="1209.5"/>
      <point x="1462.0" y="1497.0"/>
      <point x="991.0" y="1497.0" type="curve" smooth="yes"/>
      <point x="460.5" y="1497.0"/>
      <point x="37.0" y="1151.5"/>
      <point x="37.0" y="625.5" type="curve" smooth="yes"/>
      <point x="37.0" y="187.5"/>
      <point x="384.0" y="-41.0"/>
    </contour>
    <contour>
      <point x="890.5" y="534.0" type="curve" smooth="yes"/>
      <point x="795.5" y="534.0"/>
      <point x="713.5" y="591.5"/>
      <point x="713.5" y="708.0" type="curve" smooth="yes"/>
      <point x="713.5" y="830.0"/>
      <point x="795.5" y="918.5"/>
      <point x="934.0" y="918.5" type="curve" smooth="yes"/>
      <point x="1002.5" y="918.5"/>
      <point x="1065.0" y="902.5"/>
      <point x="1103.5" y="874.5" type="curve"/>
      <point x="1144.5" y="685.0" type="line"/>
      <point x="1100.5" y="596.5"/>
      <point x="1017.0" y="534.0"/>
    </contour>
  </outline>
</glyph>
<glyph name="A" format="2">
  <advance width="1105.0"/>
  <unicode hex="0041"/>
  <anchor x="568.5" y="0.0" name="bottom"/>
  <anchor x="1037.5" y="1.0" name="ogonek"/>
  <anchor x="618.0" y="1325.0" name="top"/>
  <outline>
    <contour>
      <point x="313.5" y="-15.0" type="curve"/>
      <point x="325.5" y="74.0"/>
      <point x="357.0" y="248.0"/>
      <point x="391.5" y="408.0" type="curve"/>
      <point x="429.5" y="416.0"/>
      <point x="653.0" y="434.0"/>
      <point x="759.0" y="435.0" type="curve"/>
      <point x="764.5" y="328.5"/>
      <point x="776.0" y="80.0"/>
      <point x="781.5" y="-15.0" type="curve"/>
      <point x="859.5" y="-15.0"/>
      <point x="984.0" y="-8.0"/>
      <point x="1037.5" y="1.0" type="curve"/>
      <point x="986.5" y="702.0"/>
      <point x="934.5" y="1089.0"/>
      <point x="883.0" y="1323.0" type="curve"/>
      <point x="826.0" y="1330.0"/>
      <point x="764.0" y="1333.5"/>
      <point x="705.5" y="1333.5" type="curve" smooth="yes"/>
      <point x="583.5" y="1333.5"/>
      <point x="456.5" y="1319.0"/>
      <point x="357.0" y="1305.0" type="curve"/>
      <point x="264.5" y="968.0"/>
      <point x="97.0" y="218.0"/>
      <point x="58.5" y="-4.5" type="curve"/>
      <point x="120.0" y="-9.5"/>
      <point x="257.5" y="-15.0"/>
    </contour>
    <contour>
      <point x="423.5" y="615.0" type="curve"/>
      <point x="462.0" y="816.0"/>
      <point x="511.0" y="1042.0"/>
      <point x="527.5" y="1113.0" type="curve"/>
      <point x="557.0" y="1117.0"/>
      <point x="671.5" y="1126.0"/>
      <point x="713.5" y="1126.0" type="curve"/>
      <point x="728.0" y="1036.0"/>
      <point x="747.5" y="718.5"/>
      <point x="752.5" y="644.5" type="curve"/>
      <point x="659.0" y="641.5"/>
      <point x="486.5" y="627.5"/>
    </contour>
  </outline>
</glyph>
<glyph name="B" format="2">
  <advance width="1174.0"/>
  <unicode hex="0042"/>
  <anchor x="587.0" y="0.0" name="bottom"/>
  <anchor x="587.0" y="1291.0" name="top"/>
  <outline>
    <contour>
      <point x="136.5" y="19.5" type="curve"/>
      <point x="195.0" y="8.0"/>
      <point x="276.5" y="3.0"/>
      <point x="361.0" y="3.0" type="curve" smooth="yes"/>
      <point x="762.0" y="3.0"/>
      <point x="1068.5" y="70.5"/>
      <point x="1068.5" y="415.0" type="curve" smooth="yes"/>
      <point x="1068.5" y="582.0"/>
      <point x="935.0" y="693.5"/>
      <point x="761.0" y="701.0" type="curve" smooth="yes"/>
      <point x="751.0" y="701.5"/>
      <point x="744.0" y="701.5"/>
      <point x="737.5" y="701.0" type="curve"/>
      <point x="841.0" y="723.5"/>
      <point x="961.0" y="852.5"/>
      <point x="961.0" y="1005.0" type="curve" smooth="yes"/>
      <point x="961.0" y="1219.5"/>
      <point x="799.0" y="1306.0"/>
      <point x="576.0" y="1306.0" type="curve" smooth="yes"/>
      <point x="415.5" y="1306.0"/>
      <point x="251.0" y="1293.0"/>
      <point x="156.5" y="1285.0" type="curve"/>
      <point x="156.5" y="1256.0"/>
      <point x="136.5" y="201.0"/>
    </contour>
    <contour>
      <point x="385.5" y="226.5" type="curve"/>
      <point x="384.5" y="576.5" type="line"/>
      <point x="429.0" y="581.5"/>
      <point x="526.5" y="583.5"/>
      <point x="560.5" y="583.5" type="curve" smooth="yes"/>
      <point x="730.0" y="583.5"/>
      <point x="845.5" y="543.0"/>
      <point x="845.5" y="424.5" type="curve" smooth="yes"/>
      <point x="845.5" y="258.5"/>
      <point x="639.0" y="226.0"/>
      <point x="434.0" y="226.0" type="curve" smooth="yes"/>
      <point x="413.0" y="226.0"/>
      <point x="395.5" y="226.0"/>
    </contour>
    <contour>
      <point x="381.0" y="768.5" type="curve"/>
      <point x="377.0" y="1116.5" type="line"/>
      <point x="420.0" y="1122.5"/>
      <point x="496.0" y="1132.0"/>
      <point x="561.0" y="1132.0" type="curve" smooth="yes"/>
      <point x="677.5" y="1132.0"/>
      <point x="754.5" y="1087.5"/>
      <point x="754.5" y="974.0" type="curve" smooth="yes"/>
      <point x="754.5" y="888.0"/>
      <point x="686.0" y="820.0"/>
      <point x="608.0" y="797.0" type="curve" smooth="yes"/>
      <point x="562.5" y="774.5"/>
      <point x="502.5" y="769.5"/>
    </contour>
  </outline>
</glyph>
<glyph name="C" format="2">
  <advance width="1137.0"/>
  <unicode hex="0043"/>
  <anchor x="569.0" y="0.0" name="bottom"/>
  <anchor x="554.0" y="1296.0" name="top"/>
  <outline>
    <contour>
      <point x="1076.0" y="252.0" type="curve"/>
      <point x="1044.5" y="303.5"/>
      <point x="958.0" y="383.0"/>
      <point x="906.0" y="418.5" type="curve"/>
      <point x="837.0" y="333.5"/>
      <point x="733.5" y="231.0"/>
      <point x="586.0" y="231.0" type="curve" smooth="yes"/>
      <point x="421.0" y="231.0"/>
      <point x="306.0" y="428.5"/>
      <point x="306.0" y="678.5" type="curve" smooth="yes"/>
      <point x="306.0" y="969.5"/>
      <point x="438.0" y="1111.5"/>
      <point x="587.5" y="1111.5" type="curve" smooth="yes"/>
      <point x="778.5" y="1111.5"/>
      <point x="848.5" y="972.5"/>
      <point x="864.5" y="936.0" type="curve"/>
      <point x="914.0" y="967.0"/>
      <point x="1007.5" y="1037.0"/>
      <point x="1047.0" y="1081.5" type="curve"/>
      <point x="959.5" y="1238.0"/>
      <point x="782.0" y="1326.0"/>
      <point x="589.0" y="1326.0" type="curve" smooth="yes"/>
      <point x="237.5" y="1326.0"/>
      <point x="45.0" y="1041.5"/>
      <point x="45.0" y="667.5" type="curve" smooth="yes"/>
      <point x="45.0" y="284.5"/>
      <point x="243.0" y="-10.5"/>
      <point x="590.5" y="-10.5" type="curve" smooth="yes"/>
      <point x="811.0" y="-10.5"/>
      <point x="975.0" y="115.0"/>
    </contour>
  </outline>
</glyph>
<glyph name="D" format="2">
  <advance width="1198.0"/>
  <unicode hex="0044"/>
  <anchor x="599.0" y="0.0" name="bottom"/>
  <anchor x="332.0" y="646.0" name="center"/>
  <anchor x="517.5" y="1291.0" name="top"/>
  <outline>
    <contour>
      <point x="197.5" y="-30.5" type="curve"/>
      <point x="803.5" y="-21.0"/>
      <point x="1059.0" y="124.0"/>
      <point x="1059.0" y="639.0" type="curve" smooth="yes"/>
      <point x="1059.0" y="1080.0"/>
      <point x="903.0" y="1325.0"/>
      <point x="422.0" y="1325.0" type="curve" smooth="yes"/>
      <point x="311.5" y="1325.0"/>
      <point x="150.0" y="1308.5"/>
      <point x="84.5" y="1299.0" type="curve"/>
      <point x="90.0" y="1210.0"/>
      <point x="171.0" y="198.5"/>
    </contour>
    <contour>
      <point x="420.5" y="217.0" type="curve"/>
      <point x="395.0" y="490.5"/>
      <point x="370.0" y="840.0"/>
      <point x="351.5" y="1114.5" type="curve"/>
      <point x="380.0" y="1116.5"/>
      <point x="414.0" y="1117.5"/>
      <point x="443.5" y="1117.5" type="curve" smooth="yes"/>
      <point x="725.5" y="1117.5"/>
      <point x="818.0" y="906.5"/>
      <point x="818.0" y="630.0" type="curve" smooth="yes"/>
      <point x="818.0" y="365.5"/>
      <point x="718.5" y="233.5"/>
    </contour>
  </outline>
</glyph>
<glyph name="E" format="2">
  <advance width="957.0"/>
  <unicode hex="0045"/>
  <anchor x="489.0" y="0.0" name="bottom"/>
  <anchor x="690.5" y="0.5" name="ogonek"/>
  <anchor x="489.0" y="1316.0" name="top"/>
  <anchor x="30.0" y="1291.0" name="topleft"/>
  <outline>
    <contour>
      <point x="818.0" y="-12.0" type="curve"/>
      <point x="826.5" y="15.5"/>
      <point x="843.0" y="153.0"/>
      <point x="844.0" y="233.5" type="curve"/>
      <point x="781.5" y="238.5"/>
      <point x="648.5" y="245.0"/>
      <point x="528.0" y="245.0" type="curve" smooth="yes"/>
      <point x="457.5" y="245.0"/>
      <point x="368.5" y="244.5"/>
      <point x="343.5" y="243.5" type="curve"/>
      <point x="343.5" y="327.5"/>
      <point x="345.0" y="583.0"/>
      <point x="346.0" y="623.5" type="curve"/>
      <point x="406.5" y="625.0"/>
      <point x="661.5" y="618.5"/>
      <point x="708.5" y="617.0" type="curve"/>
      <point x="708.0" y="816.0" type="line"/>
      <point x="618.5" y="815.0"/>
      <point x="427.5" y="807.5"/>
      <point x="351.5" y="806.0" type="curve"/>
      <point x="351.5" y="858.0"/>
      <point x="353.0" y="1035.0"/>
      <point x="357.0" y="1087.5" type="curve"/>
      <point x="839.0" y="1126.5" type="line"/>
      <point x="845.5" y="1197.0"/>
      <point x="850.0" y="1255.0"/>
      <point x="850.0" y="1324.0" type="curve"/>
      <point x="795.0" y="1324.0"/>
      <point x="483.5" y="1313.5"/>
      <point x="119.5" y="1251.0" type="curve"/>
      <point x="114.0" y="1166.0"/>
      <point x="108.0" y="945.5"/>
      <point x="108.0" y="625.0" type="curve" smooth="yes"/>
      <point x="108.0" y="440.5"/>
      <point x="111.5" y="231.5"/>
      <point x="119.5" y="16.5" type="curve"/>
      <point x="212.0" y="13.5"/>
      <point x="314.5" y="10.0"/>
      <point x="407.0" y="6.5" type="curve" smooth="yes"/>
      <point x="548.0" y="3.0"/>
      <point x="678.5" y="-3.5"/>
    </contour>
  </outline>
</glyph>
<glyph name="F" format="2">
  <advance width="949.0"/>
  <unicode hex="0046"/>
  <anchor x="475.0" y="0.0" name="bottom"/>
  <anchor x="475.0" y="1291.0" name="top"/>
  <outline>
    <contour>
      <point x="414.5" y="-13.0" type="line"/>
      <point x="409.5" y="180.5"/>
      <point x="395.5" y="418.5"/>
      <point x="381.0" y="587.5" type="curve"/>
      <point x="498.0" y="587.5"/>
      <point x="669.0" y="577.0"/>
      <point x="770.5" y="566.0" type="curve"/>
      <point x="775.5" y="632.0"/>
      <point x="777.0" y="700.5"/>
      <point x="777.0" y="760.0" type="curve"/>
      <point x="736.0" y="767.0"/>
      <point x="551.0" y="786.5"/>
      <point x="365.5" y="786.5" type="curve"/>
      <point x="361.0" y="882.5"/>
      <point x="353.5" y="1024.0"/>
      <point x="346.5" y="1091.5" type="curve"/>
      <point x="581.0" y="1091.5"/>
      <point x="771.0" y="1075.0"/>
      <point x="847.5" y="1068.5" type="curve"/>
      <point x="847.5" y="1122.5"/>
      <point x="844.0" y="1209.5"/>
      <point x="837.5" y="1280.0" type="curve"/>
      <point x="741.5" y="1295.5"/>
      <point x="633.5" y="1306.5"/>
      <point x="493.5" y="1308.5" type="curve" smooth="yes"/>
      <point x="383.5" y="1310.0"/>
      <point x="256.5" y="1309.5"/>
      <point x="110.0" y="1304.0" type="curve"/>
      <point x="129.5" y="898.5"/>
      <point x="150.5" y="434.5"/>
      <point x="155.5" y="2.5" type="curve"/>
    </contour>
  </outline>
</glyph>
<glyph name="G" format="2">
  <advance width="1275.0"/>
  <unicode hex="0047"/>
  <anchor x="658.0" y="0.0" name="bottom"/>
  <anchor x="658.0" y="1291.0" name="top"/>
  <outline>
    <contour>
      <point x="697.0" y="-48.0" type="curve" smooth="yes"/>
      <point x="1034.0" y="-48.0"/>
      <point x="1185.5" y="183.5"/>
      <point x="1185.5" y="485.5" type="curve" smooth="yes"/>
      <point x="1185.5" y="538.5"/>
      <point x="1181.0" y="603.5"/>
      <point x="1170.0" y="657.0" type="curve"/>
      <point x="1010.5" y="694.5"/>
      <point x="737.5" y="724.5"/>
      <point x="591.0" y="729.5" type="curve"/>
      <point x="586.5" y="686.0"/>
      <point x="585.0" y="593.0"/>
      <point x="586.0" y="550.5" type="curve"/>
      <point x="676.0" y="546.5"/>
      <point x="901.5" y="517.5"/>
      <point x="956.5" y="505.5" type="curve"/>
      <point x="958.5" y="487.0"/>
      <point x="959.5" y="464.0"/>
      <point x="959.5" y="442.5" type="curve" smooth="yes"/>
      <point x="959.5" y="298.0"/>
      <point x="885.5" y="167.5"/>
      <point x="698.5" y="167.5" type="curve" smooth="yes"/>
      <point x="438.0" y="167.5"/>
      <point x="316.0" y="353.0"/>
      <point x="316.0" y="643.0" type="curve" smooth="yes"/>
      <point x="316.0" y="942.0"/>
      <point x="477.5" y="1106.0"/>
      <point x="637.0" y="1106.0" type="curve" smooth="yes"/>
      <point x="768.0" y="1106.0"/>
      <point x="849.5" y="1060.0"/>
      <point x="919.0" y="952.5" type="curve"/>
      <point x="986.5" y="994.5"/>
      <point x="1077.0" y="1078.5"/>
      <point x="1104.0" y="1112.5" type="curve"/>
      <point x="1027.0" y="1232.0"/>
      <point x="862.0" y="1338.0"/>
      <point x="642.0" y="1338.0" type="curve" smooth="yes"/>
      <point x="275.5" y="1338.0"/>
      <point x="73.0" y="1051.0"/>
      <point x="73.0" y="646.0" type="curve" smooth="yes"/>
      <point x="73.0" y="212.0"/>
      <point x="292.0" y="-48.0"/>
    </contour>
  </outline>
</glyph>
<glyph name="H" format="2">
  <advance width="1094.0"/>
  <unicode hex="0048"/>
  <anchor x="547.0" y="0.0" name="bottom"/>
  <anchor x="521.5" y="1063.0" name="center"/>
  <anchor x="547.0" y="1291.0" name="top"/>
  <anchor x="20.0" y="1291.0" name="topleft"/>
  <outline>
    <contour>
      <point x="140.5" y="1.5" type="curve"/>
      <point x="198.0" y="1.5"/>
      <point x="339.0" y="7.0"/>
      <point x="384.5" y="13.0" type="curve"/>
      <point x="383.0" y="56.5"/>
      <point x="366.0" y="376.5"/>
      <point x="358.0" y="554.5" type="curve"/>
      <point x="423.5" y="554.5"/>
      <point x="629.5" y="559.5"/>
      <point x="698.5" y="561.5" type="curve"/>
      <point x="698.5" y="423.0"/>
      <point x="700.0" y="174.5"/>
      <point x="700.0" y="0.0" type="curve"/>
      <point x="781.5" y="0.0"/>
      <point x="882.5" y="3.0"/>
      <point x="920.5" y="7.0" type="curve"/>
      <point x="919.5" y="91.0"/>
      <point x="922.0" y="260.0"/>
      <point x="927.0" y="436.0" type="curve" smooth="yes"/>
      <point x="933.0" y="755.5"/>
      <point x="951.5" y="1175.0"/>
      <point x="969.5" y="1299.0" type="curve"/>
      <point x="938.0" y="1303.5"/>
      <point x="871.0" y="1306.0"/>
      <point x="807.5" y="1306.0" type="curve" smooth="yes"/>
      <point x="776.5" y="1306.0"/>
      <point x="742.5" y="1305.5"/>
      <point x="720.5" y="1304.0" type="curve"/>
      <point x="711.0" y="1157.0"/>
      <point x="704.5" y="882.0"/>
      <point x="700.5" y="778.5" type="curve"/>
      <point x="632.0" y="777.0"/>
      <point x="422.0" y="768.0"/>
      <point x="348.5" y="760.0" type="curve"/>
      <point x="346.5" y="796.0"/>
      <point x="343.0" y="921.5"/>
      <point x="343.0" y="1036.5" type="curve" smooth="yes"/>
      <point x="343.0" y="1121.0"/>
      <point x="344.0" y="1220.0"/>
      <point x="348.0" y="1293.0" type="curve"/>
      <point x="286.5" y="1293.0"/>
      <point x="131.0" y="1285.0"/>
      <point x="106.0" y="1282.0" type="curve"/>
      <point x="102.0" y="1233.5"/>
      <point x="100.5" y="1159.5"/>
      <point x="100.5" y="1070.0" type="curve" smooth="yes"/>
      <point x="100.5" y="723.5"/>
      <point x="124.5" y="148.0"/>
    </contour>
  </outline>
</glyph>
<glyph name="I" format="2">
  <advance width="569.0"/>
  <unicode hex="0049"/>
  <anchor x="299.0" y="0.0" name="bottom"/>
  <anchor x="393.0" y="-12.0" name="ogonek"/>
  <anchor x="299.0" y="1291.0" name="top"/>
  <anchor x="59.5" y="1291.0" name="topleft"/>
  <outline>
    <contour>
      <point x="393.0" y="-12.0" type="curve"/>
      <point x="403.5" y="70.0"/>
      <point x="406.5" y="392.0"/>
      <point x="406.5" y="565.5" type="curve" smooth="yes"/>
      <point x="406.5" y="789.0"/>
      <point x="399.0" y="1085.5"/>
      <point x="390.5" y="1321.5" type="curve"/>
      <point x="330.0" y="1321.5"/>
      <point x="199.0" y="1318.0"/>
      <point x="165.0" y="1316.0" type="curve"/>
      <point x="160.5" y="1053.0"/>
      <point x="158.5" y="811.5"/>
      <point x="158.5" y="614.5" type="curve" smooth="yes"/>
      <point x="158.5" y="413.0"/>
      <point x="162.5" y="138.0"/>
      <point x="167.0" y="-2.0" type="curve"/>
      <point x="228.5" y="-10.5"/>
      <point x="336.5" y="-12.0"/>
    </contour>
  </outline>
</glyph>
<glyph name="J" format="2">
  <advance width="1178.0"/>
  <unicode hex="004A"/>
  <anchor x="589.0" y="0.0" name="bottom"/>
  <anchor x="813.0" y="1304.5" name="top"/>
  <outline>
    <contour>
      <point x="528.5" y="-19.0" type="curve" smooth="yes"/>
      <point x="836.0" y="-19.0"/>
      <point x="1005.0" y="180.5"/>
      <point x="1005.0" y="599.5" type="curve" smooth="yes"/>
      <point x="1005.0" y="784.5"/>
      <point x="981.5" y="1120.0"/>
      <point x="966.0" y="1296.0" type="curve"/>
      <point x="931.5" y="1300.5"/>
      <point x="893.5" y="1302.5"/>
      <point x="847.5" y="1302.5" type="curve" smooth="yes"/>
      <point x="803.5" y="1302.5"/>
      <point x="750.0" y="1297.0"/>
      <point x="712.0" y="1289.0" type="curve"/>
      <point x="715.5" y="1267.0"/>
      <point x="758.0" y="811.0"/>
      <point x="758.0" y="604.5" type="curve" smooth="yes"/>
      <point x="758.0" y="360.0"/>
      <point x="698.5" y="213.5"/>
      <point x="543.5" y="213.5" type="curve" smooth="yes"/>
      <point x="394.0" y="213.5"/>
      <point x="294.0" y="351.5"/>
      <point x="253.0" y="514.5" type="curve"/>
      <point x="194.0" y="492.0"/>
      <point x="64.5" y="431.0"/>
      <point x="25.0" y="402.5" type="curve"/>
      <point x="85.0" y="152.0"/>
      <point x="258.0" y="-19.0"/>
    </contour>
  </outline>
</glyph>
<glyph name="K" format="2">
  <advance width="1088.0"/>
  <unicode hex="004B"/>
  <anchor x="558.0" y="0.0" name="bottom"/>
  <anchor x="558.0" y="1291.0" name="top"/>
  <outline>
    <contour>
      <point x="147.5" y="-32.0" type="curve"/>
      <point x="247.5" y="-22.0"/>
      <point x="368.0" y="-9.5"/>
      <point x="399.5" y="-7.0" type="curve"/>
      <point x="399.5" y="26.5"/>
      <point x="384.0" y="326.5"/>
      <point x="371.5" y="515.0" type="curve"/>
      <point x="390.5" y="525.0"/>
      <point x="419.0" y="544.5"/>
      <point x="441.0" y="561.5" type="curve"/>
      <point x="594.5" y="390.5"/>
      <point x="778.0" y="60.5"/>
      <point x="804.0" y="-1.5" type="curve"/>
      <point x="870.0" y="20.5"/>
      <point x="979.0" y="76.5"/>
      <point x="1019.5" y="105.0" type="curve"/>
      <point x="985.5" y="178.5"/>
      <point x="770.5" y="517.0"/>
      <point x="594.5" y="703.5" type="curve"/>
      <point x="799.0" y="867.0"/>
      <point x="970.0" y="1096.5"/>
      <point x="1010.5" y="1171.0" type="curve"/>
      <point x="976.0" y="1188.5"/>
      <point x="889.0" y="1241.0"/>
      <point x="814.5" y="1299.0" type="curve"/>
      <point x="687.0" y="1072.0"/>
      <point x="482.0" y="857.5"/>
      <point x="356.0" y="758.5" type="curve"/>
      <point x="345.0" y="957.0"/>
      <point x="332.0" y="1232.5"/>
      <point x="328.0" y="1297.0" type="curve"/>
      <point x="305.0" y="1301.5"/>
      <point x="261.0" y="1305.5"/>
      <point x="214.0" y="1305.5" type="curve" smooth="yes"/>
      <point x="173.5" y="1305.5"/>
      <point x="123.0" y="1302.5"/>
      <point x="90.0" y="1296.0" type="curve"/>
      <point x="113.0" y="917.0"/>
      <point x="147.5" y="154.5"/>
    </contour>
  </outline>
</glyph>
<glyph name="L" format="2">
  <advance width="961.0"/>
  <unicode hex="004C"/>
  <anchor x="501.0" y="0.0" name="bottom"/>
  <anchor x="501.0" y="646.0" name="center"/>
  <anchor x="266.5" y="1299.0" name="top"/>
  <anchor x="548.0" y="904.5" name="topright"/>
  <outline>
    <contour>
      <point x="132.0" y="16.5" type="curve"/>
      <point x="229.5" y="11.0"/>
      <point x="338.0" y="8.5"/>
      <point x="454.0" y="11.0" type="curve" smooth="yes"/>
      <point x="584.5" y="13.5"/>
      <point x="732.0" y="22.0"/>
      <point x="885.0" y="39.5" type="curve"/>
      <point x="887.0" y="108.5"/>
      <point x="884.0" y="229.0"/>
      <point x="879.0" y="272.5" type="curve"/>
      <point x="711.5" y="272.5"/>
      <point x="523.5" y="264.0"/>
      <point x="379.0" y="255.5" type="curve"/>
      <point x="383.0" y="305.0"/>
      <point x="387.0" y="389.0"/>
      <point x="389.0" y="482.0" type="curve" smooth="yes"/>
      <point x="398.5" y="774.5"/>
      <point x="401.5" y="1119.0"/>
      <point x="393.5" y="1292.0" type="curve"/>
      <point x="377.0" y="1295.0"/>
      <point x="323.5" y="1298.0"/>
      <point x="288.0" y="1298.0" type="curve" smooth="yes"/>
      <point x="226.0" y="1298.0"/>
      <point x="160.0" y="1292.0"/>
      <point x="132.0" y="1288.0" type="curve"/>
      <point x="138.0" y="1146.0"/>
      <point x="143.5" y="883.0"/>
      <point x="143.5" y="628.5" type="curve" smooth="yes"/>
      <point x="143.5" y="373.5"/>
      <point x="138.0" y="126.5"/>
    </contour>
  </outline>
</glyph>
<glyph name="M" format="2">
  <advance width="1435.5"/>
  <unicode hex="004D"/>
  <anchor x="734.0" y="0.0" name="bottom"/>
  <anchor x="734.0" y="1291.0" name="top"/>
  <outline>
    <contour>
      <point x="127.5" y="-7.5" type="curve"/>
      <point x="207.5" y="-7.5"/>
      <point x="313.5" y="-5.0"/>
      <point x="368.5" y="-2.5" type="curve"/>
      <point x="368.5" y="59.5"/>
      <point x="368.5" y="603.0"/>
      <point x="368.0" y="931.5" type="curve"/>
      <point x="421.0" y="753.0"/>
      <point x="610.0" y="87.5"/>
      <point x="620.0" y="40.5" type="curve"/>
      <point x="661.0" y="32.5"/>
      <point x="728.0" y="31.0"/>
      <point x="788.0" y="31.0" type="curve"/>
      <point x="829.0" y="111.5"/>
      <point x="1035.5" y="695.5"/>
      <point x="1083.0" y="875.5" type="curve"/>
      <point x="1082.5" y="802.0"/>
      <point x="1082.0" y="614.5"/>
      <point x="1079.5" y="461.0" type="curve" smooth="yes"/>
      <point x="1077.0" y="294.5"/>
      <point x="1071.0" y="127.0"/>
      <point x="1060.5" y="9.5" type="curve"/>
      <point x="1109.5" y="5.5"/>
      <point x="1214.0" y="-0.5"/>
      <point x="1288.5" y="-0.5" type="curve"/>
      <point x="1300.5" y="143.5"/>
      <point x="1309.0" y="429.5"/>
      <point x="1309.0" y="682.5" type="curve" smooth="yes"/>
      <point x="1309.0" y="906.5"/>
      <point x="1300.5" y="1121.5"/>
      <point x="1274.0" y="1245.5" type="curve"/>
      <point x="1209.0" y="1256.0"/>
      <point x="1070.5" y="1261.0"/>
      <point x="1005.0" y="1261.0" type="curve"/>
      <point x="972.0" y="1110.0"/>
      <point x="789.0" y="531.0"/>
      <point x="726.5" y="338.0" type="curve"/>
      <point x="684.5" y="537.0"/>
      <point x="466.5" y="1245.0"/>
      <point x="460.0" y="1262.0" type="curve"/>
      <point x="446.5" y="1262.0"/>
      <point x="251.0" y="1260.5"/>
      <point x="153.0" y="1250.0" type="curve"/>
      <point x="139.0" y="966.0"/>
      <point x="127.5" y="295.0"/>
    </contour>
  </outline>
</glyph>
<glyph name="N" format="2">
  <advance width="1282.0"/>
  <unicode hex="004E"/>
  <anchor x="641.0" y="0.0" name="bottom"/>
  <anchor x="641.0" y="1291.0" name="top"/>
  <outline>
    <contour>
      <point x="406.0" y="-6.0" type="curve"/>
      <point x="406.0" y="126.5"/>
      <point x="393.5" y="771.0"/>
      <point x="383.5" y="888.0" type="curve"/>
      <point x="507.5" y="670.0"/>
      <point x="827.0" y="96.0"/>
      <point x="876.0" y="6.0" type="curve"/>
      <point x="906.5" y="1.0"/>
      <point x="952.0" y="-0.5"/>
      <point x="998.0" y="-0.5" type="curve" smooth="yes"/>
      <point x="1030.5" y="-0.5"/>
      <point x="1063.5" y="0.0"/>
      <point x="1095.0" y="1.5" type="curve"/>
      <point x="1106.5" y="41.5"/>
      <point x="1116.5" y="252.0"/>
      <point x="1116.5" y="462.0" type="curve" smooth="yes"/>
      <point x="1116.5" y="696.0"/>
      <point x="1107.5" y="1053.5"/>
      <point x="1096.5" y="1226.5" type="curve"/>
      <point x="1052.0" y="1241.0"/>
      <point x="924.0" y="1254.0"/>
      <point x="857.0" y="1254.0" type="curve"/>
      <point x="900.0" y="359.5" type="line"/>
      <point x="777.0" y="618.0"/>
      <point x="587.0" y="966.0"/>
      <point x="394.0" y="1250.5" type="curve"/>
      <point x="330.5" y="1261.0"/>
      <point x="184.5" y="1269.0"/>
      <point x="139.0" y="1269.0" type="curve"/>
      <point x="144.0" y="1178.5"/>
      <point x="145.5" y="1002.0"/>
      <point x="145.5" y="828.5" type="curve" smooth="yes"/>
      <point x="145.5" y="517.5"/>
      <point x="147.0" y="56.5"/>
      <point x="148.0" y="6.0" type="curve"/>
      <point x="198.0" y="1.0"/>
      <point x="319.5" y="-7.0"/>
    </contour>
  </outline>
</glyph>
<glyph name="O" format="2">
  <advance width="1354.0"/>
  <unicode hex="004F"/>
  <anchor x="677.0" y="0.0" name="bottom"/>
  <anchor x="615.0" y="646.0" name="center"/>
  <anchor x="893.0" y="0.0" name="ogonek"/>
  <anchor x="677.0" y="1291.0" name="top"/>
  <anchor x="20.0" y="1291.0" name="topleft"/>
  <anchor x="997.0" y="1181.5" name="topright"/>
  <outline>
    <contour>
      <point x="660.5" y="-51.0" type="curve" smooth="yes"/>
      <point x="1061.5" y="-51.0"/>
      <point x="1233.5" y="263.5"/>
      <point x="1233.5" y="623.0" type="curve" smooth="yes"/>
      <point x="1233.5" y="999.0"/>
      <point x="1072.0" y="1320.0"/>
      <point x="660.5" y="1320.0" type="curve" smooth="yes"/>
      <point x="286.5" y="1320.0"/>
      <point x="89.0" y="1032.0"/>
      <point x="89.0" y="626.0" type="curve" smooth="yes"/>
      <point x="89.0" y="245.5"/>
      <point x="264.5" y="-51.0"/>
    </contour>
    <contour>
      <point x="659.5" y="188.5" type="curve" smooth="yes"/>
      <point x="430.0" y="188.5"/>
      <point x="331.0" y="384.0"/>
      <point x="331.0" y="626.0" type="curve" smooth="yes"/>
      <point x="331.0" y="903.5"/>
      <point x="442.5" y="1117.0"/>
      <point x="676.0" y="1117.0" type="curve" smooth="yes"/>
      <point x="932.5" y="1117.0"/>
      <point x="1012.5" y="882.0"/>
      <point x="1012.5" y="639.5" type="curve" smooth="yes"/>
      <point x="1012.5" y="400.0"/>
      <point x="904.5" y="188.5"/>
    </contour>
  </outline>
</glyph>
<glyph name="P" format="2">
  <advance width="1010.0"/>
  <unicode hex="0050"/>
  <anchor x="505.0" y="0.0" name="bottom"/>
  <anchor x="505.0" y="1291.0" name="top"/>
  <outline>
    <contour>
      <point x="90.5" y="-15.0" type="curve"/>
      <point x="144.5" y="-18.5"/>
      <point x="284.0" y="-21.0"/>
      <point x="336.0" y="-21.0" type="curve"/>
      <point x="337.5" y="178.5"/>
      <point x="347.5" y="500.0"/>
      <point x="350.0" y="579.5" type="curve"/>
      <point x="391.5" y="571.0"/>
      <point x="454.5" y="565.5"/>
      <point x="500.0" y="565.5" type="curve" smooth="yes"/>
      <point x="776.5" y="565.5"/>
      <point x="921.5" y="699.5"/>
      <point x="921.5" y="955.5" type="curve" smooth="yes"/>
      <point x="921.5" y="1187.5"/>
      <point x="758.5" y="1288.0"/>
      <point x="504.0" y="1288.0" type="curve" smooth="yes"/>
      <point x="359.0" y="1288.0"/>
      <point x="239.5" y="1274.0"/>
      <point x="132.5" y="1252.0" type="curve"/>
      <point x="113.0" y="1006.0"/>
      <point x="90.5" y="192.5"/>
    </contour>
    <contour>
      <point x="347.5" y="779.0" type="curve"/>
      <point x="348.5" y="817.0"/>
      <point x="352.5" y="1077.0"/>
      <point x="352.0" y="1098.0" type="curve"/>
      <point x="417.5" y="1106.5"/>
      <point x="472.5" y="1111.0"/>
      <point x="519.0" y="1111.0" type="curve" smooth="yes"/>
      <point x="639.0" y="1111.0"/>
      <point x="718.5" y="1073.5"/>
      <point x="718.5" y="951.5" type="curve" smooth="yes"/>
      <point x="718.5" y="813.5"/>
      <point x="605.5" y="767.0"/>
      <point x="486.0" y="767.0" type="curve" smooth="yes"/>
      <point x="437.5" y="767.0"/>
      <point x="386.0" y="772.5"/>
    </contour>
  </outline>
</glyph>
<glyph name="Q" format="2">
  <advance width="1291.0"/>
  <unicode hex="0051"/>
  <anchor x="646.0" y="0.0" name="bottom"/>
  <anchor x="646.0" y="1291.0" name="top"/>
  <outline>
    <contour>
      <point x="1097.5" y="-109.0" type="curve"/>
      <point x="1140.0" y="-71.0"/>
      <point x="1190.0" y="-10.5"/>
      <point x="1218.0" y="38.5" type="curve"/>
      <point x="1142.5" y="66.5"/>
      <point x="1058.0" y="114.5"/>
      <point x="1005.0" y="171.5" type="curve"/>
      <point x="1120.0" y="276.5"/>
      <point x="1159.0" y="452.5"/>
      <point x="1159.0" y="646.5" type="curve" smooth="yes"/>
      <point x="1159.0" y="1027.5"/>
      <point x="992.0" y="1299.0"/>
      <point x="612.5" y="1299.0" type="curve" smooth="yes"/>
      <point x="267.5" y="1299.0"/>
      <point x="75.5" y="1003.0"/>
      <point x="75.5" y="633.0" type="curve" smooth="yes"/>
      <point x="75.5" y="286.0"/>
      <point x="262.5" y="-6.5"/>
      <point x="599.0" y="-6.5" type="curve" smooth="yes"/>
      <point x="736.5" y="-6.5"/>
      <point x="819.5" y="46.0"/>
      <point x="848.5" y="71.0" type="curve"/>
      <point x="882.0" y="32.0"/>
      <point x="1036.5" y="-84.5"/>
    </contour>
    <contour>
      <point x="735.5" y="244.0" type="curve"/>
      <point x="722.5" y="230.5"/>
      <point x="684.5" y="201.5"/>
      <point x="606.5" y="201.5" type="curve" smooth="yes"/>
      <point x="387.5" y="201.5"/>
      <point x="307.0" y="427.5"/>
      <point x="307.0" y="663.5" type="curve" smooth="yes"/>
      <point x="307.0" y="913.5"/>
      <point x="414.0" y="1106.0"/>
      <point x="621.5" y="1106.0" type="curve" smooth="yes"/>
      <point x="851.5" y="1106.0"/>
      <point x="948.0" y="905.0"/>
      <point x="948.0" y="630.5" type="curve" smooth="yes"/>
      <point x="948.0" y="485.5"/>
      <point x="920.0" y="382.5"/>
      <point x="877.5" y="320.5" type="curve"/>
      <point x="816.5" y="383.5"/>
      <point x="762.5" y="489.0"/>
      <point x="732.0" y="558.0" type="curve"/>
      <point x="690.5" y="533.5"/>
      <point x="618.0" y="483.0"/>
      <point x="590.5" y="459.5" type="curve"/>
      <point x="622.0" y="391.0"/>
      <point x="690.0" y="284.5"/>
    </contour>
  </outline>
</glyph>
<glyph name="R" format="2">
  <advance width="1094.0"/>
  <unicode hex="0052"/>
  <anchor x="547.0" y="0.0" name="bottom"/>
  <anchor x="496.5" y="1324.0" name="top"/>
  <outline>
    <contour>
      <point x="160.0" y="-26.5" type="curve"/>
      <point x="242.5" y="-26.5"/>
      <point x="355.5" y="-23.5"/>
      <point x="415.5" y="-11.0" type="curve"/>
      <point x="408.0" y="139.5"/>
      <point x="382.0" y="527.5"/>
      <point x="374.5" y="591.5" type="curve"/>
      <point x="411.0" y="592.0"/>
      <point x="498.0" y="601.0"/>
      <point x="564.5" y="618.5" type="curve"/>
      <point x="606.5" y="522.5"/>
      <point x="734.0" y="152.5"/>
      <point x="765.5" y="-18.0" type="curve"/>
      <point x="785.5" y="-16.5"/>
      <point x="941.5" y="18.5"/>
      <point x="1000.0" y="55.5" type="curve"/>
      <point x="966.5" y="185.0"/>
      <point x="832.5" y="543.0"/>
      <point x="755.5" y="674.0" type="curve"/>
      <point x="883.0" y="728.0"/>
      <point x="952.0" y="859.0"/>
      <point x="952.0" y="996.5" type="curve" smooth="yes"/>
      <point x="952.0" y="1267.5"/>
      <point x="738.5" y="1326.0"/>
      <point x="537.0" y="1326.0" type="curve" smooth="yes"/>
      <point x="404.5" y="1326.0"/>
      <point x="191.5" y="1312.0"/>
      <point x="93.0" y="1303.0" type="curve"/>
      <point x="114.5" y="890.5"/>
      <point x="145.0" y="271.5"/>
    </contour>
    <contour>
      <point x="355.0" y="777.5" type="curve"/>
      <point x="351.5" y="825.5"/>
      <point x="330.5" y="1079.5"/>
      <point x="325.0" y="1137.0" type="curve"/>
      <point x="350.0" y="1140.0"/>
      <point x="466.5" y="1150.0"/>
      <point x="509.5" y="1150.0" type="curve" smooth="yes"/>
      <point x="636.0" y="1150.0"/>
      <point x="738.5" y="1135.0"/>
      <point x="738.5" y="990.0" type="curve" smooth="yes"/>
      <point x="738.5" y="887.5"/>
      <point x="695.5" y="829.0"/>
      <point x="526.0" y="794.0" type="curve" smooth="yes"/>
      <point x="457.0" y="780.5"/>
      <point x="407.5" y="777.5"/>
    </contour>
  </outline>
</glyph>
<glyph name="S" format="2">
  <advance width="1152.0"/>
  <unicode hex="0053"/>
  <anchor x="576.0" y="0.0" name="bottom"/>
  <anchor x="524.0" y="1329.0" name="top"/>
  <outline>
    <contour>
      <point x="564.5" y="-13.5" type="curve" smooth="yes"/>
      <point x="858.5" y="-13.5"/>
      <point x="1044.5" y="181.0"/>
      <point x="1044.5" y="410.0" type="curve" smooth="yes"/>
      <point x="1044.5" y="675.5"/>
      <point x="800.5" y="755.0"/>
      <point x="533.0" y="839.5" type="curve" smooth="yes"/>
      <point x="429.0" y="871.0"/>
      <point x="325.0" y="913.5"/>
      <point x="325.0" y="1012.0" type="curve" smooth="yes"/>
      <point x="325.0" y="1108.0"/>
      <point x="404.5" y="1165.5"/>
      <point x="522.0" y="1165.5" type="curve" smooth="yes"/>
      <point x="679.5" y="1165.5"/>
      <point x="799.5" y="1081.0"/>
      <point x="862.5" y="1015.5" type="curve"/>
      <point x="899.5" y="1048.5"/>
      <point x="972.0" y="1131.0"/>
      <point x="993.0" y="1166.0" type="curve"/>
      <point x="912.5" y="1264.0"/>
      <point x="731.0" y="1349.0"/>
      <point x="530.5" y="1349.0" type="curve" smooth="yes"/>
      <point x="295.0" y="1349.0"/>
      <point x="89.0" y="1236.5"/>
      <point x="89.0" y="1015.5" type="curve" smooth="yes"/>
      <point x="89.0" y="800.5"/>
      <point x="262.0" y="709.5"/>
      <point x="499.0" y="629.0" type="curve" smooth="yes"/>
      <point x="675.5" y="572.5"/>
      <point x="806.0" y="504.5"/>
      <point x="806.0" y="388.5" type="curve" smooth="yes"/>
      <point x="806.0" y="291.0"/>
      <point x="740.0" y="179.5"/>
      <point x="571.5" y="179.5" type="curve" smooth="yes"/>
      <point x="387.5" y="179.5"/>
      <point x="262.0" y="329.0"/>
      <point x="195.0" y="418.0" type="curve"/>
      <point x="150.5" y="394.0"/>
      <point x="46.0" y="303.0"/>
      <point x="29.0" y="279.0" type="curve"/>
      <point x="114.5" y="129.0"/>
      <point x="331.5" y="-13.5"/>
    </contour>
  </outline>
</glyph>
<glyph name="T" format="2">
  <advance width="1039.0"/>
  <unicode hex="0054"/>
  <anchor x="549.0" y="0.0" name="bottom"/>
  <anchor x="520.0" y="646.0" name="center"/>
  <anchor x="520.0" y="1291.0" name="top"/>
  <outline>
    <contour>
      <point x="49.5" y="1105.5" type="curve"/>
      <point x="145.0" y="1108.0"/>
      <point x="307.0" y="1113.5"/>
      <point x="408.0" y="1118.0" type="curve"/>
      <point x="407.5" y="1078.0"/>
      <point x="407.0" y="1026.0"/>
      <point x="407.0" y="966.0" type="curve" smooth="yes"/>
      <point x="407.0" y="676.0"/>
      <point x="416.5" y="184.0"/>
      <point x="426.5" y="-14.0" type="curve"/>
      <point x="485.0" y="-14.0"/>
      <point x="621.0" y="-7.0"/>
      <point x="680.5" y="2.5" type="curve"/>
      <point x="678.0" y="62.5"/>
      <point x="645.5" y="949.0"/>
      <point x="640.5" y="1121.0" type="curve"/>
      <point x="741.0" y="1119.5"/>
      <point x="926.0" y="1117.5"/>
      <point x="980.5" y="1116.0" type="curve"/>
      <point x="988.0" y="1156.0"/>
      <point x="994.0" y="1236.5"/>
      <point x="992.0" y="1316.5" type="curve"/>
      <point x="877.0" y="1331.5"/>
      <point x="734.5" y="1336.5"/>
      <point x="588.5" y="1336.5" type="curve" smooth="yes"/>
      <point x="390.0" y="1336.5"/>
      <point x="185.0" y="1327.0"/>
      <point x="34.0" y="1317.5" type="curve"/>
      <point x="34.0" y="1285.5"/>
      <point x="40.0" y="1152.5"/>
    </contour>
  </outline>
</glyph>
<glyph name="U" format="2">
  <advance width="1212.0"/>
  <unicode hex="0055"/>
  <anchor x="606.0" y="0.0" name="bottom"/>
  <anchor x="769.5" y="0.0" name="ogonek"/>
  <anchor x="606.0" y="1327.0" name="top"/>
  <anchor x="1038.5" y="1174.0" name="topright"/>
  <outline>
    <contour>
      <point x="594.0" y="-35.0" type="curve" smooth="yes"/>
      <point x="1009.0" y="-35.0"/>
      <point x="1087.0" y="361.0"/>
      <point x="1087.0" y="887.5" type="curve" smooth="yes"/>
      <point x="1087.0" y="1033.0"/>
      <point x="1077.0" y="1193.5"/>
      <point x="1060.0" y="1306.0" type="curve"/>
      <point x="1031.0" y="1314.5"/>
      <point x="885.5" y="1329.0"/>
      <point x="804.5" y="1329.0" type="curve"/>
      <point x="823.0" y="1194.5"/>
      <point x="833.0" y="862.5"/>
      <point x="833.0" y="719.0" type="curve" smooth="yes"/>
      <point x="833.0" y="422.5"/>
      <point x="774.0" y="245.0"/>
      <point x="612.5" y="245.0" type="curve" smooth="yes"/>
      <point x="503.0" y="245.0"/>
      <point x="434.5" y="313.5"/>
      <point x="400.0" y="460.5" type="curve" smooth="yes"/>
      <point x="380.0" y="544.5"/>
      <point x="371.5" y="657.0"/>
      <point x="371.5" y="800.5" type="curve" smooth="yes"/>
      <point x="371.5" y="972.5"/>
      <point x="380.0" y="1189.0"/>
      <point x="394.5" y="1348.5" type="curve"/>
      <point x="355.5" y="1353.5"/>
      <point x="301.0" y="1357.5"/>
      <point x="248.0" y="1357.5" type="curve" smooth="yes"/>
      <point x="209.0" y="1357.5"/>
      <point x="165.5" y="1354.0"/>
      <point x="126.0" y="1349.5" type="curve"/>
      <point x="121.5" y="1249.5"/>
      <point x="114.5" y="1073.0"/>
      <point x="114.5" y="947.5" type="curve" smooth="yes"/>
      <point x="114.5" y="676.0"/>
      <point x="123.5" y="454.5"/>
      <point x="175.0" y="293.5" type="curve" smooth="yes"/>
      <point x="237.5" y="85.5"/>
      <point x="362.0" y="-35.0"/>
    </contour>
  </outline>
</glyph>
<glyph name="V" format="2">
  <advance width="1174.5"/>
  <unicode hex="0056"/>
  <anchor x="594.0" y="0.0" name="bottom"/>
  <anchor x="594.0" y="1291.0" name="top"/>
  <outline>
    <contour>
      <point x="614.5" y="-20.5" type="curve" smooth="yes"/>
      <point x="670.0" y="-20.5"/>
      <point x="721.5" y="-19.5"/>
      <point x="752.0" y="-16.0" type="curve"/>
      <point x="769.5" y="41.5"/>
      <point x="958.0" y="623.0"/>
      <point x="1109.5" y="1313.5" type="curve"/>
      <point x="1033.5" y="1343.0"/>
      <point x="925.5" y="1360.0"/>
      <point x="843.5" y="1362.5" type="curve"/>
      <point x="838.5" y="1313.0"/>
      <point x="733.0" y="669.0"/>
      <point x="605.0" y="238.5" type="curve"/>
      <point x="497.5" y="607.5"/>
      <point x="341.5" y="1254.0"/>
      <point x="328.0" y="1360.0" type="curve"/>
      <point x="264.0" y="1360.0"/>
      <point x="124.0" y="1346.0"/>
      <point x="54.5" y="1324.0" type="curve"/>
      <point x="103.5" y="1068.0"/>
      <point x="304.5" y="319.5"/>
      <point x="459.5" y="-10.0" type="curve"/>
      <point x="492.0" y="-16.0"/>
      <point x="555.5" y="-20.5"/>
    </contour>
  </outline>
</glyph>
<glyph name="W" format="2">
  <advance width="1344.0"/>
  <unicode hex="0057"/>
  <anchor x="672.0" y="0.0" name="bottom"/>
  <anchor x="672.0" y="1291.0" name="top"/>
  <outline>
    <contour>
      <point x="835.5" y="-16.0" type="curve"/>
      <point x="1067.0" y="6.5" type="line"/>
      <point x="1091.0" y="90.5"/>
      <point x="1229.0" y="772.5"/>
      <point x="1229.0" y="1371.5" type="curve"/>
      <point x="988.5" y="1347.0" type="line"/>
      <point x="988.5" y="1078.5"/>
      <point x="964.0" y="597.0"/>
      <point x="918.5" y="301.0" type="curve"/>
      <point x="883.0" y="460.5"/>
      <point x="778.5" y="853.5"/>
      <point x="767.5" y="906.5" type="curve"/>
      <point x="594.0" y="894.5" type="line"/>
      <point x="570.5" y="840.0"/>
      <point x="412.0" y="507.5"/>
      <point x="366.0" y="357.0" type="curve"/>
      <point x="354.5" y="672.0"/>
      <point x="359.0" y="1033.5"/>
      <point x="359.0" y="1340.0" type="curve"/>
      <point x="98.5" y="1350.0" type="line"/>
      <point x="98.5" y="865.0"/>
      <point x="147.5" y="385.5"/>
      <point x="185.0" y="6.5" type="curve"/>
      <point x="425.5" y="-2.5" type="line"/>
      <point x="455.0" y="69.0"/>
      <point x="634.0" y="481.5"/>
      <point x="667.0" y="579.0" type="curve"/>
      <point x="695.5" y="471.5"/>
      <point x="791.0" y="137.5"/>
    </contour>
  </outline>
</glyph>
<glyph name="X" format="2">
  <advance width="1183.0"/>
  <unicode hex="0058"/>
  <anchor x="601.0" y="0.0" name="bottom"/>
  <anchor x="601.0" y="1291.0" name="top"/>
  <outline>
    <contour>
      <point x="482.5" y="642.5" type="curve"/>
      <point x="404.5" y="505.5"/>
      <point x="215.5" y="243.0"/>
      <point x="63.0" y="47.5" type="curve"/>
      <point x="162.0" y="14.5"/>
      <point x="228.5" y="-6.5"/>
      <point x="311.0" y="-15.0" type="curve"/>
      <point x="330.5" y="8.0"/>
      <point x="559.0" y="339.0"/>
      <point x="621.5" y="453.0" type="curve"/>
      <point x="737.5" y="266.5"/>
      <point x="826.0" y="84.5"/>
      <point x="875.5" y="-34.5" type="curve"/>
      <point x="941.5" y="-24.0"/>
      <point x="1046.0" y="4.5"/>
      <point x="1110.5" y="45.5" type="curve"/>
      <point x="1046.0" y="174.5"/>
      <point x="839.0" y="529.0"/>
      <point x="740.5" y="661.0" type="curve"/>
      <point x="814.5" y="761.0"/>
      <point x="1021.0" y="1046.5"/>
      <point x="1099.5" y="1232.5" type="curve"/>
      <point x="1059.5" y="1263.0"/>
      <point x="961.5" y="1300.0"/>
      <point x="854.5" y="1318.0" type="curve"/>
      <point x="826.0" y="1230.0"/>
      <point x="730.5" y="1003.5"/>
      <point x="621.0" y="837.5" type="curve"/>
      <point x="520.0" y="1022.0"/>
      <point x="385.0" y="1255.5"/>
      <point x="324.0" y="1337.5" type="curve"/>
      <point x="256.0" y="1327.5"/>
      <point x="122.0" y="1283.5"/>
      <point x="58.0" y="1252.0" type="curve"/>
      <point x="107.0" y="1196.0"/>
      <point x="336.5" y="908.0"/>
    </contour>
  </outline>
</glyph>
<glyph name="Y" format="2">
  <advance width="1065.0"/>
  <unicode hex="0059"/>
  <anchor x="578.0" y="0.0" name="bottom"/>
  <anchor x="578.0" y="1291.0" name="top"/>
  <anchor x="65.0" y="1291.0" name="topleft"/>
  <outline>
    <contour>
      <point x="450.0" y="536.0" type="curve"/>
      <point x="441.0" y="388.0"/>
      <point x="429.5" y="122.5"/>
      <point x="429.5" y="7.0" type="curve"/>
      <point x="466.0" y="0.5"/>
      <point x="518.5" y="-3.5"/>
      <point x="567.0" y="-3.5" type="curve" smooth="yes"/>
      <point x="612.0" y="-3.5"/>
      <point x="655.0" y="0.5"/>
      <point x="671.0" y="5.0" type="curve"/>
      <point x="670.5" y="30.0"/>
      <point x="671.0" y="156.0"/>
      <point x="671.0" y="245.0" type="curve" smooth="yes"/>
      <point x="671.0" y="317.5"/>
      <point x="668.5" y="467.0"/>
      <point x="665.5" y="551.5" type="curve"/>
      <point x="819.5" y="859.0"/>
      <point x="957.0" y="1097.5"/>
      <point x="1043.0" y="1216.5" type="curve"/>
      <point x="989.5" y="1251.0"/>
      <point x="899.0" y="1294.5"/>
      <point x="813.0" y="1306.0" type="curve"/>
      <point x="758.0" y="1207.0"/>
      <point x="587.5" y="864.5"/>
      <point x="547.5" y="781.5" type="curve"/>
      <point x="481.0" y="912.0"/>
      <point x="335.0" y="1255.0"/>
      <point x="312.5" y="1321.5" type="curve"/>
      <point x="252.0" y="1319.0"/>
      <point x="160.5" y="1305.5"/>
      <point x="69.0" y="1271.0" type="curve"/>
      <point x="141.5" y="1099.0"/>
      <point x="363.5" y="659.0"/>
    </contour>
  </outline>
</glyph>
<glyph name="Z" format="2">
  <advance width="1044.0"/>
  <unicode hex="005A"/>
  <anchor x="522.0" y="0.0" name="bottom"/>
  <anchor x="522.0" y="646.0" name="center"/>
  <anchor x="522.0" y="1291.0" name="top"/>
  <outline>
    <contour>
      <point x="904.5" y="-14.0" type="curve"/>
      <point x="909.5" y="7.5"/>
      <point x="916.0" y="64.5"/>
      <point x="917.0" y="119.5" type="curve" smooth="yes"/>
      <point x="918.0" y="165.5"/>
      <point x="916.5" y="213.5"/>
      <point x="914.5" y="241.0" type="curve"/>
      <point x="836.5" y="237.5"/>
      <point x="749.5" y="234.5"/>
      <point x="670.0" y="234.5" type="curve" smooth="yes"/>
      <point x="530.5" y="234.5"/>
      <point x="376.0" y="239.0"/>
      <point x="307.0" y="245.5" type="curve"/>
      <point x="403.5" y="357.5"/>
      <point x="791.0" y="883.5"/>
      <point x="928.0" y="1133.5" type="curve"/>
      <point x="931.0" y="1150.0"/>
      <point x="934.0" y="1192.5"/>
      <point x="934.0" y="1238.0" type="curve" smooth="yes"/>
      <point x="934.0" y="1270.5"/>
      <point x="932.5" y="1305.5"/>
      <point x="928.0" y="1330.0" type="curve"/>
      <point x="892.5" y="1332.0"/>
      <point x="775.5" y="1331.5"/>
      <point x="739.0" y="1331.0" type="curve" smooth="yes"/>
      <point x="546.5" y="1328.0"/>
      <point x="257.0" y="1306.5"/>
      <point x="101.5" y="1294.0" type="curve"/>
      <point x="99.0" y="1271.0"/>
      <point x="97.5" y="1233.5"/>
      <point x="97.5" y="1193.0" type="curve" smooth="yes"/>
      <point x="97.5" y="1157.0"/>
      <point x="99.5" y="1114.0"/>
      <point x="102.0" y="1089.0" type="curve"/>
      <point x="287.5" y="1103.0"/>
      <point x="610.5" y="1123.5"/>
      <point x="680.0" y="1123.5" type="curve"/>
      <point x="602.0" y="985.0"/>
      <point x="212.5" y="435.5"/>
      <point x="43.5" y="242.0" type="curve"/>
      <point x="43.5" y="188.0"/>
      <point x="47.0" y="69.0"/>
      <point x="50.0" y="22.0" type="curve"/>
      <point x="385.5" y="-4.0"/>
      <point x="668.5" y="-14.0"/>
    </contour>
  </outline>
</glyph>
<glyph name="bracketleft" format="2">
  <advance width="735.0"/>
  <unicode hex="005B"/>
  <outline>
    <contour>
      <point x="337.0" y="-526.5" type="curve" smooth="yes"/>
      <point x="456.0" y="-526.5"/>
      <point x="558.5" y="-520.5"/>
      <point x="624.0" y="-513.5" type="curve"/>
      <point x="629.5" y="-477.5"/>
      <point x="638.0" y="-386.5"/>
      <point x="638.0" y="-327.5" type="curve"/>
      <point x="589.0" y="-328.5"/>
      <point x="511.0" y="-328.0"/>
      <point x="448.5" y="-327.0" type="curve" smooth="yes"/>
      <point x="378.5" y="-325.5"/>
      <point x="320.0" y="-324.0"/>
      <point x="301.5" y="-321.5" type="curve"/>
      <point x="288.0" y="-154.5"/>
      <point x="280.0" y="141.0"/>
      <point x="280.0" y="443.0" type="curve" smooth="yes"/>
      <point x="280.0" y="803.0"/>
      <point x="292.5" y="1179.0"/>
      <point x="324.0" y="1434.5" type="curve"/>
      <point x="445.5" y="1445.5"/>
      <point x="625.5" y="1457.0"/>
      <point x="681.5" y="1458.5" type="curve"/>
      <point x="684.5" y="1473.0"/>
      <point x="690.5" y="1506.0"/>
      <point x="695.0" y="1544.5" type="curve" smooth="yes"/>
      <point x="698.0" y="1574.0"/>
      <point x="700.0" y="1604.5"/>
      <point x="699.0" y="1632.0" type="curve"/>
      <point x="511.5" y="1631.0"/>
      <point x="247.0" y="1614.0"/>
      <point x="113.0" y="1588.0" type="curve"/>
      <point x="77.0" y="1362.5"/>
      <point x="53.0" y="964.0"/>
      <point x="53.0" y="529.5" type="curve" smooth="yes"/>
      <point x="53.0" y="176.0"/>
      <point x="67.5" y="-198.5"/>
      <point x="101.0" y="-519.0" type="curve"/>
      <point x="179.5" y="-524.0"/>
      <point x="260.5" y="-526.5"/>
    </contour>
  </outline>
</glyph>
<glyph name="backslash" format="2">
  <advance width="725.0"/>
  <unicode hex="005C"/>
  <outline>
    <contour>
      <point x="735.5" y="-4.5" type="curve"/>
      <point x="521.0" y="362.0"/>
      <point x="268.5" y="1063.0"/>
      <point x="197.5" y="1472.5" type="curve"/>
      <point x="118.0" y="1467.5"/>
      <point x="22.5" y="1442.0"/>
      <point x="-7.0" y="1410.0" type="curve"/>
      <point x="104.5" y="867.0"/>
      <point x="272.0" y="399.0"/>
      <point x="535.5" y="-99.0" type="curve"/>
      <point x="595.0" y="-84.5"/>
      <point x="671.0" y="-50.5"/>
    </contour>
  </outline>
</glyph>
<glyph name="bracketright" format="2">
  <advance width="619.0"/>
  <unicode hex="005D"/>
  <outline>
    <contour>
      <point x="610.0" y="537.5" type="curve" smooth="yes"/>
      <point x="610.0" y="971.0"/>
      <point x="576.0" y="1351.0"/>
      <point x="523.0" y="1615.0" type="curve"/>
      <point x="397.5" y="1635.5"/>
      <point x="272.0" y="1643.0"/>
      <point x="136.0" y="1643.0" type="curve" smooth="yes"/>
      <point x="95.5" y="1643.0"/>
      <point x="40.0" y="1642.5"/>
      <point x="12.0" y="1641.5" type="curve"/>
      <point x="6.0" y="1606.0"/>
      <point x="2.5" y="1542.0"/>
      <point x="2.5" y="1492.5" type="curve"/>
      <point x="8.0" y="1482.0"/>
      <point x="20.5" y="1472.0"/>
      <point x="38.0" y="1463.0" type="curve" smooth="yes"/>
      <point x="119.0" y="1462.0"/>
      <point x="239.5" y="1461.0"/>
      <point x="320.0" y="1452.5" type="curve"/>
      <point x="352.5" y="1294.5"/>
      <point x="374.0" y="921.5"/>
      <point x="374.0" y="539.0" type="curve" smooth="yes"/>
      <point x="374.0" y="235.5"/>
      <point x="360.0" y="-75.5"/>
      <point x="328.0" y="-290.5" type="curve"/>
      <point x="287.0" y="-301.0"/>
      <point x="103.0" y="-317.5"/>
      <point x="26.5" y="-317.5" type="curve"/>
      <point x="25.5" y="-360.5"/>
      <point x="26.5" y="-452.0"/>
      <point x="29.0" y="-502.5" type="curve"/>
      <point x="156.0" y="-502.5"/>
      <point x="387.0" y="-494.0"/>
      <point x="542.0" y="-460.5" type="curve"/>
      <point x="583.0" y="-189.0"/>
      <point x="610.0" y="172.0"/>
    </contour>
  </outline>
</glyph>
<glyph name="asciicircum" format="2">
  <advance width="1032.0"/>
  <unicode hex="005E"/>
  <outline>
    <contour>
      <point x="643.5" y="1325.0" type="curve"/>
      <point x="626.0" y="1330.5"/>
      <point x="589.0" y="1334.0"/>
      <point x="549.5" y="1334.0" type="curve" smooth="yes"/>
      <point x="514.0" y="1334.0"/>
      <point x="476.5" y="1331.0"/>
      <point x="450.5" y="1326.0" type="curve"/>
      <point x="334.5" y="1217.0"/>
      <point x="133.0" y="976.0"/>
      <point x="17.0" y="812.0" type="curve"/>
      <point x="68.5" y="763.0"/>
      <point x="131.5" y="730.0"/>
      <point x="186.0" y="718.0" type="curve"/>
      <point x="254.5" y="828.5"/>
      <point x="460.0" y="1088.5"/>
      <point x="602.0" y="1209.5" type="curve"/>
      <point x="497.0" y="1212.0" type="line"/>
      <point x="599.5" y="1108.5"/>
      <point x="765.5" y="871.0"/>
      <point x="816.5" y="732.5" type="curve"/>
      <point x="898.5" y="749.5"/>
      <point x="958.0" y="773.5"/>
      <point x="993.0" y="805.0" type="curve"/>
      <point x="917.0" y="995.0"/>
      <point x="738.0" y="1227.0"/>
    </contour>
  </outline>
</glyph>
<glyph name="underscore" format="2">
  <advance width="1549.0"/>
  <unicode hex="005F"/>
  <outline>
    <contour>
      <point x="391.0" y="17.5" type="curve" smooth="yes"/>
      <point x="324.5" y="17.5"/>
      <point x="86.5" y="17.5"/>
      <point x="29.0" y="19.5" type="curve"/>
      <point x="32.5" y="-33.5"/>
      <point x="43.0" y="-150.0"/>
      <point x="47.0" y="-179.5" type="curve"/>
      <point x="301.0" y="-185.0"/>
      <point x="827.0" y="-189.5"/>
      <point x="1065.0" y="-189.5" type="curve" smooth="yes"/>
      <point x="1243.5" y="-189.5"/>
      <point x="1367.5" y="-187.0"/>
      <point x="1438.0" y="-184.0" type="curve"/>
      <point x="1446.0" y="-134.5"/>
      <point x="1452.0" y="-49.5"/>
      <point x="1452.0" y="42.0" type="curve"/>
      <point x="1242.0" y="33.5"/>
      <point x="838.5" y="17.5"/>
    </contour>
  </outline>
</glyph>
<glyph name="a" format="2">
  <advance width="1295.0"/>
  <unicode hex="0061"/>
  <anchor x="610.0" y="0.0" name="bottom"/>
  <anchor x="1168.0" y="3.5" name="ogonek"/>
  <anchor x="610.0" y="1063.0" name="top"/>
  <outline>
    <contour>
      <point x="523.5" y="-19.5" type="curve" smooth="yes"/>
      <point x="728.5" y="-19.5"/>
      <point x="882.0" y="67.5"/>
      <point x="920.0" y="142.0" type="curve"/>
      <point x="929.5" y="66.0"/>
      <point x="1014.5" y="-5.5"/>
      <point x="1127.0" y="-5.5" type="curve" smooth="yes"/>
      <point x="1225.0" y="-5.5"/>
      <point x="1303.0" y="50.0"/>
      <point x="1313.0" y="145.5" type="curve"/>
      <point x="1214.0" y="282.5" type="line"/>
      <point x="1208.5" y="227.0"/>
      <point x="1177.5" y="194.5"/>
      <point x="1137.0" y="194.5" type="curve" smooth="yes"/>
      <point x="1100.5" y="194.5"/>
      <point x="1080.0" y="212.0"/>
      <point x="1075.5" y="304.0" type="curve" smooth="yes"/>
      <point x="1071.5" y="371.0"/>
      <point x="1069.0" y="456.0"/>
      <point x="1065.5" y="573.0" type="curve" smooth="yes"/>
      <point x="1060.0" y="690.5"/>
      <point x="1039.0" y="767.5"/>
      <point x="1005.0" y="837.0" type="curve" smooth="yes"/>
      <point x="936.0" y="976.0"/>
      <point x="790.5" y="1065.5"/>
      <point x="562.0" y="1065.5" type="curve" smooth="yes"/>
      <point x="347.0" y="1065.5"/>
      <point x="160.5" y="974.0"/>
      <point x="73.0" y="845.5" type="curve"/>
      <point x="262.0" y="722.0" type="line"/>
      <point x="312.5" y="803.0"/>
      <point x="414.5" y="875.0"/>
      <point x="555.0" y="875.0" type="curve" smooth="yes"/>
      <point x="689.0" y="875.0"/>
      <point x="775.5" y="818.0"/>
      <point x="822.0" y="740.0" type="curve" smooth="yes"/>
      <point x="844.5" y="707.5"/>
      <point x="856.0" y="661.5"/>
      <point x="859.5" y="620.0" type="curve"/>
      <point x="827.5" y="636.5"/>
      <point x="702.0" y="670.0"/>
      <point x="580.0" y="670.0" type="curve" smooth="yes"/>
      <point x="301.5" y="670.0"/>
      <point x="75.0" y="564.0"/>
      <point x="75.0" y="321.0" type="curve" smooth="yes"/>
      <point x="75.0" y="72.5"/>
      <point x="274.5" y="-19.5"/>
    </contour>
    <contour>
      <point x="569.5" y="163.5" type="curve" smooth="yes"/>
      <point x="417.5" y="163.5"/>
      <point x="313.5" y="201.5"/>
      <point x="313.5" y="332.0" type="curve" smooth="yes"/>
      <point x="313.5" y="443.0"/>
      <point x="445.0" y="504.5"/>
      <point x="604.0" y="504.5" type="curve" smooth="yes"/>
      <point x="725.0" y="504.5"/>
      <point x="836.5" y="479.0"/>
      <point x="872.0" y="466.0" type="curve"/>
      <point x="869.5" y="419.0"/>
      <point x="869.5" y="361.0"/>
      <point x="871.5" y="292.5" type="curve"/>
      <point x="811.5" y="224.0"/>
      <point x="687.5" y="163.5"/>
    </contour>
  </outline>
</glyph>
<glyph name="b" format="2">
  <advance width="1200.0"/>
  <unicode hex="0062"/>
  <anchor x="610.0" y="0.0" name="bottom"/>
  <anchor x="610.0" y="1470.0" name="top"/>
  <outline>
    <contour>
      <point x="154.5" y="-12.0" type="curve"/>
      <point x="217.5" y="-18.5"/>
      <point x="319.0" y="-20.0"/>
      <point x="400.5" y="-19.0" type="curve"/>
      <point x="400.0" y="1.5"/>
      <point x="396.5" y="74.5"/>
      <point x="394.0" y="113.5" type="curve"/>
      <point x="430.0" y="74.5"/>
      <point x="527.5" y="3.0"/>
      <point x="679.0" y="3.0" type="curve" smooth="yes"/>
      <point x="928.5" y="3.0"/>
      <point x="1078.5" y="168.0"/>
      <point x="1078.5" y="437.0" type="curve" smooth="yes"/>
      <point x="1078.5" y="735.0"/>
      <point x="933.0" y="920.5"/>
      <point x="691.0" y="920.5" type="curve" smooth="yes"/>
      <point x="536.0" y="920.5"/>
      <point x="403.5" y="812.5"/>
      <point x="359.0" y="765.0" type="curve"/>
      <point x="345.5" y="1016.0"/>
      <point x="339.0" y="1304.5"/>
      <point x="339.0" y="1444.0" type="curve"/>
      <point x="225.5" y="1428.0"/>
      <point x="130.5" y="1412.5"/>
      <point x="112.5" y="1409.0" type="curve"/>
      <point x="112.5" y="1197.0"/>
      <point x="142.5" y="152.0"/>
    </contour>
    <contour>
      <point x="387.5" y="298.5" type="curve"/>
      <point x="385.5" y="329.0"/>
      <point x="372.5" y="531.0"/>
      <point x="371.0" y="563.5" type="curve"/>
      <point x="419.0" y="624.0"/>
      <point x="508.5" y="723.5"/>
      <point x="649.0" y="723.5" type="curve" smooth="yes"/>
      <point x="795.0" y="723.5"/>
      <point x="860.0" y="597.5"/>
      <point x="860.0" y="449.0" type="curve" smooth="yes"/>
      <point x="860.0" y="302.5"/>
      <point x="788.0" y="215.0"/>
      <point x="626.5" y="215.0" type="curve" smooth="yes"/>
      <point x="510.0" y="215.0"/>
      <point x="418.5" y="272.0"/>
    </contour>
  </outline>
</glyph>
<glyph name="c" format="2">
  <advance width="1026.0"/>
  <unicode hex="0063"/>
  <anchor x="513.0" y="0.0" name="bottom"/>
  <anchor x="513.0" y="1063.0" name="top"/>
  <outline>
    <contour>
      <point x="959.5" y="209.0" type="curve"/>
      <point x="796.5" y="373.5" type="line"/>
      <point x="783.5" y="352.5"/>
      <point x="695.0" y="233.0"/>
      <point x="541.0" y="233.0" type="curve" smooth="yes"/>
      <point x="350.0" y="233.0"/>
      <point x="280.5" y="409.0"/>
      <point x="280.5" y="585.0" type="curve" smooth="yes"/>
      <point x="280.5" y="775.5"/>
      <point x="375.5" y="904.5"/>
      <point x="548.5" y="904.5" type="curve" smooth="yes"/>
      <point x="708.5" y="904.5"/>
      <point x="758.5" y="794.0"/>
      <point x="769.5" y="766.0" type="curve"/>
      <point x="934.5" y="867.5" type="line"/>
      <point x="867.5" y="995.5"/>
      <point x="730.0" y="1095.0"/>
      <point x="544.0" y="1095.0" type="curve" smooth="yes"/>
      <point x="232.0" y="1095.0"/>
      <point x="52.0" y="861.5"/>
      <point x="52.0" y="540.5" type="curve" smooth="yes"/>
      <point x="52.0" y="242.5"/>
      <point x="234.5" y="-8.0"/>
      <point x="532.0" y="-8.0" type="curve" smooth="yes"/>
      <point x="754.5" y="-8.0"/>
      <point x="906.5" y="109.0"/>
    </contour>
  </outline>
</glyph>
<glyph name="d" format="2">
  <advance width="1195.0"/>
  <unicode hex="0064"/>
  <anchor x="598.0" y="0.0" name="bottom"/>
  <anchor x="861.5" y="1205.5" name="center"/>
  <anchor x="598.0" y="1470.0" name="top"/>
  <anchor x="1105.0" y="1034.0" name="topright"/>
  <outline>
    <contour>
      <point x="833.0" y="3.0" type="curve"/>
      <point x="877.5" y="-1.5"/>
      <point x="1003.5" y="-3.5"/>
      <point x="1040.0" y="-3.5" type="curve"/>
      <point x="1040.0" y="496.0"/>
      <point x="1047.0" y="948.0"/>
      <point x="1083.0" y="1412.5" type="curve"/>
      <point x="1027.5" y="1425.5"/>
      <point x="943.5" y="1432.0"/>
      <point x="882.5" y="1432.0" type="curve"/>
      <point x="875.0" y="1366.5"/>
      <point x="845.0" y="1002.0"/>
      <point x="838.5" y="844.5" type="curve"/>
      <point x="798.5" y="890.0"/>
      <point x="677.0" y="959.0"/>
      <point x="507.0" y="959.0" type="curve" smooth="yes"/>
      <point x="207.5" y="959.0"/>
      <point x="58.5" y="725.5"/>
      <point x="58.5" y="467.5" type="curve" smooth="yes"/>
      <point x="58.5" y="195.0"/>
      <point x="211.5" y="2.5"/>
      <point x="475.5" y="2.5" type="curve" smooth="yes"/>
      <point x="705.5" y="2.5"/>
      <point x="806.0" y="125.5"/>
      <point x="830.0" y="161.5" type="curve"/>
      <point x="830.0" y="129.0"/>
      <point x="831.0" y="35.0"/>
    </contour>
    <contour>
      <point x="535.0" y="222.0" type="curve" smooth="yes"/>
      <point x="370.0" y="222.0"/>
      <point x="278.5" y="311.5"/>
      <point x="278.5" y="484.0" type="curve" smooth="yes"/>
      <point x="278.5" y="651.5"/>
      <point x="373.0" y="760.5"/>
      <point x="543.5" y="760.5" type="curve" smooth="yes"/>
      <point x="667.5" y="760.5"/>
      <point x="782.5" y="701.5"/>
      <point x="828.0" y="660.5" type="curve"/>
      <point x="826.0" y="610.0"/>
      <point x="824.5" y="439.0"/>
      <point x="824.5" y="379.0" type="curve"/>
      <point x="791.0" y="329.5"/>
      <point x="697.5" y="222.0"/>
    </contour>
  </outline>
</glyph>
<glyph name="e" format="2">
  <advance width="1107.5"/>
  <unicode hex="0065"/>
  <anchor x="564.0" y="10.0" name="bottom"/>
  <anchor x="756.5" y="33.5" name="ogonek"/>
  <anchor x="609.5" y="1066.5" name="top"/>
  <outline>
    <contour>
      <point x="1042.0" y="208.0" type="curve"/>
      <point x="1014.0" y="272.5"/>
      <point x="911.5" y="374.0"/>
      <point x="894.5" y="387.5" type="curve"/>
      <point x="851.5" y="343.5"/>
      <point x="762.0" y="225.0"/>
      <point x="590.0" y="225.0" type="curve" smooth="yes"/>
      <point x="463.0" y="225.0"/>
      <point x="346.5" y="291.0"/>
      <point x="315.0" y="400.5" type="curve" smooth="yes"/>
      <point x="307.5" y="427.5"/>
      <point x="302.5" y="458.0"/>
      <point x="302.0" y="489.5" type="curve"/>
      <point x="399.5" y="504.5"/>
      <point x="539.0" y="519.5"/>
      <point x="667.5" y="519.5" type="curve" smooth="yes"/>
      <point x="761.0" y="519.5"/>
      <point x="988.5" y="512.0"/>
      <point x="1024.5" y="510.0" type="curve"/>
      <point x="1029.5" y="553.5"/>
      <point x="1030.5" y="590.5"/>
      <point x="1028.5" y="635.0" type="curve" smooth="yes"/>
      <point x="1015.0" y="900.0"/>
      <point x="861.0" y="1066.5"/>
      <point x="599.5" y="1066.5" type="curve" smooth="yes"/>
      <point x="287.5" y="1066.5"/>
      <point x="69.0" y="854.5"/>
      <point x="69.0" y="526.5" type="curve" smooth="yes"/>
      <point x="69.0" y="188.5"/>
      <point x="272.5" y="5.5"/>
      <point x="574.5" y="5.5" type="curve" smooth="yes"/>
      <point x="829.0" y="5.5"/>
      <point x="981.0" y="127.5"/>
    </contour>
    <contour>
      <point x="307.5" y="641.0" type="curve"/>
      <point x="313.0" y="798.5"/>
      <point x="429.5" y="907.5"/>
      <point x="588.5" y="907.5" type="curve" smooth="yes"/>
      <point x="721.0" y="907.5"/>
      <point x="789.0" y="813.0"/>
      <point x="810.0" y="725.0" type="curve" smooth="yes"/>
      <point x="815.0" y="703.0"/>
      <point x="817.5" y="681.5"/>
      <point x="817.5" y="663.0" type="curve"/>
      <point x="794.0" y="664.5"/>
      <point x="735.0" y="667.5"/>
      <point x="656.5" y="667.5" type="curve" smooth="yes"/>
      <point x="507.0" y="667.5"/>
      <point x="391.5" y="654.5"/>
    </contour>
  </outline>
</glyph>
<glyph name="f" format="2">
  <advance width="896.0"/>
  <unicode hex="0066"/>
  <anchor x="448.0" y="0.0" name="bottom"/>
  <anchor x="448.0" y="1470.0" name="top"/>
  <outline>
    <contour>
      <point x="279.5" y="-6.5" type="curve"/>
      <point x="352.0" y="-6.0"/>
      <point x="476.0" y="0.0"/>
      <point x="537.5" y="11.5" type="curve"/>
      <point x="526.0" y="52.5"/>
      <point x="459.5" y="399.0"/>
      <point x="440.0" y="529.0" type="curve"/>
      <point x="528.0" y="539.5"/>
      <point x="681.5" y="548.0"/>
      <point x="700.5" y="548.0" type="curve"/>
      <point x="700.5" y="607.5"/>
      <point x="697.5" y="690.5"/>
      <point x="690.5" y="743.5" type="curve"/>
      <point x="634.5" y="746.5"/>
      <point x="477.0" y="739.5"/>
      <point x="412.5" y="734.5" type="curve"/>
      <point x="404.5" y="780.0"/>
      <point x="399.0" y="844.5"/>
      <point x="399.0" y="890.0" type="curve" smooth="yes"/>
      <point x="399.0" y="1019.0"/>
      <point x="438.0" y="1132.5"/>
      <point x="564.5" y="1132.5" type="curve" smooth="yes"/>
      <point x="674.0" y="1132.5"/>
      <point x="739.5" y="1013.0"/>
      <point x="763.5" y="972.0" type="curve"/>
      <point x="788.0" y="1001.0"/>
      <point x="859.5" y="1103.5"/>
      <point x="891.5" y="1159.5" type="curve"/>
      <point x="862.5" y="1216.0"/>
      <point x="764.5" y="1362.5"/>
      <point x="544.5" y="1362.5" type="curve" smooth="yes"/>
      <point x="288.5" y="1362.5"/>
      <point x="169.0" y="1151.5"/>
      <point x="169.0" y="910.5" type="curve" smooth="yes"/>
      <point x="169.0" y="844.5"/>
      <point x="175.5" y="769.0"/>
      <point x="184.5" y="699.0" type="curve"/>
      <point x="158.5" y="694.0"/>
      <point x="43.5" y="666.5"/>
      <point x="19.0" y="657.0" type="curve"/>
      <point x="20.5" y="588.0"/>
      <point x="31.0" y="502.5"/>
      <point x="47.0" y="452.5" type="curve"/>
      <point x="88.0" y="467.5"/>
      <point x="161.0" y="486.5"/>
      <point x="201.0" y="494.0" type="curve"/>
      <point x="226.5" y="296.5"/>
      <point x="273.5" y="28.5"/>
    </contour>
  </outline>
</glyph>
<glyph name="g" format="2">
  <advance width="1231.0"/>
  <unicode hex="0067"/>
  <anchor x="616.0" y="-530.0" name="bottom"/>
  <anchor x="616.0" y="1063.0" name="top"/>
  <outline>
    <contour>
      <point x="645.0" y="239.5" type="curve" smooth="yes"/>
      <point x="905.0" y="239.5"/>
      <point x="1090.0" y="389.5"/>
      <point x="1090.0" y="660.0" type="curve" smooth="yes"/>
      <point x="1090.0" y="748.5"/>
      <point x="1068.0" y="824.0"/>
      <point x="1026.0" y="883.5" type="curve"/>
      <point x="1067.5" y="934.0"/>
      <point x="1130.0" y="986.5"/>
      <point x="1166.0" y="1006.5" type="curve"/>
      <point x="1136.0" y="1041.5"/>
      <point x="1072.0" y="1128.0"/>
      <point x="1050.0" y="1160.5" type="curve"/>
      <point x="996.5" y="1128.0"/>
      <point x="929.5" y="1060.5"/>
      <point x="888.0" y="996.5" type="curve"/>
      <point x="818.5" y="1035.0"/>
      <point x="729.0" y="1056.0"/>
      <point x="623.0" y="1056.0" type="curve" smooth="yes"/>
      <point x="345.0" y="1056.0"/>
      <point x="132.5" y="910.0"/>
      <point x="132.5" y="649.5" type="curve" smooth="yes"/>
      <point x="132.5" y="550.0"/>
      <point x="162.5" y="451.5"/>
      <point x="235.5" y="376.0" type="curve"/>
      <point x="183.5" y="349.0"/>
      <point x="142.5" y="294.5"/>
      <point x="142.5" y="229.5" type="curve" smooth="yes"/>
      <point x="142.5" y="175.0"/>
      <point x="173.5" y="122.0"/>
      <point x="247.5" y="84.0" type="curve"/>
      <point x="126.5" y="30.5"/>
      <point x="57.0" y="-65.0"/>
      <point x="57.0" y="-174.0" type="curve" smooth="yes"/>
      <point x="57.0" y="-428.0"/>
      <point x="293.0" y="-499.0"/>
      <point x="596.0" y="-499.0" type="curve" smooth="yes"/>
      <point x="909.0" y="-499.0"/>
      <point x="1125.5" y="-398.0"/>
      <point x="1125.5" y="-140.5" type="curve" smooth="yes"/>
      <point x="1125.5" y="54.0"/>
      <point x="972.5" y="139.5"/>
      <point x="760.5" y="139.5" type="curve" smooth="yes"/>
      <point x="650.5" y="139.5"/>
      <point x="554.5" y="137.5"/>
      <point x="462.5" y="134.5" type="curve"/>
      <point x="384.5" y="138.0"/>
      <point x="337.0" y="182.0"/>
      <point x="337.0" y="225.5" type="curve" smooth="yes"/>
      <point x="337.0" y="249.5"/>
      <point x="351.5" y="274.5"/>
      <point x="385.0" y="293.5" type="curve"/>
      <point x="452.0" y="259.5"/>
      <point x="537.5" y="239.5"/>
    </contour>
    <contour>
      <point x="608.5" y="-346.5" type="curve" smooth="yes"/>
      <point x="438.0" y="-346.5"/>
      <point x="299.5" y="-307.0"/>
      <point x="299.5" y="-183.5" type="curve" smooth="yes"/>
      <point x="299.5" y="-66.0"/>
      <point x="391.5" y="-36.0"/>
      <point x="472.5" y="-36.0" type="curve" smooth="yes"/>
      <point x="695.0" y="-36.0" type="line" smooth="yes"/>
      <point x="787.0" y="-36.0"/>
      <point x="897.5" y="-63.5"/>
      <point x="897.5" y="-174.5" type="curve" smooth="yes"/>
      <point x="897.5" y="-303.0"/>
      <point x="768.0" y="-346.5"/>
    </contour>
    <contour>
      <point x="621.5" y="424.0" type="curve" smooth="yes"/>
      <point x="476.0" y="424.0"/>
      <point x="375.0" y="512.5"/>
      <point x="375.0" y="656.5" type="curve" smooth="yes"/>
      <point x="375.0" y="814.0"/>
      <point x="491.0" y="874.0"/>
      <point x="637.0" y="874.0" type="curve" smooth="yes"/>
      <point x="772.5" y="874.0"/>
      <point x="873.0" y="785.0"/>
      <point x="873.0" y="662.5" type="curve" smooth="yes"/>
      <point x="873.0" y="520.0"/>
      <point x="794.0" y="424.0"/>
    </contour>
  </outline>
</glyph>
<glyph name="h" format="2">
  <advance width="1123.0"/>
  <unicode hex="0068"/>
  <anchor x="567.0" y="0.0" name="bottom"/>
  <anchor x="336.5" y="1227.0" name="center"/>
  <anchor x="212.0" y="1419.5" name="top"/>
  <outline>
    <contour>
      <point x="344.5" y="-17.0" type="curve"/>
      <point x="360.5" y="78.5"/>
      <point x="376.5" y="322.0"/>
      <point x="376.5" y="538.5" type="curve"/>
      <point x="400.0" y="575.0"/>
      <point x="511.0" y="703.5"/>
      <point x="641.0" y="703.5" type="curve" smooth="yes"/>
      <point x="757.0" y="703.5"/>
      <point x="788.5" y="611.0"/>
      <point x="788.5" y="467.0" type="curve" smooth="yes"/>
      <point x="788.5" y="338.0"/>
      <point x="761.5" y="125.0"/>
      <point x="742.5" y="-1.0" type="curve"/>
      <point x="774.5" y="-7.0"/>
      <point x="817.5" y="-11.0"/>
      <point x="860.0" y="-11.0" type="curve" smooth="yes"/>
      <point x="899.5" y="-11.0"/>
      <point x="939.5" y="-8.5"/>
      <point x="975.0" y="-3.5" type="curve"/>
      <point x="996.0" y="147.5"/>
      <point x="1017.0" y="356.0"/>
      <point x="1017.0" y="510.5" type="curve" smooth="yes"/>
      <point x="1017.0" y="758.0"/>
      <point x="949.5" y="911.0"/>
      <point x="722.5" y="911.0" type="curve" smooth="yes"/>
      <point x="585.5" y="911.0"/>
      <point x="445.0" y="836.0"/>
      <point x="377.0" y="754.0" type="curve"/>
      <point x="372.5" y="1025.0"/>
      <point x="354.5" y="1292.0"/>
      <point x="324.0" y="1443.0" type="curve"/>
      <point x="280.0" y="1442.0"/>
      <point x="126.5" y="1418.0"/>
      <point x="107.0" y="1411.0" type="curve"/>
      <point x="120.0" y="1204.0"/>
      <point x="133.5" y="921.0"/>
      <point x="133.5" y="658.0" type="curve" smooth="yes"/>
      <point x="133.5" y="380.5"/>
      <point x="119.5" y="122.5"/>
      <point x="103.5" y="-11.5" type="curve"/>
      <point x="125.0" y="-19.0"/>
      <point x="176.0" y="-22.5"/>
      <point x="227.0" y="-22.5" type="curve" smooth="yes"/>
      <point x="272.5" y="-22.5"/>
      <point x="318.5" y="-20.5"/>
    </contour>
  </outline>
</glyph>
<glyph name="i" format="2">
  <advance width="610.0"/>
  <unicode hex="0069"/>
  <anchor x="288.5" y="0.0" name="bottom"/>
  <outline>
    <contour>
      <point x="392.5" y="0.0" type="curve"/>
      <point x="409.5" y="88.0"/>
      <point x="421.5" y="455.0"/>
      <point x="421.5" y="701.5" type="curve" smooth="yes"/>
      <point x="421.5" y="801.0"/>
      <point x="418.0" y="886.0"/>
      <point x="413.0" y="924.5" type="curve"/>
      <point x="366.5" y="924.5"/>
      <point x="231.0" y="918.5"/>
      <point x="193.0" y="915.5" type="curve"/>
      <point x="193.0" y="710.0"/>
      <point x="161.5" y="88.5"/>
      <point x="146.5" y="1.5" type="curve"/>
      <point x="184.0" y="-3.5"/>
      <point x="225.0" y="-6.0"/>
      <point x="267.0" y="-6.0" type="curve" smooth="yes"/>
      <point x="318.0" y="-6.0"/>
      <point x="371.5" y="-2.0"/>
    </contour>
    <contour>
      <point x="314.5" y="1071.5" type="curve" smooth="yes"/>
      <point x="402.0" y="1071.5"/>
      <point x="462.5" y="1140.0"/>
      <point x="462.5" y="1225.0" type="curve" smooth="yes"/>
      <point x="462.5" y="1319.5"/>
      <point x="399.5" y="1389.5"/>
      <point x="308.0" y="1389.5" type="curve" smooth="yes"/>
      <point x="222.5" y="1389.5"/>
      <point x="145.0" y="1331.5"/>
      <point x="145.0" y="1231.5" type="curve" smooth="yes"/>
      <point x="145.0" y="1138.0"/>
      <point x="214.0" y="1071.5"/>
    </contour>
  </outline>
</glyph>
<glyph name="j" format="2">
  <advance width="663.5"/>
  <unicode hex="006A"/>
  <outline>
    <contour>
      <point x="540.5" y="203.0" type="curve" smooth="yes"/>
      <point x="540.5" y="452.5"/>
      <point x="493.0" y="781.0"/>
      <point x="455.5" y="940.0" type="curve"/>
      <point x="207.5" y="926.5" type="line"/>
      <point x="252.5" y="706.0"/>
      <point x="290.0" y="406.5"/>
      <point x="290.0" y="184.5" type="curve" smooth="yes"/>
      <point x="290.0" y="-18.0"/>
      <point x="265.5" y="-283.5"/>
      <point x="123.0" y="-283.5" type="curve" smooth="yes"/>
      <point x="16.5" y="-283.5"/>
      <point x="-56.0" y="-178.5"/>
      <point x="-88.5" y="-84.5" type="curve"/>
      <point x="-148.0" y="-106.5"/>
      <point x="-260.0" y="-152.0"/>
      <point x="-320.5" y="-197.0" type="curve"/>
      <point x="-261.0" y="-374.0"/>
      <point x="-77.5" y="-494.0"/>
      <point x="125.5" y="-494.0" type="curve" smooth="yes"/>
      <point x="437.5" y="-494.0"/>
      <point x="540.5" y="-224.5"/>
    </contour>
    <contour>
      <point x="284.0" y="1397.0" type="curve" smooth="yes"/>
      <point x="187.0" y="1397.0"/>
      <point x="114.0" y="1324.0"/>
      <point x="114.0" y="1228.5" type="curve" smooth="yes"/>
      <point x="114.0" y="1137.0"/>
      <point x="194.0" y="1078.5"/>
      <point x="280.0" y="1078.5" type="curve" smooth="yes"/>
      <point x="371.5" y="1078.5"/>
      <point x="452.5" y="1149.0"/>
      <point x="452.5" y="1239.0" type="curve" smooth="yes"/>
      <point x="452.5" y="1322.5"/>
      <point x="381.5" y="1397.0"/>
    </contour>
  </outline>
</glyph>
<glyph name="k" format="2">
  <advance width="1156.0"/>
  <unicode hex="006B"/>
  <anchor x="588.0" y="0.0" name="bottom"/>
  <anchor x="588.0" y="1470.0" name="top"/>
  <outline>
    <contour>
      <point x="878.5" y="-46.0" type="curve"/>
      <point x="921.0" y="-34.0"/>
      <point x="1069.0" y="24.0"/>
      <point x="1097.5" y="42.0" type="curve"/>
      <point x="969.0" y="251.5"/>
      <point x="739.5" y="518.0"/>
      <point x="662.5" y="575.0" type="curve"/>
      <point x="745.0" y="638.5"/>
      <point x="981.0" y="781.5"/>
      <point x="1077.5" y="838.0" type="curve"/>
      <point x="1053.0" y="880.5"/>
      <point x="983.5" y="978.0"/>
      <point x="948.5" y="1014.5" type="curve"/>
      <point x="816.0" y="933.5"/>
      <point x="524.5" y="759.0"/>
      <point x="375.0" y="606.0" type="curve"/>
      <point x="383.5" y="723.0"/>
      <point x="400.5" y="1183.5"/>
      <point x="400.5" y="1437.0" type="curve"/>
      <point x="364.0" y="1447.5"/>
      <point x="319.0" y="1452.0"/>
      <point x="271.5" y="1452.0" type="curve" smooth="yes"/>
      <point x="236.5" y="1452.0"/>
      <point x="200.5" y="1450.0"/>
      <point x="169.0" y="1447.5" type="curve"/>
      <point x="169.0" y="1254.0"/>
      <point x="116.5" y="85.0"/>
      <point x="109.0" y="-25.0" type="curve"/>
      <point x="142.5" y="-29.5"/>
      <point x="187.5" y="-33.5"/>
      <point x="235.5" y="-33.5" type="curve" smooth="yes"/>
      <point x="273.0" y="-33.5"/>
      <point x="311.5" y="-31.0"/>
      <point x="347.5" y="-26.5" type="curve"/>
      <point x="352.0" y="30.0"/>
      <point x="363.0" y="230.5"/>
      <point x="365.5" y="346.0" type="curve"/>
      <point x="380.5" y="361.5"/>
      <point x="459.0" y="425.0"/>
      <point x="494.0" y="451.0" type="curve"/>
      <point x="589.0" y="382.0"/>
      <point x="814.5" y="71.0"/>
    </contour>
  </outline>
</glyph>
<glyph name="l" format="2">
  <advance width="645.0"/>
  <unicode hex="006C"/>
  <anchor x="318.0" y="0.0" name="bottom"/>
  <anchor x="318.0" y="735.0" name="center"/>
  <anchor x="318.0" y="1470.0" name="top"/>
  <anchor x="416.0" y="1029.5" name="topright"/>
  <outline>
    <contour>
      <point x="629.0" y="58.5" type="curve"/>
      <point x="620.5" y="79.0"/>
      <point x="556.0" y="218.5"/>
      <point x="539.5" y="243.0" type="curve"/>
      <point x="519.0" y="204.0"/>
      <point x="493.0" y="177.0"/>
      <point x="442.0" y="177.0" type="curve" smooth="yes"/>
      <point x="344.5" y="177.0"/>
      <point x="331.0" y="319.5"/>
      <point x="331.0" y="463.5" type="curve" smooth="yes"/>
      <point x="331.0" y="671.0"/>
      <point x="356.5" y="1169.5"/>
      <point x="371.5" y="1426.0" type="curve"/>
      <point x="327.0" y="1430.5"/>
      <point x="288.5" y="1433.0"/>
      <point x="248.0" y="1433.0" type="curve" smooth="yes"/>
      <point x="219.5" y="1433.0"/>
      <point x="182.5" y="1431.5"/>
      <point x="148.0" y="1429.0" type="curve"/>
      <point x="135.5" y="1187.5"/>
      <point x="116.0" y="746.0"/>
      <point x="116.0" y="431.5" type="curve" smooth="yes"/>
      <point x="116.0" y="154.5"/>
      <point x="153.5" y="-37.5"/>
      <point x="388.5" y="-37.5" type="curve" smooth="yes"/>
      <point x="503.5" y="-37.5"/>
      <point x="596.0" y="16.0"/>
    </contour>
  </outline>
</glyph>
<glyph name="m" format="2">
  <advance width="1858.0"/>
  <unicode hex="006D"/>
  <anchor x="929.0" y="0.0" name="bottom"/>
  <anchor x="929.0" y="1063.0" name="top"/>
  <outline>
    <contour>
      <point x="165.0" y="-8.5" type="curve"/>
      <point x="196.0" y="-13.0"/>
      <point x="264.0" y="-16.5"/>
      <point x="326.5" y="-16.5" type="curve" smooth="yes"/>
      <point x="353.5" y="-16.5"/>
      <point x="398.5" y="-14.5"/>
      <point x="411.0" y="-13.5" type="curve"/>
      <point x="406.0" y="27.0"/>
      <point x="384.0" y="266.0"/>
      <point x="372.0" y="585.5" type="curve"/>
      <point x="386.0" y="679.0"/>
      <point x="504.0" y="831.0"/>
      <point x="639.5" y="831.0" type="curve" smooth="yes"/>
      <point x="823.5" y="831.0"/>
      <point x="845.0" y="553.0"/>
      <point x="845.0" y="245.5" type="curve" smooth="yes"/>
      <point x="845.0" y="162.0"/>
      <point x="844.0" y="82.0"/>
      <point x="844.0" y="-7.0" type="curve"/>
      <point x="866.0" y="-11.0"/>
      <point x="917.0" y="-13.0"/>
      <point x="964.0" y="-13.0" type="curve" smooth="yes"/>
      <point x="1003.5" y="-13.0"/>
      <point x="1045.0" y="-11.0"/>
      <point x="1067.5" y="-9.0" type="curve"/>
      <point x="1067.5" y="68.5"/>
      <point x="1069.5" y="147.0"/>
      <point x="1071.5" y="219.0" type="curve" smooth="yes"/>
      <point x="1078.0" y="539.0"/>
      <point x="1114.0" y="834.5"/>
      <point x="1340.5" y="834.5" type="curve" smooth="yes"/>
      <point x="1465.5" y="834.5"/>
      <point x="1515.0" y="712.0"/>
      <point x="1515.0" y="483.0" type="curve" smooth="yes"/>
      <point x="1515.0" y="352.0"/>
      <point x="1497.5" y="183.0"/>
      <point x="1471.5" y="-14.5" type="curve"/>
      <point x="1513.0" y="-18.5"/>
      <point x="1555.0" y="-20.0"/>
      <point x="1594.5" y="-20.0" type="curve" smooth="yes"/>
      <point x="1633.5" y="-20.0"/>
      <point x="1674.0" y="-18.0"/>
      <point x="1711.0" y="-14.5" type="curve"/>
      <point x="1721.5" y="109.5"/>
      <point x="1733.0" y="279.0"/>
      <point x="1733.0" y="417.5" type="curve" smooth="yes"/>
      <point x="1733.0" y="798.0"/>
      <point x="1663.0" y="1045.5"/>
      <point x="1362.5" y="1045.5" type="curve" smooth="yes"/>
      <point x="1138.0" y="1045.5"/>
      <point x="1011.5" y="872.0"/>
      <point x="974.0" y="696.5" type="curve"/>
      <point x="971.0" y="736.5"/>
      <point x="965.0" y="779.5"/>
      <point x="952.5" y="821.0" type="curve" smooth="yes"/>
      <point x="916.5" y="933.5"/>
      <point x="840.5" y="1034.5"/>
      <point x="693.5" y="1034.5" type="curve" smooth="yes"/>
      <point x="480.0" y="1034.5"/>
      <point x="379.0" y="884.5"/>
      <point x="360.0" y="829.5" type="curve"/>
      <point x="360.0" y="857.5"/>
      <point x="356.0" y="984.5"/>
      <point x="354.0" y="1027.0" type="curve"/>
      <point x="304.0" y="1026.5"/>
      <point x="177.0" y="1010.0"/>
      <point x="129.0" y="996.0" type="curve"/>
      <point x="129.0" y="757.0"/>
      <point x="143.0" y="223.5"/>
    </contour>
  </outline>
</glyph>
<glyph name="n" format="2">
  <advance width="1330.0"/>
  <unicode hex="006E"/>
  <anchor x="680.0" y="0.0" name="bottom"/>
  <anchor x="680.0" y="1063.0" name="top"/>
  <outline>
    <contour>
      <point x="355.0" y="-13.0" type="curve"/>
      <point x="368.5" y="101.0"/>
      <point x="392.0" y="353.0"/>
      <point x="398.0" y="683.0" type="curve"/>
      <point x="465.0" y="744.5"/>
      <point x="594.0" y="843.5"/>
      <point x="756.0" y="843.5" type="curve" smooth="yes"/>
      <point x="921.5" y="843.5"/>
      <point x="954.5" y="714.5"/>
      <point x="954.5" y="520.0" type="curve" smooth="yes"/>
      <point x="954.5" y="353.5"/>
      <point x="927.5" y="147.5"/>
      <point x="903.0" y="-3.0" type="curve"/>
      <point x="928.0" y="-6.5"/>
      <point x="979.0" y="-8.0"/>
      <point x="1029.5" y="-8.0" type="curve" smooth="yes"/>
      <point x="1079.0" y="-8.0"/>
      <point x="1128.0" y="-6.0"/>
      <point x="1150.0" y="-3.0" type="curve"/>
      <point x="1172.0" y="187.5"/>
      <point x="1183.5" y="387.0"/>
      <point x="1183.5" y="521.5" type="curve" smooth="yes"/>
      <point x="1183.5" y="876.0"/>
      <point x="1117.5" y="1060.0"/>
      <point x="813.5" y="1060.0" type="curve" smooth="yes"/>
      <point x="645.0" y="1060.0"/>
      <point x="469.0" y="955.5"/>
      <point x="402.0" y="876.5" type="curve"/>
      <point x="403.0" y="929.5"/>
      <point x="403.0" y="1018.0"/>
      <point x="401.5" y="1038.5" type="curve"/>
      <point x="375.0" y="1043.0"/>
      <point x="337.5" y="1044.5"/>
      <point x="301.0" y="1044.5" type="curve" smooth="yes"/>
      <point x="246.0" y="1044.5"/>
      <point x="190.5" y="1040.5"/>
      <point x="152.0" y="1035.0" type="curve"/>
      <point x="152.0" y="519.0"/>
      <point x="138.5" y="216.5"/>
      <point x="113.5" y="-6.5" type="curve"/>
      <point x="135.5" y="-9.5"/>
      <point x="194.5" y="-12.0"/>
      <point x="233.5" y="-13.0" type="curve" smooth="yes"/>
      <point x="278.0" y="-14.0"/>
      <point x="324.0" y="-13.5"/>
    </contour>
  </outline>
</glyph>
<glyph name="o" format="2">
  <advance width="1171.0"/>
  <unicode hex="006F"/>
  <anchor x="595.0" y="0.0" name="bottom"/>
  <anchor x="595.0" y="532.0" name="center"/>
  <anchor x="762.0" y="0.0" name="ogonek"/>
  <anchor x="595.0" y="1063.0" name="top"/>
  <anchor x="889.0" y="941.0" name="topright"/>
  <outline>
    <contour>
      <point x="600.5" y="-28.0" type="curve" smooth="yes"/>
      <point x="909.0" y="-28.0"/>
      <point x="1087.0" y="169.0"/>
      <point x="1087.0" y="473.0" type="curve" smooth="yes"/>
      <point x="1087.0" y="825.0"/>
      <point x="932.0" y="1067.5"/>
      <point x="605.5" y="1067.5" type="curve" smooth="yes"/>
      <point x="293.0" y="1067.5"/>
      <point x="81.5" y="881.5"/>
      <point x="81.5" y="532.0" type="curve" smooth="yes"/>
      <point x="81.5" y="169.5"/>
      <point x="249.5" y="-28.0"/>
    </contour>
    <contour>
      <point x="591.5" y="187.0" type="curve" smooth="yes"/>
      <point x="409.0" y="187.0"/>
      <point x="312.5" y="332.5"/>
      <point x="312.5" y="539.5" type="curve" smooth="yes"/>
      <point x="312.5" y="735.5"/>
      <point x="404.0" y="887.5"/>
      <point x="593.5" y="887.5" type="curve" smooth="yes"/>
      <point x="779.5" y="887.5"/>
      <point x="870.5" y="729.5"/>
      <point x="870.5" y="509.5" type="curve" smooth="yes"/>
      <point x="870.5" y="341.0"/>
      <point x="785.5" y="187.0"/>
    </contour>
  </outline>
</glyph>
<glyph name="p" format="2">
  <advance width="1214.0"/>
  <unicode hex="0070"/>
  <anchor x="600.0" y="0.0" name="bottom"/>
  <anchor x="600.0" y="1063.0" name="top"/>
  <outline>
    <contour>
      <point x="69.0" y="-442.0" type="curve"/>
      <point x="116.5" y="-442.0"/>
      <point x="225.5" y="-437.5"/>
      <point x="307.0" y="-421.0" type="curve"/>
      <point x="323.0" y="-299.5"/>
      <point x="346.5" y="111.5"/>
      <point x="348.5" y="188.0" type="curve"/>
      <point x="389.0" y="141.0"/>
      <point x="551.0" y="78.5"/>
      <point x="678.0" y="78.5" type="curve" smooth="yes"/>
      <point x="955.5" y="78.5"/>
      <point x="1132.0" y="280.0"/>
      <point x="1132.0" y="597.5" type="curve" smooth="yes"/>
      <point x="1132.0" y="897.5"/>
      <point x="995.0" y="1076.5"/>
      <point x="730.5" y="1076.5" type="curve" smooth="yes"/>
      <point x="549.0" y="1076.5"/>
      <point x="418.0" y="976.5"/>
      <point x="373.0" y="923.5" type="curve"/>
      <point x="373.0" y="971.5"/>
      <point x="371.5" y="1040.5"/>
      <point x="369.5" y="1078.0" type="curve"/>
      <point x="293.0" y="1078.0"/>
      <point x="202.0" y="1069.5"/>
      <point x="139.0" y="1050.5" type="curve"/>
      <point x="139.0" y="793.5"/>
      <point x="118.5" y="75.0"/>
    </contour>
    <contour>
      <point x="644.0" y="313.5" type="curve" smooth="yes"/>
      <point x="495.0" y="313.5"/>
      <point x="401.5" y="385.5"/>
      <point x="363.0" y="421.0" type="curve"/>
      <point x="364.0" y="488.5"/>
      <point x="371.5" y="699.0"/>
      <point x="372.5" y="741.0" type="curve"/>
      <point x="407.0" y="786.0"/>
      <point x="519.5" y="878.5"/>
      <point x="663.5" y="878.5" type="curve" smooth="yes"/>
      <point x="820.0" y="878.5"/>
      <point x="898.5" y="784.0"/>
      <point x="898.5" y="618.5" type="curve" smooth="yes"/>
      <point x="898.5" y="427.5"/>
      <point x="824.0" y="313.5"/>
    </contour>
  </outline>
</glyph>
<glyph name="q" format="2">
  <advance width="1207.0"/>
  <unicode hex="0071"/>
  <anchor x="604.0" y="0.0" name="bottom"/>
  <anchor x="604.0" y="1063.0" name="top"/>
  <outline>
    <contour>
      <point x="1044.5" y="-457.5" type="curve"/>
      <point x="1031.0" y="-343.0"/>
      <point x="1007.5" y="-112.0"/>
      <point x="1007.5" y="117.5" type="curve" smooth="yes"/>
      <point x="1007.5" y="411.0"/>
      <point x="1032.5" y="777.5"/>
      <point x="1071.0" y="1057.5" type="curve"/>
      <point x="1001.5" y="1076.0"/>
      <point x="933.5" y="1089.0"/>
      <point x="856.5" y="1090.0" type="curve"/>
      <point x="852.0" y="1070.0"/>
      <point x="840.5" y="993.0"/>
      <point x="839.5" y="959.0" type="curve"/>
      <point x="767.0" y="1029.5"/>
      <point x="642.0" y="1085.0"/>
      <point x="485.0" y="1085.0" type="curve" smooth="yes"/>
      <point x="191.0" y="1085.0"/>
      <point x="77.5" y="845.5"/>
      <point x="77.5" y="538.0" type="curve" smooth="yes"/>
      <point x="77.5" y="234.5"/>
      <point x="220.0" y="23.0"/>
      <point x="506.5" y="23.0" type="curve" smooth="yes"/>
      <point x="657.5" y="23.0"/>
      <point x="764.5" y="89.5"/>
      <point x="792.0" y="133.5" type="curve"/>
      <point x="792.0" y="-67.5"/>
      <point x="799.5" y="-284.5"/>
      <point x="818.0" y="-445.5" type="curve"/>
      <point x="875.0" y="-451.5"/>
      <point x="957.0" y="-457.5"/>
    </contour>
    <contour>
      <point x="538.0" y="258.0" type="curve" smooth="yes"/>
      <point x="379.5" y="258.0"/>
      <point x="301.5" y="395.0"/>
      <point x="301.5" y="563.5" type="curve" smooth="yes"/>
      <point x="301.5" y="740.5"/>
      <point x="373.0" y="866.0"/>
      <point x="550.0" y="866.0" type="curve" smooth="yes"/>
      <point x="680.0" y="866.0"/>
      <point x="794.5" y="790.0"/>
      <point x="821.5" y="769.5" type="curve"/>
      <point x="813.0" y="682.5"/>
      <point x="796.0" y="441.0"/>
      <point x="792.0" y="358.5" type="curve"/>
      <point x="757.5" y="323.0"/>
      <point x="658.0" y="258.0"/>
    </contour>
  </outline>
</glyph>
<glyph name="r" format="2">
  <advance width="853.0"/>
  <unicode hex="0072"/>
  <anchor x="427.0" y="0.0" name="bottom"/>
  <anchor x="427.0" y="1063.0" name="top"/>
  <outline>
    <contour>
      <point x="306.0" y="889.5" type="curve"/>
      <point x="302.5" y="935.0"/>
      <point x="278.5" y="1022.0"/>
      <point x="262.0" y="1064.0" type="curve"/>
      <point x="238.5" y="1062.5"/>
      <point x="123.5" y="1041.5"/>
      <point x="56.5" y="1021.5" type="curve"/>
      <point x="123.5" y="745.0"/>
      <point x="159.5" y="297.5"/>
      <point x="159.5" y="-3.0" type="curve"/>
      <point x="243.0" y="-4.5"/>
      <point x="348.5" y="-3.0"/>
      <point x="418.0" y="5.0" type="curve"/>
      <point x="418.0" y="115.0"/>
      <point x="377.0" y="503.0"/>
      <point x="343.5" y="680.5" type="curve"/>
      <point x="404.5" y="770.0"/>
      <point x="516.0" y="832.0"/>
      <point x="626.5" y="832.0" type="curve" smooth="yes"/>
      <point x="695.0" y="832.0"/>
      <point x="743.5" y="813.0"/>
      <point x="774.5" y="800.0" type="curve"/>
      <point x="822.0" y="1040.0" type="line"/>
      <point x="788.5" y="1059.5"/>
      <point x="718.0" y="1072.5"/>
      <point x="656.0" y="1072.5" type="curve" smooth="yes"/>
      <point x="508.5" y="1072.5"/>
      <point x="361.0" y="986.0"/>
    </contour>
  </outline>
</glyph>
<glyph name="s" format="2">
  <advance width="991.5"/>
  <unicode hex="0073"/>
  <anchor x="501.0" y="-65.0" name="bottom"/>
  <anchor x="511.0" y="1108.5" name="top"/>
  <outline>
    <contour>
      <point x="497.0" y="-80.5" type="curve" smooth="yes"/>
      <point x="740.0" y="-80.5"/>
      <point x="938.5" y="38.0"/>
      <point x="938.5" y="273.5" type="curve" smooth="yes"/>
      <point x="938.5" y="471.5"/>
      <point x="764.0" y="577.0"/>
      <point x="565.5" y="647.0" type="curve" smooth="yes"/>
      <point x="434.0" y="695.5"/>
      <point x="341.0" y="742.0"/>
      <point x="341.0" y="821.0" type="curve" smooth="yes"/>
      <point x="341.0" y="908.0"/>
      <point x="439.5" y="936.5"/>
      <point x="534.0" y="936.5" type="curve" smooth="yes"/>
      <point x="636.0" y="936.5"/>
      <point x="729.5" y="887.0"/>
      <point x="790.0" y="843.5" type="curve"/>
      <point x="834.0" y="897.5"/>
      <point x="877.5" y="982.5"/>
      <point x="888.5" y="1018.5" type="curve"/>
      <point x="811.5" y="1076.0"/>
      <point x="668.0" y="1120.5"/>
      <point x="519.0" y="1120.5" type="curve" smooth="yes"/>
      <point x="308.0" y="1120.5"/>
      <point x="118.0" y="1019.0"/>
      <point x="118.0" y="825.5" type="curve" smooth="yes"/>
      <point x="118.0" y="634.0"/>
      <point x="266.5" y="555.5"/>
      <point x="445.0" y="487.5" type="curve" smooth="yes"/>
      <point x="587.5" y="434.5"/>
      <point x="711.5" y="367.5"/>
      <point x="711.5" y="264.0" type="curve" smooth="yes"/>
      <point x="711.5" y="173.0"/>
      <point x="621.0" y="122.5"/>
      <point x="507.0" y="122.5" type="curve" smooth="yes"/>
      <point x="380.5" y="122.5"/>
      <point x="239.0" y="214.5"/>
      <point x="150.5" y="307.5" type="curve"/>
      <point x="110.5" y="270.0"/>
      <point x="39.5" y="144.0"/>
      <point x="22.5" y="102.5" type="curve"/>
      <point x="102.0" y="11.0"/>
      <point x="294.5" y="-80.5"/>
    </contour>
  </outline>
</glyph>
<glyph name="t" format="2">
  <advance width="964.0"/>
  <unicode hex="0074"/>
  <anchor x="595.0" y="-26.5" name="bottom"/>
  <anchor x="462.0" y="532.0" name="center"/>
  <anchor x="398.0" y="1426.0" name="top"/>
  <anchor x="575.0" y="1292.0" name="topright"/>
  <outline>
    <contour>
      <point x="879.5" y="167.5" type="curve"/>
      <point x="863.0" y="184.5"/>
      <point x="769.5" y="275.5"/>
      <point x="743.0" y="309.0" type="curve"/>
      <point x="726.0" y="260.5"/>
      <point x="694.5" y="165.0"/>
      <point x="618.0" y="165.0" type="curve" smooth="yes"/>
      <point x="503.5" y="165.0"/>
      <point x="493.5" y="281.5"/>
      <point x="493.5" y="409.0" type="curve" smooth="yes"/>
      <point x="493.5" y="526.5"/>
      <point x="504.0" y="819.5"/>
      <point x="508.5" y="900.5" type="curve"/>
      <point x="550.5" y="904.0"/>
      <point x="622.5" y="908.0"/>
      <point x="675.0" y="909.5" type="curve" smooth="yes"/>
      <point x="749.5" y="911.5"/>
      <point x="842.0" y="911.5"/>
      <point x="855.5" y="910.5" type="curve"/>
      <point x="855.5" y="963.0"/>
      <point x="853.5" y="1050.5"/>
      <point x="847.0" y="1096.5" type="curve"/>
      <point x="831.5" y="1097.5"/>
      <point x="748.5" y="1099.5"/>
      <point x="658.0" y="1097.0" type="curve" smooth="yes"/>
      <point x="622.5" y="1096.0"/>
      <point x="553.5" y="1092.5"/>
      <point x="512.0" y="1090.5" type="curve"/>
      <point x="511.5" y="1137.0"/>
      <point x="511.5" y="1198.5"/>
      <point x="511.5" y="1239.5" type="curve" smooth="yes"/>
      <point x="511.5" y="1338.0"/>
      <point x="508.0" y="1413.5"/>
      <point x="506.5" y="1432.5" type="curve"/>
      <point x="282.0" y="1416.5" type="line"/>
      <point x="285.5" y="1382.0"/>
      <point x="290.0" y="1325.0"/>
      <point x="291.0" y="1270.5" type="curve" smooth="yes"/>
      <point x="292.0" y="1207.0"/>
      <point x="292.5" y="1124.0"/>
      <point x="292.5" y="1078.0" type="curve"/>
      <point x="195.5" y="1072.5"/>
      <point x="95.0" y="1060.0"/>
      <point x="19.5" y="1049.5" type="curve"/>
      <point x="19.5" y="1029.5"/>
      <point x="23.5" y="925.5"/>
      <point x="38.0" y="846.5" type="curve"/>
      <point x="67.0" y="853.5"/>
      <point x="170.0" y="871.0"/>
      <point x="292.0" y="883.0" type="curve"/>
      <point x="287.5" y="803.0"/>
      <point x="274.5" y="488.0"/>
      <point x="274.5" y="316.0" type="curve" smooth="yes"/>
      <point x="274.5" y="124.0"/>
      <point x="358.5" y="-43.0"/>
      <point x="589.5" y="-43.0" type="curve" smooth="yes"/>
      <point x="767.0" y="-43.0"/>
      <point x="846.0" y="79.0"/>
    </contour>
  </outline>
</glyph>
<glyph name="u" format="2">
  <advance width="1178.0"/>
  <unicode hex="0075"/>
  <anchor x="579.0" y="0.0" name="bottom"/>
  <anchor x="781.0" y="0.0" name="ogonek"/>
  <anchor x="579.0" y="1063.0" name="top"/>
  <anchor x="992.5" y="921.0" name="topright"/>
  <outline>
    <contour>
      <point x="774.0" y="992.5" type="curve"/>
      <point x="795.0" y="877.0"/>
      <point x="807.5" y="748.5"/>
      <point x="807.5" y="630.0" type="curve" smooth="yes"/>
      <point x="807.5" y="345.0"/>
      <point x="732.5" y="166.5"/>
      <point x="577.0" y="166.5" type="curve" smooth="yes"/>
      <point x="411.0" y="166.5"/>
      <point x="336.0" y="362.5"/>
      <point x="336.0" y="686.5" type="curve" smooth="yes"/>
      <point x="336.0" y="794.5"/>
      <point x="344.0" y="909.5"/>
      <point x="356.5" y="1019.5" type="curve"/>
      <point x="325.5" y="1028.5"/>
      <point x="271.5" y="1034.5"/>
      <point x="222.0" y="1036.0" type="curve" smooth="yes"/>
      <point x="186.0" y="1037.5"/>
      <point x="137.0" y="1037.0"/>
      <point x="110.0" y="1035.0" type="curve"/>
      <point x="101.0" y="922.0"/>
      <point x="93.0" y="804.0"/>
      <point x="93.0" y="691.5" type="curve" smooth="yes"/>
      <point x="93.0" y="279.5"/>
      <point x="183.5" y="-52.5"/>
      <point x="573.0" y="-52.5" type="curve" smooth="yes"/>
      <point x="932.0" y="-52.5"/>
      <point x="1046.5" y="255.0"/>
      <point x="1046.5" y="624.5" type="curve" smooth="yes"/>
      <point x="1046.5" y="747.0"/>
      <point x="1032.5" y="875.5"/>
      <point x="1012.5" y="998.0" type="curve"/>
      <point x="984.5" y="1002.5"/>
      <point x="933.0" y="1005.5"/>
      <point x="895.0" y="1005.5" type="curve" smooth="yes"/>
      <point x="850.0" y="1005.5"/>
      <point x="798.0" y="1000.0"/>
    </contour>
  </outline>
</glyph>
<glyph name="v" format="2">
  <advance width="1007.0"/>
  <unicode hex="0076"/>
  <anchor x="504.0" y="0.0" name="bottom"/>
  <anchor x="504.0" y="1063.0" name="top"/>
  <outline>
    <contour>
      <point x="741.0" y="1091.0" type="curve"/>
      <point x="688.5" y="833.0"/>
      <point x="576.0" y="483.5"/>
      <point x="501.0" y="283.0" type="curve"/>
      <point x="435.0" y="443.5"/>
      <point x="278.0" y="891.0"/>
      <point x="228.0" y="1092.0" type="curve"/>
      <point x="174.5" y="1077.0"/>
      <point x="56.5" y="1048.5"/>
      <point x="18.5" y="1040.0" type="curve"/>
      <point x="119.0" y="706.0"/>
      <point x="253.0" y="308.0"/>
      <point x="400.0" y="2.5" type="curve"/>
      <point x="425.5" y="-1.0"/>
      <point x="463.5" y="-4.5"/>
      <point x="502.0" y="-4.5" type="curve" smooth="yes"/>
      <point x="540.5" y="-4.5"/>
      <point x="579.0" y="-2.0"/>
      <point x="604.5" y="2.5" type="curve"/>
      <point x="724.5" y="277.0"/>
      <point x="902.5" y="795.0"/>
      <point x="962.0" y="1033.5" type="curve"/>
      <point x="947.5" y="1039.5"/>
      <point x="849.0" y="1071.5"/>
    </contour>
  </outline>
</glyph>
<glyph name="w" format="2">
  <advance width="1520.0"/>
  <unicode hex="0077"/>
  <anchor x="760.0" y="0.0" name="bottom"/>
  <anchor x="760.0" y="1063.0" name="top"/>
  <outline>
    <contour>
      <point x="430.5" y="7.0" type="curve" smooth="yes"/>
      <point x="589.5" y="7.0"/>
      <point x="692.5" y="132.5"/>
      <point x="729.0" y="286.5" type="curve"/>
      <point x="758.5" y="134.5"/>
      <point x="828.0" y="14.5"/>
      <point x="1000.0" y="14.5" type="curve" smooth="yes"/>
      <point x="1295.0" y="14.5"/>
      <point x="1397.0" y="376.0"/>
      <point x="1397.0" y="769.0" type="curve" smooth="yes"/>
      <point x="1397.0" y="840.5"/>
      <point x="1391.5" y="961.0"/>
      <point x="1386.0" y="1036.0" type="curve"/>
      <point x="1358.5" y="1038.5"/>
      <point x="1306.5" y="1041.5"/>
      <point x="1273.0" y="1041.5" type="curve" smooth="yes"/>
      <point x="1240.0" y="1041.5"/>
      <point x="1207.5" y="1041.5"/>
      <point x="1174.0" y="1041.0" type="curve"/>
      <point x="1177.0" y="963.0"/>
      <point x="1178.5" y="859.0"/>
      <point x="1178.5" y="790.5" type="curve" smooth="yes"/>
      <point x="1178.5" y="479.5"/>
      <point x="1131.5" y="209.5"/>
      <point x="991.5" y="209.5" type="curve" smooth="yes"/>
      <point x="845.5" y="209.5"/>
      <point x="835.5" y="474.5"/>
      <point x="835.5" y="858.5" type="curve" smooth="yes"/>
      <point x="835.5" y="1036.0" type="line"/>
      <point x="787.0" y="1039.0"/>
      <point x="675.0" y="1040.5"/>
      <point x="628.5" y="1040.5" type="curve"/>
      <point x="631.5" y="959.0"/>
      <point x="633.0" y="854.5"/>
      <point x="633.0" y="778.0" type="curve" smooth="yes"/>
      <point x="633.0" y="473.5"/>
      <point x="581.5" y="232.5"/>
      <point x="454.5" y="232.5" type="curve" smooth="yes"/>
      <point x="347.0" y="232.5"/>
      <point x="314.0" y="388.5"/>
      <point x="314.0" y="606.0" type="curve" smooth="yes"/>
      <point x="314.0" y="737.0"/>
      <point x="323.5" y="891.5"/>
      <point x="339.5" y="1050.0" type="curve"/>
      <point x="274.5" y="1055.0"/>
      <point x="179.5" y="1059.0"/>
      <point x="117.0" y="1059.0" type="curve"/>
      <point x="103.0" y="917.0"/>
      <point x="90.5" y="765.0"/>
      <point x="90.5" y="624.0" type="curve" smooth="yes"/>
      <point x="90.5" y="290.5"/>
      <point x="158.5" y="7.0"/>
    </contour>
  </outline>
</glyph>
<glyph name="x" format="2">
  <advance width="1142.0"/>
  <unicode hex="0078"/>
  <anchor x="581.0" y="0.0" name="bottom"/>
  <anchor x="581.0" y="1063.0" name="top"/>
  <outline>
    <contour>
      <point x="184.0" y="-30.0" type="curve"/>
      <point x="258.5" y="40.0"/>
      <point x="430.0" y="247.5"/>
      <point x="564.0" y="426.0" type="curve"/>
      <point x="656.5" y="317.0"/>
      <point x="793.0" y="90.0"/>
      <point x="861.0" y="-18.0" type="curve"/>
      <point x="922.0" y="14.5"/>
      <point x="998.0" y="59.0"/>
      <point x="1045.0" y="98.0" type="curve"/>
      <point x="947.5" y="247.0"/>
      <point x="814.0" y="468.5"/>
      <point x="708.0" y="592.5" type="curve"/>
      <point x="829.0" y="727.0"/>
      <point x="976.0" y="941.0"/>
      <point x="1041.0" y="1057.5" type="curve"/>
      <point x="994.0" y="1087.0"/>
      <point x="902.5" y="1131.5"/>
      <point x="840.0" y="1158.0" type="curve"/>
      <point x="762.0" y="1017.5"/>
      <point x="672.5" y="872.0"/>
      <point x="576.0" y="742.5" type="curve"/>
      <point x="505.5" y="841.5"/>
      <point x="280.0" y="1075.0"/>
      <point x="193.0" y="1155.5" type="curve"/>
      <point x="148.0" y="1130.0"/>
      <point x="43.5" y="1047.5"/>
      <point x="24.5" y="1023.0" type="curve"/>
      <point x="115.5" y="939.0"/>
      <point x="283.0" y="784.5"/>
      <point x="447.0" y="593.5" type="curve"/>
      <point x="331.0" y="458.0"/>
      <point x="75.5" y="173.0"/>
      <point x="25.5" y="123.0" type="curve"/>
      <point x="59.0" y="76.5"/>
      <point x="134.5" y="8.5"/>
    </contour>
  </outline>
</glyph>
<glyph name="y" format="2">
  <advance width="1079.0"/>
  <unicode hex="0079"/>
  <anchor x="540.0" y="0.0" name="bottom"/>
  <anchor x="540.0" y="1063.0" name="top"/>
  <outline>
    <contour>
      <point x="422.5" y="-527.5" type="curve" smooth="yes"/>
      <point x="748.0" y="-527.5"/>
      <point x="907.0" y="-283.5"/>
      <point x="925.0" y="56.0" type="curve" smooth="yes"/>
      <point x="937.5" y="286.5"/>
      <point x="947.0" y="538.0"/>
      <point x="947.0" y="727.5" type="curve" smooth="yes"/>
      <point x="947.0" y="810.0"/>
      <point x="945.5" y="884.0"/>
      <point x="942.5" y="946.5" type="curve"/>
      <point x="899.0" y="956.5"/>
      <point x="854.5" y="961.0"/>
      <point x="808.0" y="961.0" type="curve" smooth="yes"/>
      <point x="782.5" y="961.0"/>
      <point x="756.5" y="959.5"/>
      <point x="732.5" y="957.0" type="curve"/>
      <point x="734.0" y="935.0"/>
      <point x="731.5" y="757.5"/>
      <point x="723.0" y="640.0" type="curve" smooth="yes"/>
      <point x="709.0" y="399.0"/>
      <point x="630.0" y="257.0"/>
      <point x="484.5" y="257.0" type="curve" smooth="yes"/>
      <point x="325.5" y="257.0"/>
      <point x="301.5" y="478.5"/>
      <point x="301.5" y="676.5" type="curve" smooth="yes"/>
      <point x="301.5" y="810.5"/>
      <point x="316.5" y="946.5"/>
      <point x="321.5" y="974.0" type="curve"/>
      <point x="302.5" y="978.5"/>
      <point x="244.5" y="981.5"/>
      <point x="191.0" y="981.5" type="curve" smooth="yes"/>
      <point x="149.0" y="981.5"/>
      <point x="108.0" y="979.5"/>
      <point x="89.0" y="975.5" type="curve"/>
      <point x="83.0" y="868.5"/>
      <point x="79.0" y="768.5"/>
      <point x="79.0" y="675.5" type="curve" smooth="yes"/>
      <point x="79.0" y="313.0"/>
      <point x="156.0" y="39.5"/>
      <point x="449.5" y="39.5" type="curve" smooth="yes"/>
      <point x="606.0" y="39.5"/>
      <point x="699.0" y="125.0"/>
      <point x="736.0" y="200.5" type="curve"/>
      <point x="733.0" y="-56.0"/>
      <point x="654.5" y="-315.0"/>
      <point x="431.0" y="-315.0" type="curve" smooth="yes"/>
      <point x="295.0" y="-315.0"/>
      <point x="150.5" y="-238.5"/>
      <point x="91.5" y="-197.0" type="curve"/>
      <point x="62.5" y="-235.5"/>
      <point x="2.5" y="-345.5"/>
      <point x="-14.5" y="-392.5" type="curve"/>
      <point x="74.5" y="-453.5"/>
      <point x="230.5" y="-527.5"/>
    </contour>
  </outline>
</glyph>
<glyph name="z" format="2">
  <advance width="1074.0"/>
  <unicode hex="007A"/>
  <anchor x="537.0" y="0.0" name="bottom"/>
  <anchor x="537.0" y="532.0" name="center"/>
  <anchor x="537.0" y="1063.0" name="top"/>
  <outline>
    <contour>
      <point x="971.0" y="4.5" type="curve"/>
      <point x="977.5" y="32.5"/>
      <point x="983.0" y="193.5"/>
      <point x="983.0" y="219.0" type="curve"/>
      <point x="903.0" y="210.5"/>
      <point x="734.5" y="202.0"/>
      <point x="592.5" y="202.0" type="curve" smooth="yes"/>
      <point x="493.5" y="202.0"/>
      <point x="379.0" y="204.0"/>
      <point x="345.5" y="209.0" type="curve"/>
      <point x="424.0" y="313.0"/>
      <point x="829.0" y="749.5"/>
      <point x="966.0" y="873.5" type="curve"/>
      <point x="966.0" y="901.0"/>
      <point x="960.5" y="1026.0"/>
      <point x="957.0" y="1040.5" type="curve"/>
      <point x="840.5" y="1043.5"/>
      <point x="693.5" y="1044.5"/>
      <point x="567.0" y="1044.5" type="curve" smooth="yes"/>
      <point x="369.5" y="1044.5"/>
      <point x="157.0" y="1042.0"/>
      <point x="86.0" y="1042.0" type="curve"/>
      <point x="76.5" y="854.0" type="line"/>
      <point x="91.5" y="856.5"/>
      <point x="243.0" y="860.5"/>
      <point x="365.5" y="860.5" type="curve" smooth="yes"/>
      <point x="477.0" y="860.5"/>
      <point x="632.5" y="861.0"/>
      <point x="673.0" y="860.0" type="curve"/>
      <point x="558.5" y="751.0"/>
      <point x="155.5" y="319.5"/>
      <point x="64.0" y="197.5" type="curve"/>
      <point x="53.5" y="12.0" type="line"/>
      <point x="177.0" y="-2.0"/>
      <point x="356.5" y="-7.0"/>
      <point x="533.5" y="-7.0" type="curve" smooth="yes"/>
      <point x="697.5" y="-7.0"/>
      <point x="862.0" y="-1.5"/>
    </contour>
  </outline>
</glyph>
<glyph name="braceleft" format="2">
  <advance width="665.0"/>
  <unicode hex="007B"/>
  <outline>
    <contour>
      <point x="521.5" y="-410.5" type="curve"/>
      <point x="554.0" y="-360.0"/>
      <point x="578.5" y="-306.5"/>
      <point x="601.5" y="-250.0" type="curve"/>
      <point x="484.5" y="-226.0"/>
      <point x="423.0" y="-104.0"/>
      <point x="423.0" y="27.5" type="curve" smooth="yes"/>
      <point x="423.0" y="78.5"/>
      <point x="430.5" y="119.0"/>
      <point x="441.0" y="161.0" type="curve" smooth="yes"/>
      <point x="452.0" y="205.5"/>
      <point x="460.5" y="250.5"/>
      <point x="460.5" y="310.5" type="curve" smooth="yes"/>
      <point x="460.5" y="510.0"/>
      <point x="302.5" y="582.0"/>
      <point x="152.5" y="594.5" type="curve"/>
      <point x="151.0" y="576.5" type="line"/>
      <point x="300.0" y="584.5"/>
      <point x="415.0" y="710.0"/>
      <point x="415.0" y="872.5" type="curve" smooth="yes"/>
      <point x="415.0" y="928.5"/>
      <point x="406.5" y="967.0"/>
      <point x="396.0" y="1005.5" type="curve" smooth="yes"/>
      <point x="386.0" y="1042.0"/>
      <point x="378.5" y="1079.0"/>
      <point x="378.5" y="1129.0" type="curve" smooth="yes"/>
      <point x="378.5" y="1257.0"/>
      <point x="446.0" y="1382.5"/>
      <point x="591.5" y="1405.0" type="curve"/>
      <point x="590.0" y="1468.5"/>
      <point x="553.5" y="1547.0"/>
      <point x="526.0" y="1570.0" type="curve"/>
      <point x="278.0" y="1551.5"/>
      <point x="161.0" y="1338.5"/>
      <point x="161.0" y="1138.0" type="curve" smooth="yes"/>
      <point x="161.0" y="1076.5"/>
      <point x="171.0" y="1036.5"/>
      <point x="184.0" y="998.0" type="curve" smooth="yes"/>
      <point x="197.0" y="959.0"/>
      <point x="208.0" y="921.0"/>
      <point x="208.0" y="862.5" type="curve" smooth="yes"/>
      <point x="208.0" y="763.5"/>
      <point x="151.0" y="688.5"/>
      <point x="42.5" y="670.5" type="curve"/>
      <point x="38.0" y="650.5"/>
      <point x="36.0" y="615.0"/>
      <point x="36.0" y="584.0" type="curve" smooth="yes"/>
      <point x="36.0" y="551.0"/>
      <point x="38.5" y="512.5"/>
      <point x="44.5" y="491.5" type="curve"/>
      <point x="174.5" y="463.5"/>
      <point x="256.5" y="392.5"/>
      <point x="256.5" y="282.5" type="curve" smooth="yes"/>
      <point x="256.5" y="243.0"/>
      <point x="250.0" y="207.5"/>
      <point x="240.0" y="170.5" type="curve" smooth="yes"/>
      <point x="228.0" y="125.0"/>
      <point x="217.5" y="75.5"/>
      <point x="217.5" y="15.5" type="curve" smooth="yes"/>
      <point x="217.5" y="-196.5"/>
      <point x="329.5" y="-386.5"/>
    </contour>
  </outline>
</glyph>
<glyph name="bar" format="2">
  <advance width="487.0"/>
  <unicode hex="007C"/>
  <outline>
    <contour>
      <point x="319.5" y="-557.0" type="curve"/>
      <point x="339.5" y="-432.5"/>
      <point x="347.0" y="-168.5"/>
      <point x="347.0" y="138.0" type="curve" smooth="yes"/>
      <point x="347.0" y="595.0"/>
      <point x="334.0" y="1186.0"/>
      <point x="316.0" y="1535.0" type="curve"/>
      <point x="255.5" y="1535.0"/>
      <point x="147.5" y="1530.0"/>
      <point x="113.5" y="1527.0" type="curve"/>
      <point x="100.0" y="1130.5"/>
      <point x="97.0" y="706.5"/>
      <point x="97.0" y="376.0" type="curve" smooth="yes"/>
      <point x="97.0" y="-19.5"/>
      <point x="103.5" y="-334.0"/>
      <point x="111.5" y="-542.5" type="curve"/>
      <point x="173.0" y="-554.5"/>
      <point x="263.0" y="-557.0"/>
    </contour>
  </outline>
</glyph>
<glyph name="braceright" format="2">
  <advance width="614.0"/>
  <unicode hex="007D"/>
  <outline>
    <contour>
      <point x="127.0" y="-417.0" type="curve"/>
      <point x="326.5" y="-389.5"/>
      <point x="452.5" y="-206.5"/>
      <point x="452.5" y="-13.0" type="curve" smooth="yes"/>
      <point x="452.5" y="47.0"/>
      <point x="441.5" y="94.0"/>
      <point x="427.5" y="141.0" type="curve" smooth="yes"/>
      <point x="413.5" y="188.0"/>
      <point x="402.0" y="235.0"/>
      <point x="402.0" y="295.5" type="curve" smooth="yes"/>
      <point x="402.0" y="406.5"/>
      <point x="455.5" y="490.5"/>
      <point x="560.5" y="506.5" type="curve"/>
      <point x="571.0" y="525.5"/>
      <point x="577.5" y="563.0"/>
      <point x="577.5" y="594.5" type="curve" smooth="yes"/>
      <point x="577.5" y="627.5"/>
      <point x="571.0" y="667.0"/>
      <point x="559.5" y="689.5" type="curve"/>
      <point x="441.5" y="701.0"/>
      <point x="354.5" y="754.5"/>
      <point x="354.5" y="879.5" type="curve" smooth="yes"/>
      <point x="354.5" y="926.5"/>
      <point x="365.5" y="979.5"/>
      <point x="380.5" y="1029.0" type="curve" smooth="yes"/>
      <point x="396.0" y="1081.0"/>
      <point x="408.0" y="1131.0"/>
      <point x="408.0" y="1185.0" type="curve" smooth="yes"/>
      <point x="408.0" y="1372.5"/>
      <point x="295.5" y="1563.0"/>
      <point x="110.5" y="1592.5" type="curve"/>
      <point x="78.5" y="1549.5"/>
      <point x="34.5" y="1485.0"/>
      <point x="9.5" y="1433.5" type="curve"/>
      <point x="144.0" y="1404.5"/>
      <point x="196.5" y="1283.0"/>
      <point x="196.5" y="1148.5" type="curve" smooth="yes"/>
      <point x="196.5" y="1086.5"/>
      <point x="186.5" y="1041.5"/>
      <point x="175.5" y="1000.0" type="curve" smooth="yes"/>
      <point x="164.5" y="959.0"/>
      <point x="155.5" y="921.5"/>
      <point x="155.5" y="862.0" type="curve" smooth="yes"/>
      <point x="155.5" y="663.0"/>
      <point x="334.5" y="579.5"/>
      <point x="464.0" y="572.5" type="curve"/>
      <point x="467.0" y="599.0" type="line"/>
      <point x="325.0" y="596.5"/>
      <point x="204.0" y="464.5"/>
      <point x="204.0" y="301.5" type="curve" smooth="yes"/>
      <point x="204.0" y="239.0"/>
      <point x="217.0" y="189.0"/>
      <point x="232.0" y="139.5" type="curve" smooth="yes"/>
      <point x="246.5" y="91.5"/>
      <point x="259.5" y="44.5"/>
      <point x="259.5" y="-13.5" type="curve" smooth="yes"/>
      <point x="259.5" y="-127.0"/>
      <point x="189.0" y="-215.5"/>
      <point x="60.5" y="-253.5" type="curve"/>
      <point x="71.0" y="-321.5"/>
      <point x="103.5" y="-388.5"/>
    </contour>
  </outline>
</glyph>
<glyph name="asciitilde" format="2">
  <advance width="1050.0"/>
  <unicode hex="007E"/>
  <outline>
    <contour>
      <point x="110.0" y="736.0" type="curve"/>
      <point x="232.0" y="639.5" type="line"/>
      <point x="254.5" y="693.5"/>
      <point x="304.5" y="770.0"/>
      <point x="384.0" y="770.0" type="curve" smooth="yes"/>
      <point x="426.0" y="770.0"/>
      <point x="464.5" y="736.0"/>
      <point x="505.5" y="697.5" type="curve" smooth="yes"/>
      <point x="555.5" y="650.0"/>
      <point x="613.0" y="597.5"/>
      <point x="691.0" y="597.5" type="curve" smooth="yes"/>
      <point x="833.5" y="597.5"/>
      <point x="914.0" y="736.0"/>
      <point x="928.5" y="795.5" type="curve"/>
      <point x="799.5" y="869.0" type="line"/>
      <point x="780.5" y="808.5"/>
      <point x="741.0" y="753.5"/>
      <point x="681.0" y="753.5" type="curve" smooth="yes"/>
      <point x="626.5" y="753.5"/>
      <point x="587.0" y="790.5"/>
      <point x="547.0" y="830.5" type="curve" smooth="yes"/>
      <point x="501.5" y="875.5"/>
      <point x="450.5" y="921.0"/>
      <point x="372.5" y="921.0" type="curve" smooth="yes"/>
      <point x="245.5" y="921.0"/>
      <point x="140.5" y="822.0"/>
    </contour>
  </outline>
</glyph>
<glyph name="exclamdown" format="2">
  <advance width="708.0"/>
  <unicode hex="00A1"/>
  <outline>
    <contour>
      <point x="220.5" y="661.0" type="curve"/>
      <point x="215.0" y="398.0"/>
      <point x="179.0" y="-233.5"/>
      <point x="158.5" y="-394.5" type="curve"/>
      <point x="431.0" y="-406.5" type="line"/>
      <point x="442.0" y="-157.0"/>
      <point x="437.5" y="333.0"/>
      <point x="424.0" y="650.5" type="curve"/>
      <point x="378.0" y="656.5"/>
      <point x="264.0" y="661.0"/>
    </contour>
    <contour>
      <point x="312.0" y="1092.5" type="curve" smooth="yes"/>
      <point x="213.0" y="1092.5"/>
      <point x="137.0" y="1026.0"/>
      <point x="137.0" y="923.5" type="curve" smooth="yes"/>
      <point x="137.0" y="832.0"/>
      <point x="216.5" y="765.5"/>
      <point x="315.0" y="765.5" type="curve" smooth="yes"/>
      <point x="410.5" y="765.5"/>
      <point x="495.0" y="824.0"/>
      <point x="495.0" y="923.0" type="curve" smooth="yes"/>
      <point x="495.0" y="1021.5"/>
      <point x="420.5" y="1092.5"/>
    </contour>
  </outline>
</glyph>
<glyph name="cent" format="2">
  <advance width="1026.0"/>
  <unicode hex="00A2"/>
  <anchor x="513.0" y="149.5" name="bottom"/>
  <anchor x="513.0" y="1212.5" name="top"/>
  <outline>
    <contour>
      <point x="581.0" y="1352.5" type="curve"/>
      <point x="554.0" y="1029.5"/>
      <point x="413.5" y="389.0"/>
      <point x="321.5" y="31.0" type="curve"/>
      <point x="366.5" y="3.5"/>
      <point x="421.0" y="-9.0"/>
      <point x="472.0" y="-12.5" type="curve"/>
      <point x="535.5" y="214.0"/>
      <point x="669.5" y="1007.0"/>
      <point x="696.5" y="1325.0" type="curve"/>
      <point x="676.0" y="1341.0"/>
      <point x="625.5" y="1352.5"/>
    </contour>
    <component base="c" yOffset="149.5"/>
  </outline>
</glyph>
<glyph name="sterling" format="2">
  <advance width="1140.0"/>
  <unicode hex="00A3"/>
  <outline>
    <contour>
      <point x="166.5" y="552.5" type="curve" smooth="yes"/>
      <point x="346.5" y="552.5"/>
      <point x="676.5" y="570.5"/>
      <point x="764.0" y="596.5" type="curve"/>
      <point x="764.0" y="633.0"/>
      <point x="757.5" y="741.5"/>
      <point x="752.5" y="765.0" type="curve"/>
      <point x="663.5" y="746.0"/>
      <point x="349.0" y="729.0"/>
      <point x="165.5" y="729.0" type="curve" smooth="yes"/>
      <point x="116.0" y="729.0"/>
      <point x="74.5" y="730.0"/>
      <point x="44.5" y="732.5" type="curve"/>
      <point x="39.5" y="558.5" type="line"/>
      <point x="63.0" y="554.5"/>
      <point x="108.5" y="552.5"/>
    </contour>
    <component base="sterlira"/>
  </outline>
</glyph>
<glyph name="currency" format="2">
  <advance width="974.0"/>
  <unicode hex="00A4"/>
  <outline>
    <contour>
      <point x="155.5" y="70.0" type="curve"/>
      <point x="216.0" y="131.0"/>
      <point x="346.0" y="283.5"/>
      <point x="384.0" y="332.5" type="curve"/>
      <point x="243.0" y="429.0" type="line"/>
      <point x="171.0" y="361.0"/>
      <point x="79.5" y="272.5"/>
      <point x="7.5" y="202.5" type="curve"/>
      <point x="33.5" y="175.0"/>
      <point x="125.0" y="94.5"/>
    </contour>
    <contour>
      <point x="799.0" y="96.0" type="curve"/>
      <point x="824.5" y="119.5"/>
      <point x="898.5" y="195.5"/>
      <point x="916.0" y="221.0" type="curve"/>
      <point x="865.5" y="269.0"/>
      <point x="773.0" y="349.5"/>
      <point x="704.5" y="408.5" type="curve"/>
      <point x="585.5" y="314.5" type="line"/>
      <point x="623.0" y="278.5"/>
      <point x="727.0" y="168.0"/>
    </contour>
    <contour>
      <point x="237.5" y="671.0" type="curve"/>
      <point x="351.0" y="785.0" type="line"/>
      <point x="291.5" y="861.5"/>
      <point x="214.0" y="950.5"/>
      <point x="155.5" y="1005.5" type="curve"/>
      <point x="116.0" y="979.5"/>
      <point x="37.5" y="905.5"/>
      <point x="22.0" y="886.5" type="curve"/>
      <point x="86.0" y="816.5"/>
      <point x="160.5" y="737.5"/>
    </contour>
    <contour>
      <point x="706.0" y="675.5" type="line"/>
      <point x="774.5" y="731.0"/>
      <point x="870.5" y="821.5"/>
      <point x="937.5" y="891.5" type="curve"/>
      <point x="912.0" y="917.0"/>
      <point x="827.0" y="999.0"/>
      <point x="806.0" y="1025.0" type="curve"/>
      <point x="737.0" y="958.0"/>
      <point x="638.5" y="855.5"/>
      <point x="579.0" y="795.0" type="curve"/>
    </contour>
    <component base="degree" xOffset="106.0" yOffset="-656.0"/>
  </outline>
</glyph>
<glyph name="yen" format="2">
  <advance width="1065.0"/>
  <unicode hex="00A5"/>
  <anchor x="603.0" y="0.0" name="bottom"/>
  <anchor x="603.0" y="1291.0" name="top"/>
  <anchor x="90.0" y="1291.0" name="topleft"/>
  <outline>
    <contour>
      <point x="168.0" y="492.0" type="curve"/>
      <point x="273.0" y="494.5"/>
      <point x="885.5" y="503.5"/>
      <point x="979.5" y="503.5" type="curve"/>
      <point x="979.5" y="545.0"/>
      <point x="973.0" y="603.5"/>
      <point x="963.0" y="655.5" type="curve"/>
      <point x="881.5" y="665.5"/>
      <point x="758.5" y="670.0"/>
      <point x="623.0" y="670.0" type="curve" smooth="yes"/>
      <point x="456.0" y="670.0"/>
      <point x="330.0" y="665.0"/>
      <point x="188.0" y="654.5" type="curve"/>
      <point x="182.0" y="628.0"/>
      <point x="168.5" y="548.0"/>
    </contour>
    <contour>
      <point x="983.5" y="239.0" type="curve"/>
      <point x="985.0" y="289.0"/>
      <point x="976.5" y="356.0"/>
      <point x="972.5" y="388.0" type="curve"/>
      <point x="887.5" y="393.5"/>
      <point x="768.0" y="397.0"/>
      <point x="645.5" y="397.0" type="curve" smooth="yes"/>
      <point x="455.5" y="397.0"/>
      <point x="305.5" y="392.5"/>
      <point x="173.0" y="383.5" type="curve"/>
      <point x="163.5" y="337.5"/>
      <point x="156.0" y="291.5"/>
      <point x="156.0" y="243.0" type="curve"/>
      <point x="250.0" y="244.0"/>
      <point x="876.0" y="240.5"/>
    </contour>
    <component base="Y" xOffset="25.0"/>
  </outline>
</glyph>
<glyph name="brokenbar" format="2">
  <advance width="432.0"/>
  <unicode hex="00A6"/>
  <outline>
    <contour>
      <point x="92.0" y="274.5" type="curve"/>
      <point x="92.0" y="117.0"/>
      <point x="111.5" y="-332.5"/>
      <point x="122.0" y="-457.5" type="curve"/>
      <point x="171.5" y="-457.5"/>
      <point x="277.0" y="-452.0"/>
      <point x="308.0" y="-440.5" type="curve"/>
      <point x="302.5" y="-326.5"/>
      <point x="298.0" y="182.0"/>
      <point x="298.0" y="281.0" type="curve"/>
      <point x="238.5" y="281.0"/>
      <point x="152.5" y="279.5"/>
    </contour>
    <contour>
      <point x="99.0" y="739.5" type="curve"/>
      <point x="119.5" y="737.5"/>
      <point x="223.0" y="733.0"/>
      <point x="307.0" y="734.5" type="curve"/>
      <point x="305.0" y="866.0"/>
      <point x="308.5" y="1330.0"/>
      <point x="313.5" y="1482.0" type="curve"/>
      <point x="278.5" y="1498.5"/>
      <point x="183.5" y="1502.0"/>
      <point x="129.5" y="1502.0" type="curve"/>
      <point x="119.0" y="1371.0"/>
      <point x="99.0" y="1001.0"/>
    </contour>
  </outline>
</glyph>
<glyph name="section" format="2">
  <advance width="1000.0"/>
  <unicode hex="00A7"/>
  <outline>
    <contour>
      <point x="505.0" y="714.5" type="curve"/>
      <point x="342.0" y="822.0" type="line"/>
      <point x="207.0" y="784.5"/>
      <point x="100.5" y="694.0"/>
      <point x="100.5" y="554.0" type="curve" smooth="yes"/>
      <point x="100.5" y="364.5"/>
      <point x="257.5" y="291.0"/>
      <point x="440.5" y="227.0" type="curve" smooth="yes"/>
      <point x="606.0" y="169.5"/>
      <point x="717.5" y="107.5"/>
      <point x="717.5" y="14.0" type="curve" smooth="yes"/>
      <point x="717.5" y="-92.0"/>
      <point x="626.5" y="-154.0"/>
      <point x="506.0" y="-154.0" type="curve" smooth="yes"/>
      <point x="377.0" y="-154.0"/>
      <point x="222.5" y="-77.0"/>
      <point x="126.0" y="11.0" type="curve"/>
      <point x="89.5" y="-21.0"/>
      <point x="21.5" y="-124.0"/>
      <point x="-2.5" y="-169.0" type="curve"/>
      <point x="87.5" y="-260.5"/>
      <point x="285.5" y="-352.0"/>
      <point x="496.0" y="-352.0" type="curve" smooth="yes"/>
      <point x="741.0" y="-352.0"/>
      <point x="930.0" y="-213.5"/>
      <point x="930.0" y="17.0" type="curve" smooth="yes"/>
      <point x="930.0" y="205.0"/>
      <point x="770.0" y="305.5"/>
      <point x="568.0" y="375.5" type="curve" smooth="yes"/>
      <point x="433.0" y="424.0"/>
      <point x="318.5" y="477.0"/>
      <point x="318.5" y="561.0" type="curve" smooth="yes"/>
      <point x="318.5" y="660.5"/>
      <point x="423.5" y="708.0"/>
    </contour>
    <contour>
      <point x="595.0" y="341.5" type="curve"/>
      <point x="714.0" y="200.5" type="line"/>
      <point x="849.5" y="257.0"/>
      <point x="950.0" y="371.5"/>
      <point x="950.0" y="527.5" type="curve" smooth="yes"/>
      <point x="950.0" y="715.5"/>
      <point x="770.0" y="811.0"/>
      <point x="568.0" y="881.0" type="curve" smooth="yes"/>
      <point x="433.0" y="929.5"/>
      <point x="333.5" y="981.0"/>
      <point x="333.5" y="1060.0" type="curve" smooth="yes"/>
      <point x="333.5" y="1147.0"/>
      <point x="433.5" y="1175.5"/>
      <point x="529.0" y="1175.5" type="curve" smooth="yes"/>
      <point x="628.0" y="1175.5"/>
      <point x="739.5" y="1131.0"/>
      <point x="801.5" y="1087.5" type="curve"/>
      <point x="848.0" y="1142.0"/>
      <point x="887.5" y="1234.5"/>
      <point x="894.5" y="1257.5" type="curve"/>
      <point x="809.0" y="1315.0"/>
      <point x="665.5" y="1359.5"/>
      <point x="513.0" y="1359.5" type="curve" smooth="yes"/>
      <point x="310.5" y="1359.5"/>
      <point x="125.5" y="1258.0"/>
      <point x="125.5" y="1064.5" type="curve" smooth="yes"/>
      <point x="125.5" y="873.0"/>
      <point x="257.5" y="797.5"/>
      <point x="440.5" y="732.5" type="curve" smooth="yes"/>
      <point x="606.0" y="674.0"/>
      <point x="737.5" y="621.5"/>
      <point x="737.5" y="524.5" type="curve" smooth="yes"/>
      <point x="737.5" y="432.5"/>
      <point x="675.0" y="365.0"/>
    </contour>
  </outline>
</glyph>
<glyph name="copyright" format="2">
  <advance width="1745.0"/>
  <unicode hex="00A9"/>
  <outline>
    <contour>
      <point x="856.5" y="-68.0" type="curve" smooth="yes"/>
      <point x="1321.5" y="-68.0"/>
      <point x="1633.0" y="200.5"/>
      <point x="1633.0" y="614.5" type="curve" smooth="yes"/>
      <point x="1633.0" y="1091.0"/>
      <point x="1350.0" y="1350.0"/>
      <point x="889.0" y="1350.0" type="curve" smooth="yes"/>
      <point x="387.5" y="1350.0"/>
      <point x="61.5" y="1072.5"/>
      <point x="61.5" y="576.0" type="curve" smooth="yes"/>
      <point x="61.5" y="160.5"/>
      <point x="373.5" y="-68.0"/>
    </contour>
    <contour>
      <point x="843.0" y="113.5" type="curve" smooth="yes"/>
      <point x="528.5" y="113.5"/>
      <point x="297.0" y="282.5"/>
      <point x="297.0" y="614.0" type="curve" smooth="yes"/>
      <point x="297.0" y="949.0"/>
      <point x="545.0" y="1175.0"/>
      <point x="876.0" y="1175.0" type="curve" smooth="yes"/>
      <point x="1229.0" y="1175.0"/>
      <point x="1408.0" y="980.5"/>
      <point x="1408.0" y="613.5" type="curve" smooth="yes"/>
      <point x="1408.0" y="295.5"/>
      <point x="1172.0" y="113.5"/>
    </contour>
    <contour>
      <point x="839.5" y="285.0" type="curve" smooth="yes"/>
      <point x="992.5" y="285.0"/>
      <point x="1152.5" y="359.0"/>
      <point x="1219.0" y="496.0" type="curve"/>
      <point x="1179.5" y="530.5"/>
      <point x="1121.5" y="571.5"/>
      <point x="1076.5" y="594.0" type="curve"/>
      <point x="1029.5" y="524.0"/>
      <point x="960.0" y="462.5"/>
      <point x="863.0" y="462.5" type="curve" smooth="yes"/>
      <point x="782.0" y="462.5"/>
      <point x="675.0" y="492.0"/>
      <point x="675.0" y="628.0" type="curve" smooth="yes"/>
      <point x="675.0" y="755.5"/>
      <point x="775.0" y="827.0"/>
      <point x="875.5" y="827.0" type="curve" smooth="yes"/>
      <point x="955.5" y="827.0"/>
      <point x="1024.5" y="798.5"/>
      <point x="1046.0" y="769.0" type="curve"/>
      <point x="1074.5" y="796.5"/>
      <point x="1118.5" y="848.5"/>
      <point x="1155.5" y="902.0" type="curve"/>
      <point x="1104.0" y="961.0"/>
      <point x="1022.0" y="990.0"/>
      <point x="909.5" y="990.0" type="curve" smooth="yes"/>
      <point x="671.0" y="990.0"/>
      <point x="501.0" y="828.5"/>
      <point x="501.0" y="608.5" type="curve" smooth="yes"/>
      <point x="501.0" y="408.0"/>
      <point x="629.0" y="285.0"/>
    </contour>
  </outline>
</glyph>
<glyph name="ordfeminine" format="2">
  <advance width="750.0"/>
  <unicode hex="00AA"/>
  <outline>
    <contour>
      <point x="521.0" y="719.0" type="curve"/>
      <point x="544.0" y="715.0"/>
      <point x="594.5" y="713.0"/>
      <point x="629.5" y="713.0" type="curve" smooth="yes"/>
      <point x="643.0" y="713.0"/>
      <point x="672.0" y="713.5"/>
      <point x="677.0" y="714.5" type="curve"/>
      <point x="688.0" y="794.5"/>
      <point x="699.5" y="900.5"/>
      <point x="699.5" y="1005.0" type="curve" smooth="yes"/>
      <point x="699.5" y="1264.5"/>
      <point x="617.0" y="1424.5"/>
      <point x="354.0" y="1424.5" type="curve" smooth="yes"/>
      <point x="213.0" y="1424.5"/>
      <point x="105.0" y="1376.5"/>
      <point x="38.5" y="1311.0" type="curve"/>
      <point x="136.0" y="1200.5" type="line"/>
      <point x="172.0" y="1241.5"/>
      <point x="253.0" y="1277.5"/>
      <point x="343.5" y="1277.5" type="curve" smooth="yes"/>
      <point x="433.5" y="1277.5"/>
      <point x="489.0" y="1245.0"/>
      <point x="516.0" y="1193.0" type="curve" smooth="yes"/>
      <point x="528.0" y="1174.0"/>
      <point x="536.0" y="1149.0"/>
      <point x="538.0" y="1125.0" type="curve"/>
      <point x="521.0" y="1137.5"/>
      <point x="409.5" y="1153.5"/>
      <point x="353.5" y="1153.5" type="curve" smooth="yes"/>
      <point x="185.5" y="1153.5"/>
      <point x="34.0" y="1084.5"/>
      <point x="34.0" y="929.5" type="curve" smooth="yes"/>
      <point x="34.0" y="784.5"/>
      <point x="150.5" y="722.5"/>
      <point x="312.5" y="722.5" type="curve" smooth="yes"/>
      <point x="395.5" y="722.5"/>
      <point x="497.0" y="759.5"/>
      <point x="532.5" y="795.5" type="curve"/>
      <point x="530.0" y="774.5"/>
      <point x="523.0" y="730.0"/>
    </contour>
    <contour>
      <point x="363.5" y="855.5" type="curve" smooth="yes"/>
      <point x="271.5" y="855.5"/>
      <point x="211.5" y="876.5"/>
      <point x="211.5" y="947.0" type="curve" smooth="yes"/>
      <point x="211.5" y="1007.5"/>
      <point x="293.0" y="1039.5"/>
      <point x="375.0" y="1039.5" type="curve" smooth="yes"/>
      <point x="436.5" y="1039.5"/>
      <point x="518.5" y="1027.5"/>
      <point x="538.5" y="1021.0" type="curve"/>
      <point x="540.0" y="1008.0"/>
      <point x="540.5" y="990.0"/>
      <point x="540.5" y="977.5" type="curve" smooth="yes"/>
      <point x="540.5" y="962.5"/>
      <point x="539.5" y="945.0"/>
      <point x="538.0" y="922.0" type="curve"/>
      <point x="499.5" y="884.5"/>
      <point x="436.0" y="855.5"/>
    </contour>
  </outline>
</glyph>
<glyph name="guillemetleft" format="2">
  <advance width="1214.0"/>
  <unicode hex="00AB"/>
  <outline>
    <contour>
      <point x="1017.5" y="1135.0" type="curve"/>
      <point x="830.0" y="972.0"/>
      <point x="652.5" y="780.5"/>
      <point x="475.5" y="574.0" type="curve"/>
      <point x="1035.5" y="150.5" type="line"/>
      <point x="1056.0" y="215.0"/>
      <point x="1075.5" y="302.0"/>
      <point x="1076.0" y="352.0" type="curve"/>
      <point x="1022.5" y="397.0"/>
      <point x="835.0" y="519.0"/>
      <point x="708.5" y="599.0" type="curve"/>
      <point x="1129.0" y="990.5" type="line"/>
      <point x="1112.0" y="1033.0"/>
      <point x="1069.5" y="1101.5"/>
    </contour>
    <contour>
      <point x="526.5" y="1120.0" type="curve"/>
      <point x="344.5" y="928.0"/>
      <point x="178.5" y="732.0"/>
      <point x="20.5" y="532.5" type="curve"/>
      <point x="213.5" y="332.5"/>
      <point x="426.0" y="158.0"/>
      <point x="647.5" y="0.0" type="curve"/>
      <point x="670.0" y="50.5"/>
      <point x="703.0" y="131.0"/>
      <point x="711.0" y="168.0" type="curve"/>
      <point x="681.0" y="185.0"/>
      <point x="429.5" y="393.0"/>
      <point x="248.0" y="545.5" type="curve"/>
      <point x="661.0" y="1004.0" type="line"/>
      <point x="627.0" y="1037.0"/>
      <point x="567.0" y="1091.0"/>
    </contour>
  </outline>
</glyph>
<glyph name="logicalnot" format="2">
  <advance width="1000.0"/>
  <unicode hex="00AC"/>
  <outline>
    <contour>
      <point x="913.0" y="820.5" type="curve"/>
      <point x="777.5" y="820.5"/>
      <point x="206.0" y="802.5"/>
      <point x="65.0" y="792.0" type="curve"/>
      <point x="64.0" y="740.5"/>
      <point x="65.5" y="652.5"/>
      <point x="67.0" y="604.0" type="curve"/>
      <point x="172.5" y="608.0"/>
      <point x="546.0" y="622.5"/>
      <point x="737.0" y="630.0" type="curve"/>
      <point x="734.0" y="568.0"/>
      <point x="725.0" y="360.5"/>
      <point x="721.0" y="280.0" type="curve"/>
      <point x="763.0" y="278.5"/>
      <point x="854.0" y="278.5"/>
      <point x="889.0" y="281.0" type="curve"/>
      <point x="896.0" y="434.5"/>
      <point x="906.0" y="731.0"/>
    </contour>
  </outline>
</glyph>
<glyph name="softhyphen" format="2">
  <advance width="739.5"/>
  <unicode hex="00AD"/>
  <outline>
    <contour>
      <point x="686.0" y="787.0" type="curve"/>
      <point x="622.0" y="795.0"/>
      <point x="530.0" y="797.5"/>
      <point x="416.0" y="797.5" type="curve" smooth="yes"/>
      <point x="285.5" y="797.5"/>
      <point x="153.5" y="785.5"/>
      <point x="52.5" y="772.0" type="curve"/>
      <point x="47.5" y="737.0"/>
      <point x="40.5" y="619.5"/>
      <point x="42.0" y="564.5" type="curve"/>
      <point x="186.5" y="576.0"/>
      <point x="561.5" y="588.5"/>
      <point x="694.0" y="588.5" type="curve"/>
      <point x="694.5" y="642.0"/>
      <point x="694.0" y="725.5"/>
    </contour>
  </outline>
</glyph>
<glyph name="registered" format="2">
  <advance width="1400.0"/>
  <unicode hex="00AE"/>
  <outline>
    <contour>
      <point x="729.5" y="267.0" type="curve" smooth="yes"/>
      <point x="1050.5" y="267.0"/>
      <point x="1306.5" y="425.0"/>
      <point x="1306.5" y="805.0" type="curve" smooth="yes"/>
      <point x="1306.5" y="1153.5"/>
      <point x="1069.5" y="1321.0"/>
      <point x="728.5" y="1321.0" type="curve" smooth="yes"/>
      <point x="388.5" y="1321.0"/>
      <point x="113.0" y="1121.5"/>
      <point x="113.0" y="766.5" type="curve" smooth="yes"/>
      <point x="113.0" y="430.0"/>
      <point x="363.5" y="267.0"/>
    </contour>
    <contour>
      <point x="720.0" y="410.0" type="curve" smooth="yes"/>
      <point x="512.0" y="410.0"/>
      <point x="302.0" y="489.0"/>
      <point x="302.0" y="779.0" type="curve" smooth="yes"/>
      <point x="302.0" y="1038.0"/>
      <point x="495.0" y="1181.5"/>
      <point x="723.5" y="1181.5" type="curve" smooth="yes"/>
      <point x="987.0" y="1181.5"/>
      <point x="1116.5" y="1029.0"/>
      <point x="1116.5" y="790.5" type="curve" smooth="yes"/>
      <point x="1116.5" y="510.5"/>
      <point x="929.5" y="410.0"/>
    </contour>
    <contour>
      <point x="683.5" y="529.5" type="curve"/>
      <point x="683.5" y="572.0"/>
      <point x="683.0" y="720.5"/>
      <point x="682.0" y="755.0" type="curve"/>
      <point x="688.5" y="755.5"/>
      <point x="700.5" y="757.0"/>
      <point x="707.5" y="758.5" type="curve"/>
      <point x="745.0" y="688.5"/>
      <point x="776.5" y="596.0"/>
      <point x="810.5" y="529.5" type="curve"/>
      <point x="866.5" y="529.5"/>
      <point x="919.0" y="537.5"/>
      <point x="948.5" y="553.0" type="curve"/>
      <point x="933.0" y="592.0"/>
      <point x="862.0" y="737.0"/>
      <point x="822.0" y="792.5" type="curve"/>
      <point x="889.0" y="811.5"/>
      <point x="931.5" y="863.5"/>
      <point x="931.5" y="936.0" type="curve" smooth="yes"/>
      <point x="931.5" y="1038.5"/>
      <point x="819.0" y="1065.0"/>
      <point x="712.0" y="1065.0" type="curve" smooth="yes"/>
      <point x="641.5" y="1065.0"/>
      <point x="580.5" y="1052.5"/>
      <point x="542.0" y="1030.5" type="curve"/>
      <point x="538.5" y="937.0"/>
      <point x="536.0" y="669.0"/>
      <point x="536.0" y="551.5" type="curve"/>
      <point x="574.5" y="538.5"/>
      <point x="632.5" y="529.5"/>
    </contour>
    <contour>
      <point x="674.5" y="854.5" type="curve"/>
      <point x="674.5" y="871.0"/>
      <point x="670.0" y="947.5"/>
      <point x="668.5" y="961.0" type="curve"/>
      <point x="683.5" y="963.5"/>
      <point x="706.0" y="965.5"/>
      <point x="727.5" y="965.5" type="curve" smooth="yes"/>
      <point x="764.0" y="965.5"/>
      <point x="798.5" y="958.5"/>
      <point x="798.5" y="925.5" type="curve" smooth="yes"/>
      <point x="798.5" y="873.0"/>
      <point x="743.5" y="854.5"/>
    </contour>
  </outline>
</glyph>
<glyph name="degree" format="2">
  <advance width="814.0"/>
  <unicode hex="00B0"/>
  <outline>
    <contour>
      <point x="371.5" y="887.5" type="curve" smooth="yes"/>
      <point x="562.0" y="887.5"/>
      <point x="722.5" y="1041.0"/>
      <point x="722.5" y="1226.0" type="curve" smooth="yes"/>
      <point x="722.5" y="1392.5"/>
      <point x="568.5" y="1512.5"/>
      <point x="377.0" y="1512.5" type="curve" smooth="yes"/>
      <point x="193.0" y="1512.5"/>
      <point x="35.0" y="1382.0"/>
      <point x="35.0" y="1200.0" type="curve" smooth="yes"/>
      <point x="35.0" y="1027.5"/>
      <point x="185.0" y="887.5"/>
    </contour>
    <contour>
      <point x="371.0" y="1056.5" type="curve" smooth="yes"/>
      <point x="280.5" y="1056.5"/>
      <point x="225.5" y="1117.0"/>
      <point x="225.5" y="1210.5" type="curve" smooth="yes"/>
      <point x="225.5" y="1287.0"/>
      <point x="299.5" y="1343.5"/>
      <point x="371.5" y="1343.5" type="curve" smooth="yes"/>
      <point x="482.0" y="1343.5"/>
      <point x="532.0" y="1278.5"/>
      <point x="532.0" y="1198.0" type="curve" smooth="yes"/>
      <point x="532.0" y="1120.5"/>
      <point x="456.5" y="1056.5"/>
    </contour>
  </outline>
</glyph>
<glyph name="twosuperior" format="2">
  <advance width="740.5"/>
  <unicode hex="00B2"/>
  <outline>
    <contour>
      <point x="630.0" y="687.0" type="curve"/>
      <point x="540.0" y="682.0"/>
      <point x="358.5" y="669.0"/>
      <point x="299.0" y="661.5" type="curve"/>
      <point x="323.5" y="677.0"/>
      <point x="425.5" y="775.0"/>
      <point x="488.5" y="849.5" type="curve" smooth="yes"/>
      <point x="571.5" y="947.0"/>
      <point x="614.5" y="1044.0"/>
      <point x="614.5" y="1123.0" type="curve" smooth="yes"/>
      <point x="614.5" y="1244.0"/>
      <point x="524.0" y="1320.5"/>
      <point x="385.0" y="1320.5" type="curve" smooth="yes"/>
      <point x="237.0" y="1320.5"/>
      <point x="100.0" y="1236.0"/>
      <point x="33.0" y="1117.5" type="curve"/>
      <point x="60.0" y="1091.0"/>
      <point x="128.5" y="1039.0"/>
      <point x="168.5" y="1020.0" type="curve"/>
      <point x="202.0" y="1080.0"/>
      <point x="272.0" y="1140.0"/>
      <point x="358.5" y="1140.0" type="curve" smooth="yes"/>
      <point x="410.5" y="1140.0"/>
      <point x="450.0" y="1117.5"/>
      <point x="450.0" y="1070.5" type="curve" smooth="yes"/>
      <point x="450.0" y="1005.0"/>
      <point x="359.5" y="908.5"/>
      <point x="266.0" y="828.0" type="curve" smooth="yes"/>
      <point x="178.5" y="754.5"/>
      <point x="97.0" y="682.5"/>
      <point x="47.0" y="648.0" type="curve"/>
      <point x="49.5" y="595.5"/>
      <point x="72.5" y="503.5"/>
      <point x="76.0" y="490.0" type="curve"/>
      <point x="634.5" y="516.0" type="line"/>
      <point x="636.0" y="538.0"/>
      <point x="635.5" y="650.5"/>
    </contour>
  </outline>
</glyph>
<glyph name="threesuperior" format="2">
  <advance width="785.0"/>
  <unicode hex="00B3"/>
  <outline>
    <contour>
      <point x="351.5" y="498.0" type="curve" smooth="yes"/>
      <point x="529.5" y="498.0"/>
      <point x="676.5" y="586.0"/>
      <point x="676.5" y="736.0" type="curve" smooth="yes"/>
      <point x="676.5" y="859.0"/>
      <point x="567.0" y="917.0"/>
      <point x="454.0" y="923.5" type="curve"/>
      <point x="542.5" y="945.0"/>
      <point x="628.0" y="1006.5"/>
      <point x="628.0" y="1098.5" type="curve" smooth="yes"/>
      <point x="628.0" y="1221.0"/>
      <point x="506.0" y="1291.5"/>
      <point x="363.5" y="1291.5" type="curve" smooth="yes"/>
      <point x="188.0" y="1291.5"/>
      <point x="66.5" y="1207.5"/>
      <point x="26.0" y="1171.5" type="curve"/>
      <point x="41.0" y="1153.0"/>
      <point x="117.5" y="1090.0"/>
      <point x="148.0" y="1065.0" type="curve"/>
      <point x="184.5" y="1099.5"/>
      <point x="273.0" y="1140.0"/>
      <point x="352.0" y="1140.0" type="curve" smooth="yes"/>
      <point x="425.0" y="1140.0"/>
      <point x="459.0" y="1106.5"/>
      <point x="459.0" y="1062.0" type="curve" smooth="yes"/>
      <point x="459.0" y="992.0"/>
      <point x="324.0" y="955.5"/>
      <point x="195.0" y="955.5" type="curve"/>
      <point x="195.0" y="915.5"/>
      <point x="202.0" y="858.5"/>
      <point x="209.5" y="837.0" type="curve"/>
      <point x="407.5" y="837.0"/>
      <point x="501.5" y="818.5"/>
      <point x="501.5" y="736.5" type="curve" smooth="yes"/>
      <point x="501.5" y="673.0"/>
      <point x="439.5" y="636.0"/>
      <point x="352.5" y="636.0" type="curve" smooth="yes"/>
      <point x="265.0" y="636.0"/>
      <point x="199.5" y="674.5"/>
      <point x="181.0" y="721.0" type="curve"/>
      <point x="141.0" y="705.0"/>
      <point x="75.5" y="666.5"/>
      <point x="39.0" y="641.5" type="curve"/>
      <point x="74.0" y="557.5"/>
      <point x="196.0" y="498.0"/>
    </contour>
  </outline>
</glyph>
<glyph name="micro" format="2">
  <advance width="1178.0"/>
  <unicode hex="00B5"/>
  <anchor x="579.0" y="0.0" name="bottom"/>
  <anchor x="781.0" y="0.0" name="ogonek"/>
  <anchor x="579.0" y="1063.0" name="top"/>
  <anchor x="992.5" y="921.0" name="topright"/>
  <outline>
    <contour>
      <point x="142.0" y="-400.0" type="curve"/>
      <point x="212.0" y="-400.0"/>
      <point x="302.0" y="-394.5"/>
      <point x="357.5" y="-385.5" type="curve"/>
      <point x="349.0" y="-300.5"/>
      <point x="338.0" y="-120.0"/>
      <point x="335.5" y="21.0" type="curve" smooth="yes"/>
      <point x="331.5" y="253.0"/>
      <point x="330.5" y="440.0"/>
      <point x="336.0" y="686.5" type="curve"/>
      <point x="94.0" y="691.5" type="line"/>
      <point x="94.0" y="380.0"/>
      <point x="119.0" y="-152.5"/>
    </contour>
    <component base="u"/>
  </outline>
</glyph>
<glyph name="paragraph" format="2">
  <advance width="1210.0"/>
  <unicode hex="00B6"/>
  <outline>
    <contour>
      <point x="1026.0" y="-356.0" type="curve"/>
      <point x="1056.5" y="-67.5"/>
      <point x="1089.5" y="477.5"/>
      <point x="1089.5" y="825.5" type="curve" smooth="yes"/>
      <point x="1089.5" y="977.5"/>
      <point x="1084.0" y="1109.5"/>
      <point x="1072.0" y="1194.0" type="curve"/>
      <point x="942.5" y="1263.5"/>
      <point x="680.0" y="1314.0"/>
      <point x="507.5" y="1314.0" type="curve" smooth="yes"/>
      <point x="230.5" y="1314.0"/>
      <point x="94.5" y="1183.5"/>
      <point x="94.5" y="932.5" type="curve" smooth="yes"/>
      <point x="94.5" y="690.5"/>
      <point x="246.5" y="525.5"/>
      <point x="495.0" y="525.5" type="curve" smooth="yes"/>
      <point x="520.5" y="525.5"/>
      <point x="547.5" y="529.5"/>
      <point x="572.0" y="536.5" type="curve"/>
      <point x="566.5" y="463.0"/>
      <point x="536.0" y="-147.0"/>
      <point x="532.0" y="-310.0" type="curve"/>
      <point x="557.5" y="-311.0"/>
      <point x="686.0" y="-314.5"/>
      <point x="735.0" y="-313.5" type="curve"/>
      <point x="736.0" y="-247.5"/>
      <point x="775.5" y="571.0"/>
      <point x="789.5" y="1089.0" type="curve"/>
      <point x="827.5" y="1084.0"/>
      <point x="862.0" y="1075.5"/>
      <point x="895.5" y="1065.5" type="curve"/>
      <point x="899.5" y="1004.0"/>
      <point x="901.5" y="936.5"/>
      <point x="901.5" y="864.5" type="curve" smooth="yes"/>
      <point x="901.5" y="517.0"/>
      <point x="870.5" y="-88.0"/>
      <point x="846.0" y="-335.5" type="curve"/>
      <point x="875.5" y="-340.5"/>
      <point x="979.5" y="-356.0"/>
    </contour>
  </outline>
</glyph>
<glyph name="periodcentered" format="2">
  <advance width="450.0"/>
  <unicode hex="00B7"/>
  <outline>
    <contour>
      <point x="202.5" y="702.0" type="curve" smooth="yes"/>
      <point x="279.5" y="702.0"/>
      <point x="348.5" y="765.0"/>
      <point x="348.5" y="843.0" type="curve" smooth="yes"/>
      <point x="348.5" y="915.5"/>
      <point x="298.0" y="982.0"/>
      <point x="214.0" y="982.0" type="curve" smooth="yes"/>
      <point x="131.5" y="982.0"/>
      <point x="61.5" y="922.5"/>
      <point x="61.5" y="843.0" type="curve" smooth="yes"/>
      <point x="61.5" y="765.0"/>
      <point x="101.0" y="702.0"/>
    </contour>
  </outline>
</glyph>
<glyph name="onesuperior" format="2">
  <advance width="551.0"/>
  <unicode hex="00B9"/>
  <outline>
    <contour>
      <point x="334.5" y="660.0" type="curve"/>
      <point x="339.5" y="739.5"/>
      <point x="341.5" y="826.5"/>
      <point x="341.5" y="901.5" type="curve" smooth="yes"/>
      <point x="341.5" y="1083.0"/>
      <point x="338.5" y="1234.5"/>
      <point x="335.0" y="1262.5" type="curve"/>
      <point x="302.5" y="1268.5"/>
      <point x="232.0" y="1271.5"/>
      <point x="199.0" y="1271.5" type="curve"/>
      <point x="150.0" y="1232.5"/>
      <point x="41.5" y="1135.0"/>
      <point x="16.0" y="1107.0" type="curve"/>
      <point x="31.0" y="1072.5"/>
      <point x="56.5" y="1026.5"/>
      <point x="78.0" y="993.5" type="curve"/>
      <point x="96.0" y="1010.5"/>
      <point x="168.0" y="1075.0"/>
      <point x="185.5" y="1087.0" type="curve"/>
      <point x="185.5" y="1019.0"/>
      <point x="184.5" y="715.0"/>
      <point x="183.5" y="653.5" type="curve"/>
      <point x="161.5" y="651.5"/>
      <point x="87.5" y="644.0"/>
      <point x="60.0" y="638.5" type="curve"/>
      <point x="55.5" y="603.5"/>
      <point x="54.5" y="532.0"/>
      <point x="55.0" y="493.0" type="curve"/>
      <point x="103.5" y="498.5"/>
      <point x="369.0" y="505.0"/>
      <point x="431.5" y="505.0" type="curve"/>
      <point x="436.0" y="532.5"/>
      <point x="441.0" y="628.0"/>
      <point x="441.5" y="653.0" type="curve"/>
      <point x="416.0" y="657.0"/>
      <point x="364.5" y="660.0"/>
    </contour>
  </outline>
</glyph>
<glyph name="ordmasculine" format="2">
  <advance width="750.0"/>
  <unicode hex="00BA"/>
  <outline>
    <contour>
      <point x="381.5" y="750.5" type="curve" smooth="yes"/>
      <point x="584.0" y="750.5"/>
      <point x="700.0" y="873.5"/>
      <point x="700.0" y="1062.5" type="curve" smooth="yes"/>
      <point x="700.0" y="1279.5"/>
      <point x="597.5" y="1432.0"/>
      <point x="386.0" y="1432.0" type="curve" smooth="yes"/>
      <point x="181.5" y="1432.0"/>
      <point x="41.5" y="1317.5"/>
      <point x="41.5" y="1097.0" type="curve" smooth="yes"/>
      <point x="41.5" y="872.5"/>
      <point x="153.5" y="750.5"/>
    </contour>
    <contour>
      <point x="375.0" y="910.0" type="curve" smooth="yes"/>
      <point x="268.5" y="910.0"/>
      <point x="212.0" y="992.5"/>
      <point x="212.0" y="1106.5" type="curve" smooth="yes"/>
      <point x="212.0" y="1211.0"/>
      <point x="264.5" y="1300.5"/>
      <point x="377.0" y="1300.5" type="curve" smooth="yes"/>
      <point x="484.5" y="1300.5"/>
      <point x="540.0" y="1213.5"/>
      <point x="540.0" y="1090.5" type="curve" smooth="yes"/>
      <point x="540.0" y="991.5"/>
      <point x="486.0" y="910.0"/>
    </contour>
  </outline>
</glyph>
<glyph name="guillemetright" format="2">
  <advance width="1313.0"/>
  <unicode hex="00BB"/>
  <outline>
    <contour>
      <point x="141.0" y="1007.0" type="curve"/>
      <point x="227.0" y="938.0"/>
      <point x="409.5" y="787.5"/>
      <point x="522.5" y="693.0" type="curve"/>
      <point x="349.5" y="559.5"/>
      <point x="113.5" y="377.0"/>
      <point x="97.5" y="363.5" type="curve"/>
      <point x="102.5" y="325.0"/>
      <point x="132.5" y="241.0"/>
      <point x="159.0" y="200.0" type="curve"/>
      <point x="359.0" y="338.5"/>
      <point x="576.0" y="512.0"/>
      <point x="755.5" y="689.0" type="curve"/>
      <point x="626.5" y="836.0"/>
      <point x="366.0" y="1089.0"/>
      <point x="313.0" y="1121.0" type="curve"/>
      <point x="273.5" y="1102.0"/>
      <point x="188.5" y="1043.5"/>
    </contour>
    <contour>
      <point x="588.0" y="1092.5" type="curve"/>
      <point x="674.0" y="1030.0"/>
      <point x="877.5" y="830.0"/>
      <point x="1007.0" y="696.5" type="curve"/>
      <point x="834.5" y="528.0"/>
      <point x="592.5" y="298.5"/>
      <point x="549.0" y="261.0" type="curve"/>
      <point x="566.5" y="226.5"/>
      <point x="628.5" y="153.5"/>
      <point x="654.5" y="132.0" type="curve"/>
      <point x="862.5" y="309.0"/>
      <point x="1063.5" y="497.0"/>
      <point x="1250.0" y="693.0" type="curve"/>
      <point x="1220.0" y="728.0"/>
      <point x="891.0" y="1072.0"/>
      <point x="740.0" y="1190.0" type="curve"/>
      <point x="704.5" y="1172.5"/>
      <point x="631.0" y="1124.0"/>
    </contour>
  </outline>
</glyph>
